<?xml version="1.0" encoding="utf-8" standalone="no"?>
<!DOCTYPE svg PUBLIC "-//W3C//DTD SVG 1.1//EN"
  "http://www.w3.org/Graphics/SVG/1.1/DTD/svg11.dtd">
<!-- Created with matplotlib (http://matplotlib.org/) -->
<svg height="345pt" version="1.1" viewBox="0 0 460 345" width="460pt" xmlns="http://www.w3.org/2000/svg" xmlns:xlink="http://www.w3.org/1999/xlink">
 <defs>
  <style type="text/css">
*{stroke-linecap:butt;stroke-linejoin:round;}
  </style>
 </defs>
 <g id="figure_1">
  <g id="patch_1">
   <path d="M 0 345.6 
L 460.8 345.6 
L 460.8 0 
L 0 0 
z
" style="fill:#ffffff;"/>
  </g>
  <g id="axes_1">
   <g id="patch_2">
    <path d="M 57.6 307.584 
L 414.72 307.584 
L 414.72 41.472 
L 57.6 41.472 
z
" style="fill:#ffffff;"/>
   </g>
   <g id="PathCollection_1">
    <path clip-path="url(#p276a549346)" d="M 114.73391 190.792813 
C 116.260913 190.792813 117.725579 190.186128 118.805333 189.106374 
C 119.885087 188.02662 120.491772 186.561954 120.491772 185.034951 
C 120.491772 183.507948 119.885087 182.043282 118.805333 180.963528 
C 117.725579 179.883774 116.260913 179.277089 114.73391 179.277089 
C 113.206907 179.277089 111.742241 179.883774 110.662487 180.963528 
C 109.582733 182.043282 108.976048 183.507948 108.976048 185.034951 
C 108.976048 186.561954 109.582733 188.02662 110.662487 189.106374 
C 111.742241 190.186128 113.206907 190.792813 114.73391 190.792813 
z
" style="fill:#ff0029;stroke:#ff0029;"/>
    <path clip-path="url(#p276a549346)" d="M 398.381909 162.486022 
C 402.744995 162.486022 406.929968 160.75255 410.015135 157.667382 
C 413.100303 154.582215 414.833775 150.397242 414.833775 146.034156 
C 414.833775 141.671071 413.100303 137.486098 410.015135 134.400931 
C 406.929968 131.315763 402.744995 129.582291 398.381909 129.582291 
C 394.018824 129.582291 389.833851 131.315763 386.748684 134.400931 
C 383.663516 137.486098 381.930044 141.671071 381.930044 146.034156 
C 381.930044 150.397242 383.663516 154.582215 386.748684 157.667382 
C 389.833851 160.75255 394.018824 162.486022 398.381909 162.486022 
z
" style="fill:#ff3300;stroke:#ff3300;"/>
    <path clip-path="url(#p276a549346)" d="M 265.662515 161.384204 
C 269.396379 161.384204 272.977817 159.900723 275.618058 157.260483 
C 278.258299 154.620242 279.741779 151.038804 279.741779 147.304939 
C 279.741779 143.571075 278.258299 139.989637 275.618058 137.349396 
C 272.977817 134.709155 269.396379 133.225675 265.662515 133.225675 
C 261.92865 133.225675 258.347212 134.709155 255.706971 137.349396 
C 253.06673 139.989637 251.58325 143.571075 251.58325 147.304939 
C 251.58325 151.038804 253.06673 154.620242 255.706971 157.260483 
C 258.347212 159.900723 261.92865 161.384204 265.662515 161.384204 
z
" style="fill:#ff8e00;stroke:#ff8e00;"/>
    <path clip-path="url(#p276a549346)" d="M 119.997892 283.509182 
C 120.946636 283.509182 121.85665 283.132242 122.527513 282.461378 
C 123.198376 281.790515 123.575316 280.880501 123.575316 279.931757 
C 123.575316 278.983013 123.198376 278.072999 122.527513 277.402136 
C 121.85665 276.731273 120.946636 276.354333 119.997892 276.354333 
C 119.049148 276.354333 118.139134 276.731273 117.468271 277.402136 
C 116.797407 278.072999 116.420467 278.983013 116.420467 279.931757 
C 116.420467 280.880501 116.797407 281.790515 117.468271 282.461378 
C 118.139134 283.132242 119.049148 283.509182 119.997892 283.509182 
z
" style="fill:#ffea00;stroke:#ffea00;"/>
    <path clip-path="url(#p276a549346)" d="M 82.122589 60.25431 
C 82.889163 60.25431 83.624442 59.949747 84.166491 59.407698 
C 84.70854 58.865649 85.013103 58.130369 85.013103 57.363796 
C 85.013103 56.597223 84.70854 55.861944 84.166491 55.319895 
C 83.624442 54.777845 82.889163 54.473283 82.122589 54.473283 
C 81.356016 54.473283 80.620737 54.777845 80.078688 55.319895 
C 79.536639 55.861944 79.232076 56.597223 79.232076 57.363796 
C 79.232076 58.130369 79.536639 58.865649 80.078688 59.407698 
C 80.620737 59.949747 81.356016 60.25431 82.122589 60.25431 
z
" style="fill:#b8ff00;stroke:#b8ff00;"/>
    <path clip-path="url(#p276a549346)" d="M 77.13585 248.511719 
C 77.653546 248.511719 78.150108 248.306036 78.516174 247.939969 
C 78.882241 247.573903 79.087924 247.077341 79.087924 246.559645 
C 79.087924 246.041949 78.882241 245.545386 78.516174 245.17932 
C 78.150108 244.813254 77.653546 244.607571 77.13585 244.607571 
C 76.618154 244.607571 76.121591 244.813254 75.755525 245.17932 
C 75.389459 245.545386 75.183776 246.041949 75.183776 246.559645 
C 75.183776 247.077341 75.389459 247.573903 75.755525 247.939969 
C 76.121591 248.306036 76.618154 248.511719 77.13585 248.511719 
z
" style="fill:#5cff00;stroke:#5cff00;"/>
    <path clip-path="url(#p276a549346)" d="M 183.653116 97.338675 
C 185.243872 97.338675 186.769689 96.706661 187.894523 95.581827 
C 189.019357 94.456993 189.651371 92.931176 189.651371 91.340421 
C 189.651371 89.749665 189.019357 88.223848 187.894523 87.099014 
C 186.769689 85.97418 185.243872 85.342166 183.653116 85.342166 
C 182.062361 85.342166 180.536544 85.97418 179.41171 87.099014 
C 178.286876 88.223848 177.654862 89.749665 177.654862 91.340421 
C 177.654862 92.931176 178.286876 94.456993 179.41171 95.581827 
C 180.536544 96.706661 182.062361 97.338675 183.653116 97.338675 
z
" style="fill:#00ff00;stroke:#00ff00;"/>
    <path clip-path="url(#p276a549346)" d="M 85.748485 239.009926 
C 86.435905 239.009926 87.095263 238.736812 87.581342 238.250732 
C 88.067422 237.764653 88.340536 237.105295 88.340536 236.417875 
C 88.340536 235.730455 88.067422 235.071098 87.581342 234.585019 
C 87.095263 234.098939 86.435905 233.825824 85.748485 233.825824 
C 85.061065 233.825824 84.401708 234.098939 83.915629 234.585019 
C 83.429549 235.071098 83.156434 235.730455 83.156434 236.417875 
C 83.156434 237.105295 83.429549 237.764653 83.915629 238.250732 
C 84.401708 238.736812 85.061065 239.009926 85.748485 239.009926 
z
" style="fill:#00ff5b;stroke:#00ff5b;"/>
    <path clip-path="url(#p276a549346)" d="M 75.035693 226.579653 
C 75.583326 226.579653 76.108602 226.362076 76.495837 225.974841 
C 76.883072 225.587607 77.100649 225.06233 77.100649 224.514697 
C 77.100649 223.967065 76.883072 223.441788 76.495837 223.054553 
C 76.108602 222.667318 75.583326 222.449742 75.035693 222.449742 
C 74.48806 222.449742 73.962784 222.667318 73.575549 223.054553 
C 73.188314 223.441788 72.970737 223.967065 72.970737 224.514697 
C 72.970737 225.06233 73.188314 225.587607 73.575549 225.974841 
C 73.962784 226.362076 74.48806 226.579653 75.035693 226.579653 
z
" style="fill:#00ffb7;stroke:#00ffb7;"/>
    <path clip-path="url(#p276a549346)" d="M 74.120612 136.566977 
C 74.244562 136.566977 74.363453 136.517731 74.451099 136.430084 
C 74.538745 136.342438 74.587991 136.223548 74.587991 136.099597 
C 74.587991 135.975647 74.538745 135.856756 74.451099 135.76911 
C 74.363453 135.681464 74.244562 135.632218 74.120612 135.632218 
C 73.996661 135.632218 73.877771 135.681464 73.790125 135.76911 
C 73.702478 135.856756 73.653232 135.975647 73.653232 136.099597 
C 73.653232 136.223548 73.702478 136.342438 73.790125 136.430084 
C 73.877771 136.517731 73.996661 136.566977 74.120612 136.566977 
z
" style="fill:#00ecff;stroke:#00ecff;"/>
    <path clip-path="url(#p276a549346)" d="M 74.867173 227.022151 
C 75.702267 227.022151 76.50327 226.690365 77.09377 226.099865 
C 77.68427 225.509364 78.016057 224.708361 78.016057 223.873268 
C 78.016057 223.038174 77.68427 222.237171 77.09377 221.646671 
C 76.50327 221.05617 75.702267 220.724384 74.867173 220.724384 
C 74.032079 220.724384 73.231076 221.05617 72.640576 221.646671 
C 72.050076 222.237171 71.718289 223.038174 71.718289 223.873268 
C 71.718289 224.708361 72.050076 225.509364 72.640576 226.099865 
C 73.231076 226.690365 74.032079 227.022151 74.867173 227.022151 
z
" style="fill:#008fff;stroke:#008fff;"/>
    <path clip-path="url(#p276a549346)" d="M 74.508389 199.889118 
C 74.724955 199.889118 74.93268 199.803076 75.085815 199.64994 
C 75.23895 199.496805 75.324993 199.28908 75.324993 199.072514 
C 75.324993 198.855948 75.23895 198.648223 75.085815 198.495088 
C 74.93268 198.341953 74.724955 198.25591 74.508389 198.25591 
C 74.291823 198.25591 74.084098 198.341953 73.930962 198.495088 
C 73.777827 198.648223 73.691785 198.855948 73.691785 199.072514 
C 73.691785 199.28908 73.777827 199.496805 73.930962 199.64994 
C 74.084098 199.803076 74.291823 199.889118 74.508389 199.889118 
z
" style="fill:#0033ff;stroke:#0033ff;"/>
    <path clip-path="url(#p276a549346)" d="M 74.280071 197.344145 
C 74.666837 197.344145 75.037814 197.190481 75.311298 196.916996 
C 75.584783 196.643512 75.738446 196.272535 75.738446 195.88577 
C 75.738446 195.499004 75.584783 195.128027 75.311298 194.854543 
C 75.037814 194.581058 74.666837 194.427395 74.280071 194.427395 
C 73.893306 194.427395 73.522329 194.581058 73.248845 194.854543 
C 72.97536 195.128027 72.821697 195.499004 72.821697 195.88577 
C 72.821697 196.272535 72.97536 196.643512 73.248845 196.916996 
C 73.522329 197.190481 73.893306 197.344145 74.280071 197.344145 
z
" style="fill:#2a00ff;stroke:#2a00ff;"/>
    <path clip-path="url(#p276a549346)" d="M 73.865114 295.26768 
C 74.051676 295.26768 74.230622 295.193558 74.362541 295.061639 
C 74.49446 294.92972 74.568582 294.750774 74.568582 294.564212 
C 74.568582 294.37765 74.49446 294.198704 74.362541 294.066784 
C 74.230622 293.934865 74.051676 293.860743 73.865114 293.860743 
C 73.678552 293.860743 73.499606 293.934865 73.367687 294.066784 
C 73.235767 294.198704 73.161645 294.37765 73.161645 294.564212 
C 73.161645 294.750774 73.235767 294.92972 73.367687 295.061639 
C 73.499606 295.193558 73.678552 295.26768 73.865114 295.26768 
z
" style="fill:#8600ff;stroke:#8600ff;"/>
    <path clip-path="url(#p276a549346)" d="M 73.836121 147.651171 
C 73.976661 147.651171 74.111463 147.595334 74.210839 147.495957 
C 74.310216 147.396581 74.366052 147.261779 74.366052 147.121239 
C 74.366052 146.9807 74.310216 146.845898 74.210839 146.746521 
C 74.111463 146.647145 73.976661 146.591308 73.836121 146.591308 
C 73.695582 146.591308 73.560779 146.647145 73.461403 146.746521 
C 73.362027 146.845898 73.30619 146.9807 73.30619 147.121239 
C 73.30619 147.261779 73.362027 147.396581 73.461403 147.495957 
C 73.560779 147.595334 73.695582 147.651171 73.836121 147.651171 
z
" style="fill:#e200ff;stroke:#e200ff;"/>
   </g>
   <g id="matplotlib.axis_1">
    <g id="xtick_1">
     <g id="line2d_1">
      <defs>
       <path d="M 0 0 
L 0 3.5 
" id="m17f447737c" style="stroke:#000000;stroke-width:0.8;"/>
      </defs>
      <g>
       <use style="stroke:#000000;stroke-width:0.8;" x="73.703842" xlink:href="#m17f447737c" y="307.584"/>
      </g>
     </g>
     <g id="text_1">
      <!-- 0 -->
      <defs>
       <path d="M 31.78125 66.40625 
Q 24.171875 66.40625 20.328125 58.90625 
Q 16.5 51.421875 16.5 36.375 
Q 16.5 21.390625 20.328125 13.890625 
Q 24.171875 6.390625 31.78125 6.390625 
Q 39.453125 6.390625 43.28125 13.890625 
Q 47.125 21.390625 47.125 36.375 
Q 47.125 51.421875 43.28125 58.90625 
Q 39.453125 66.40625 31.78125 66.40625 
z
M 31.78125 74.21875 
Q 44.046875 74.21875 50.515625 64.515625 
Q 56.984375 54.828125 56.984375 36.375 
Q 56.984375 17.96875 50.515625 8.265625 
Q 44.046875 -1.421875 31.78125 -1.421875 
Q 19.53125 -1.421875 13.0625 8.265625 
Q 6.59375 17.96875 6.59375 36.375 
Q 6.59375 54.828125 13.0625 64.515625 
Q 19.53125 74.21875 31.78125 74.21875 
z
" id="DejaVuSans-30"/>
      </defs>
      <g transform="translate(70.522592 322.182437)scale(0.1 -0.1)">
       <use xlink:href="#DejaVuSans-30"/>
      </g>
     </g>
    </g>
    <g id="xtick_2">
     <g id="line2d_2">
      <g>
       <use style="stroke:#000000;stroke-width:0.8;" x="137.234906" xlink:href="#m17f447737c" y="307.584"/>
      </g>
     </g>
     <g id="text_2">
      <!-- 20 -->
      <defs>
       <path d="M 19.1875 8.296875 
L 53.609375 8.296875 
L 53.609375 0 
L 7.328125 0 
L 7.328125 8.296875 
Q 12.9375 14.109375 22.625 23.890625 
Q 32.328125 33.6875 34.8125 36.53125 
Q 39.546875 41.84375 41.421875 45.53125 
Q 43.3125 49.21875 43.3125 52.78125 
Q 43.3125 58.59375 39.234375 62.25 
Q 35.15625 65.921875 28.609375 65.921875 
Q 23.96875 65.921875 18.8125 64.3125 
Q 13.671875 62.703125 7.8125 59.421875 
L 7.8125 69.390625 
Q 13.765625 71.78125 18.9375 73 
Q 24.125 74.21875 28.421875 74.21875 
Q 39.75 74.21875 46.484375 68.546875 
Q 53.21875 62.890625 53.21875 53.421875 
Q 53.21875 48.921875 51.53125 44.890625 
Q 49.859375 40.875 45.40625 35.40625 
Q 44.1875 33.984375 37.640625 27.21875 
Q 31.109375 20.453125 19.1875 8.296875 
z
" id="DejaVuSans-32"/>
      </defs>
      <g transform="translate(130.872406 322.182437)scale(0.1 -0.1)">
       <use xlink:href="#DejaVuSans-32"/>
       <use x="63.623047" xlink:href="#DejaVuSans-30"/>
      </g>
     </g>
    </g>
    <g id="xtick_3">
     <g id="line2d_3">
      <g>
       <use style="stroke:#000000;stroke-width:0.8;" x="200.765969" xlink:href="#m17f447737c" y="307.584"/>
      </g>
     </g>
     <g id="text_3">
      <!-- 40 -->
      <defs>
       <path d="M 37.796875 64.3125 
L 12.890625 25.390625 
L 37.796875 25.390625 
z
M 35.203125 72.90625 
L 47.609375 72.90625 
L 47.609375 25.390625 
L 58.015625 25.390625 
L 58.015625 17.1875 
L 47.609375 17.1875 
L 47.609375 0 
L 37.796875 0 
L 37.796875 17.1875 
L 4.890625 17.1875 
L 4.890625 26.703125 
z
" id="DejaVuSans-34"/>
      </defs>
      <g transform="translate(194.403469 322.182437)scale(0.1 -0.1)">
       <use xlink:href="#DejaVuSans-34"/>
       <use x="63.623047" xlink:href="#DejaVuSans-30"/>
      </g>
     </g>
    </g>
    <g id="xtick_4">
     <g id="line2d_4">
      <g>
       <use style="stroke:#000000;stroke-width:0.8;" x="264.297032" xlink:href="#m17f447737c" y="307.584"/>
      </g>
     </g>
     <g id="text_4">
      <!-- 60 -->
      <defs>
       <path d="M 33.015625 40.375 
Q 26.375 40.375 22.484375 35.828125 
Q 18.609375 31.296875 18.609375 23.390625 
Q 18.609375 15.53125 22.484375 10.953125 
Q 26.375 6.390625 33.015625 6.390625 
Q 39.65625 6.390625 43.53125 10.953125 
Q 47.40625 15.53125 47.40625 23.390625 
Q 47.40625 31.296875 43.53125 35.828125 
Q 39.65625 40.375 33.015625 40.375 
z
M 52.59375 71.296875 
L 52.59375 62.3125 
Q 48.875 64.0625 45.09375 64.984375 
Q 41.3125 65.921875 37.59375 65.921875 
Q 27.828125 65.921875 22.671875 59.328125 
Q 17.53125 52.734375 16.796875 39.40625 
Q 19.671875 43.65625 24.015625 45.921875 
Q 28.375 48.1875 33.59375 48.1875 
Q 44.578125 48.1875 50.953125 41.515625 
Q 57.328125 34.859375 57.328125 23.390625 
Q 57.328125 12.15625 50.6875 5.359375 
Q 44.046875 -1.421875 33.015625 -1.421875 
Q 20.359375 -1.421875 13.671875 8.265625 
Q 6.984375 17.96875 6.984375 36.375 
Q 6.984375 53.65625 15.1875 63.9375 
Q 23.390625 74.21875 37.203125 74.21875 
Q 40.921875 74.21875 44.703125 73.484375 
Q 48.484375 72.75 52.59375 71.296875 
z
" id="DejaVuSans-36"/>
      </defs>
      <g transform="translate(257.934532 322.182437)scale(0.1 -0.1)">
       <use xlink:href="#DejaVuSans-36"/>
       <use x="63.623047" xlink:href="#DejaVuSans-30"/>
      </g>
     </g>
    </g>
    <g id="xtick_5">
     <g id="line2d_5">
      <g>
       <use style="stroke:#000000;stroke-width:0.8;" x="327.828096" xlink:href="#m17f447737c" y="307.584"/>
      </g>
     </g>
     <g id="text_5">
      <!-- 80 -->
      <defs>
       <path d="M 31.78125 34.625 
Q 24.75 34.625 20.71875 30.859375 
Q 16.703125 27.09375 16.703125 20.515625 
Q 16.703125 13.921875 20.71875 10.15625 
Q 24.75 6.390625 31.78125 6.390625 
Q 38.8125 6.390625 42.859375 10.171875 
Q 46.921875 13.96875 46.921875 20.515625 
Q 46.921875 27.09375 42.890625 30.859375 
Q 38.875 34.625 31.78125 34.625 
z
M 21.921875 38.8125 
Q 15.578125 40.375 12.03125 44.71875 
Q 8.5 49.078125 8.5 55.328125 
Q 8.5 64.0625 14.71875 69.140625 
Q 20.953125 74.21875 31.78125 74.21875 
Q 42.671875 74.21875 48.875 69.140625 
Q 55.078125 64.0625 55.078125 55.328125 
Q 55.078125 49.078125 51.53125 44.71875 
Q 48 40.375 41.703125 38.8125 
Q 48.828125 37.15625 52.796875 32.3125 
Q 56.78125 27.484375 56.78125 20.515625 
Q 56.78125 9.90625 50.3125 4.234375 
Q 43.84375 -1.421875 31.78125 -1.421875 
Q 19.734375 -1.421875 13.25 4.234375 
Q 6.78125 9.90625 6.78125 20.515625 
Q 6.78125 27.484375 10.78125 32.3125 
Q 14.796875 37.15625 21.921875 38.8125 
z
M 18.3125 54.390625 
Q 18.3125 48.734375 21.84375 45.5625 
Q 25.390625 42.390625 31.78125 42.390625 
Q 38.140625 42.390625 41.71875 45.5625 
Q 45.3125 48.734375 45.3125 54.390625 
Q 45.3125 60.0625 41.71875 63.234375 
Q 38.140625 66.40625 31.78125 66.40625 
Q 25.390625 66.40625 21.84375 63.234375 
Q 18.3125 60.0625 18.3125 54.390625 
z
" id="DejaVuSans-38"/>
      </defs>
      <g transform="translate(321.465596 322.182437)scale(0.1 -0.1)">
       <use xlink:href="#DejaVuSans-38"/>
       <use x="63.623047" xlink:href="#DejaVuSans-30"/>
      </g>
     </g>
    </g>
    <g id="xtick_6">
     <g id="line2d_6">
      <g>
       <use style="stroke:#000000;stroke-width:0.8;" x="391.359159" xlink:href="#m17f447737c" y="307.584"/>
      </g>
     </g>
     <g id="text_6">
      <!-- 100 -->
      <defs>
       <path d="M 12.40625 8.296875 
L 28.515625 8.296875 
L 28.515625 63.921875 
L 10.984375 60.40625 
L 10.984375 69.390625 
L 28.421875 72.90625 
L 38.28125 72.90625 
L 38.28125 8.296875 
L 54.390625 8.296875 
L 54.390625 0 
L 12.40625 0 
z
" id="DejaVuSans-31"/>
      </defs>
      <g transform="translate(381.815409 322.182437)scale(0.1 -0.1)">
       <use xlink:href="#DejaVuSans-31"/>
       <use x="63.623047" xlink:href="#DejaVuSans-30"/>
       <use x="127.246094" xlink:href="#DejaVuSans-30"/>
      </g>
     </g>
    </g>
    <g id="text_7">
     <!-- SNVs -->
     <defs>
      <path d="M 53.515625 70.515625 
L 53.515625 60.890625 
Q 47.90625 63.578125 42.921875 64.890625 
Q 37.9375 66.21875 33.296875 66.21875 
Q 25.25 66.21875 20.875 63.09375 
Q 16.5 59.96875 16.5 54.203125 
Q 16.5 49.359375 19.40625 46.890625 
Q 22.3125 44.4375 30.421875 42.921875 
L 36.375 41.703125 
Q 47.40625 39.59375 52.65625 34.296875 
Q 57.90625 29 57.90625 20.125 
Q 57.90625 9.515625 50.796875 4.046875 
Q 43.703125 -1.421875 29.984375 -1.421875 
Q 24.8125 -1.421875 18.96875 -0.25 
Q 13.140625 0.921875 6.890625 3.21875 
L 6.890625 13.375 
Q 12.890625 10.015625 18.65625 8.296875 
Q 24.421875 6.59375 29.984375 6.59375 
Q 38.421875 6.59375 43.015625 9.90625 
Q 47.609375 13.234375 47.609375 19.390625 
Q 47.609375 24.75 44.3125 27.78125 
Q 41.015625 30.8125 33.5 32.328125 
L 27.484375 33.5 
Q 16.453125 35.6875 11.515625 40.375 
Q 6.59375 45.0625 6.59375 53.421875 
Q 6.59375 63.09375 13.40625 68.65625 
Q 20.21875 74.21875 32.171875 74.21875 
Q 37.3125 74.21875 42.625 73.28125 
Q 47.953125 72.359375 53.515625 70.515625 
z
" id="DejaVuSans-53"/>
      <path d="M 9.8125 72.90625 
L 23.09375 72.90625 
L 55.421875 11.921875 
L 55.421875 72.90625 
L 64.984375 72.90625 
L 64.984375 0 
L 51.703125 0 
L 19.390625 60.984375 
L 19.390625 0 
L 9.8125 0 
z
" id="DejaVuSans-4e"/>
      <path d="M 28.609375 0 
L 0.78125 72.90625 
L 11.078125 72.90625 
L 34.1875 11.53125 
L 57.328125 72.90625 
L 67.578125 72.90625 
L 39.796875 0 
z
" id="DejaVuSans-56"/>
      <path d="M 44.28125 53.078125 
L 44.28125 44.578125 
Q 40.484375 46.53125 36.375 47.5 
Q 32.28125 48.484375 27.875 48.484375 
Q 21.1875 48.484375 17.84375 46.4375 
Q 14.5 44.390625 14.5 40.28125 
Q 14.5 37.15625 16.890625 35.375 
Q 19.28125 33.59375 26.515625 31.984375 
L 29.59375 31.296875 
Q 39.15625 29.25 43.1875 25.515625 
Q 47.21875 21.78125 47.21875 15.09375 
Q 47.21875 7.46875 41.1875 3.015625 
Q 35.15625 -1.421875 24.609375 -1.421875 
Q 20.21875 -1.421875 15.453125 -0.5625 
Q 10.6875 0.296875 5.421875 2 
L 5.421875 11.28125 
Q 10.40625 8.6875 15.234375 7.390625 
Q 20.0625 6.109375 24.8125 6.109375 
Q 31.15625 6.109375 34.5625 8.28125 
Q 37.984375 10.453125 37.984375 14.40625 
Q 37.984375 18.0625 35.515625 20.015625 
Q 33.0625 21.96875 24.703125 23.78125 
L 21.578125 24.515625 
Q 13.234375 26.265625 9.515625 29.90625 
Q 5.8125 33.546875 5.8125 39.890625 
Q 5.8125 47.609375 11.28125 51.796875 
Q 16.75 56 26.8125 56 
Q 31.78125 56 36.171875 55.265625 
Q 40.578125 54.546875 44.28125 53.078125 
z
" id="DejaVuSans-73"/>
     </defs>
     <g transform="translate(223.220156 335.860562)scale(0.1 -0.1)">
      <use xlink:href="#DejaVuSans-53"/>
      <use x="63.476562" xlink:href="#DejaVuSans-4e"/>
      <use x="138.28125" xlink:href="#DejaVuSans-56"/>
      <use x="206.689453" xlink:href="#DejaVuSans-73"/>
     </g>
    </g>
   </g>
   <g id="matplotlib.axis_2">
    <g id="ytick_1">
     <g id="line2d_7">
      <defs>
       <path d="M 0 0 
L -3.5 0 
" id="m6f6adfb56f" style="stroke:#000000;stroke-width:0.8;"/>
      </defs>
      <g>
       <use style="stroke:#000000;stroke-width:0.8;" x="57.6" xlink:href="#m6f6adfb56f" y="300.191346"/>
      </g>
     </g>
     <g id="text_8">
      <!-- 0.0 -->
      <defs>
       <path d="M 10.6875 12.40625 
L 21 12.40625 
L 21 0 
L 10.6875 0 
z
" id="DejaVuSans-2e"/>
      </defs>
      <g transform="translate(34.696875 303.990564)scale(0.1 -0.1)">
       <use xlink:href="#DejaVuSans-30"/>
       <use x="63.623047" xlink:href="#DejaVuSans-2e"/>
       <use x="95.410156" xlink:href="#DejaVuSans-30"/>
      </g>
     </g>
    </g>
    <g id="ytick_2">
     <g id="line2d_8">
      <g>
       <use style="stroke:#000000;stroke-width:0.8;" x="57.6" xlink:href="#m6f6adfb56f" y="251.655808"/>
      </g>
     </g>
     <g id="text_9">
      <!-- 0.1 -->
      <g transform="translate(34.696875 255.455026)scale(0.1 -0.1)">
       <use xlink:href="#DejaVuSans-30"/>
       <use x="63.623047" xlink:href="#DejaVuSans-2e"/>
       <use x="95.410156" xlink:href="#DejaVuSans-31"/>
      </g>
     </g>
    </g>
    <g id="ytick_3">
     <g id="line2d_9">
      <g>
       <use style="stroke:#000000;stroke-width:0.8;" x="57.6" xlink:href="#m6f6adfb56f" y="203.12027"/>
      </g>
     </g>
     <g id="text_10">
      <!-- 0.2 -->
      <g transform="translate(34.696875 206.919489)scale(0.1 -0.1)">
       <use xlink:href="#DejaVuSans-30"/>
       <use x="63.623047" xlink:href="#DejaVuSans-2e"/>
       <use x="95.410156" xlink:href="#DejaVuSans-32"/>
      </g>
     </g>
    </g>
    <g id="ytick_4">
     <g id="line2d_10">
      <g>
       <use style="stroke:#000000;stroke-width:0.8;" x="57.6" xlink:href="#m6f6adfb56f" y="154.584732"/>
      </g>
     </g>
     <g id="text_11">
      <!-- 0.3 -->
      <defs>
       <path d="M 40.578125 39.3125 
Q 47.65625 37.796875 51.625 33 
Q 55.609375 28.21875 55.609375 21.1875 
Q 55.609375 10.40625 48.1875 4.484375 
Q 40.765625 -1.421875 27.09375 -1.421875 
Q 22.515625 -1.421875 17.65625 -0.515625 
Q 12.796875 0.390625 7.625 2.203125 
L 7.625 11.71875 
Q 11.71875 9.328125 16.59375 8.109375 
Q 21.484375 6.890625 26.8125 6.890625 
Q 36.078125 6.890625 40.9375 10.546875 
Q 45.796875 14.203125 45.796875 21.1875 
Q 45.796875 27.640625 41.28125 31.265625 
Q 36.765625 34.90625 28.71875 34.90625 
L 20.21875 34.90625 
L 20.21875 43.015625 
L 29.109375 43.015625 
Q 36.375 43.015625 40.234375 45.921875 
Q 44.09375 48.828125 44.09375 54.296875 
Q 44.09375 59.90625 40.109375 62.90625 
Q 36.140625 65.921875 28.71875 65.921875 
Q 24.65625 65.921875 20.015625 65.03125 
Q 15.375 64.15625 9.8125 62.3125 
L 9.8125 71.09375 
Q 15.4375 72.65625 20.34375 73.4375 
Q 25.25 74.21875 29.59375 74.21875 
Q 40.828125 74.21875 47.359375 69.109375 
Q 53.90625 64.015625 53.90625 55.328125 
Q 53.90625 49.265625 50.4375 45.09375 
Q 46.96875 40.921875 40.578125 39.3125 
z
" id="DejaVuSans-33"/>
      </defs>
      <g transform="translate(34.696875 158.383951)scale(0.1 -0.1)">
       <use xlink:href="#DejaVuSans-30"/>
       <use x="63.623047" xlink:href="#DejaVuSans-2e"/>
       <use x="95.410156" xlink:href="#DejaVuSans-33"/>
      </g>
     </g>
    </g>
    <g id="ytick_5">
     <g id="line2d_11">
      <g>
       <use style="stroke:#000000;stroke-width:0.8;" x="57.6" xlink:href="#m6f6adfb56f" y="106.049194"/>
      </g>
     </g>
     <g id="text_12">
      <!-- 0.4 -->
      <g transform="translate(34.696875 109.848413)scale(0.1 -0.1)">
       <use xlink:href="#DejaVuSans-30"/>
       <use x="63.623047" xlink:href="#DejaVuSans-2e"/>
       <use x="95.410156" xlink:href="#DejaVuSans-34"/>
      </g>
     </g>
    </g>
    <g id="ytick_6">
     <g id="line2d_12">
      <g>
       <use style="stroke:#000000;stroke-width:0.8;" x="57.6" xlink:href="#m6f6adfb56f" y="57.513656"/>
      </g>
     </g>
     <g id="text_13">
      <!-- 0.5 -->
      <defs>
       <path d="M 10.796875 72.90625 
L 49.515625 72.90625 
L 49.515625 64.59375 
L 19.828125 64.59375 
L 19.828125 46.734375 
Q 21.96875 47.46875 24.109375 47.828125 
Q 26.265625 48.1875 28.421875 48.1875 
Q 40.625 48.1875 47.75 41.5 
Q 54.890625 34.8125 54.890625 23.390625 
Q 54.890625 11.625 47.5625 5.09375 
Q 40.234375 -1.421875 26.90625 -1.421875 
Q 22.3125 -1.421875 17.546875 -0.640625 
Q 12.796875 0.140625 7.71875 1.703125 
L 7.71875 11.625 
Q 12.109375 9.234375 16.796875 8.0625 
Q 21.484375 6.890625 26.703125 6.890625 
Q 35.15625 6.890625 40.078125 11.328125 
Q 45.015625 15.765625 45.015625 23.390625 
Q 45.015625 31 40.078125 35.4375 
Q 35.15625 39.890625 26.703125 39.890625 
Q 22.75 39.890625 18.8125 39.015625 
Q 14.890625 38.140625 10.796875 36.28125 
z
" id="DejaVuSans-35"/>
      </defs>
      <g transform="translate(34.696875 61.312875)scale(0.1 -0.1)">
       <use xlink:href="#DejaVuSans-30"/>
       <use x="63.623047" xlink:href="#DejaVuSans-2e"/>
       <use x="95.410156" xlink:href="#DejaVuSans-35"/>
      </g>
     </g>
    </g>
    <g id="text_14">
     <!-- n2n1 -->
     <defs>
      <path d="M 54.890625 33.015625 
L 54.890625 0 
L 45.90625 0 
L 45.90625 32.71875 
Q 45.90625 40.484375 42.875 44.328125 
Q 39.84375 48.1875 33.796875 48.1875 
Q 26.515625 48.1875 22.3125 43.546875 
Q 18.109375 38.921875 18.109375 30.90625 
L 18.109375 0 
L 9.078125 0 
L 9.078125 54.6875 
L 18.109375 54.6875 
L 18.109375 46.1875 
Q 21.34375 51.125 25.703125 53.5625 
Q 30.078125 56 35.796875 56 
Q 45.21875 56 50.046875 50.171875 
Q 54.890625 44.34375 54.890625 33.015625 
z
" id="DejaVuSans-6e"/>
     </defs>
     <g transform="translate(28.617188 187.228)rotate(-90)scale(0.1 -0.1)">
      <use xlink:href="#DejaVuSans-6e"/>
      <use x="63.378906" xlink:href="#DejaVuSans-32"/>
      <use x="127.001953" xlink:href="#DejaVuSans-6e"/>
      <use x="190.380859" xlink:href="#DejaVuSans-31"/>
     </g>
    </g>
   </g>
   <g id="patch_3">
    <path d="M 57.6 307.584 
L 57.6 41.472 
" style="fill:none;stroke:#000000;stroke-linecap:square;stroke-linejoin:miter;stroke-width:0.8;"/>
   </g>
   <g id="patch_4">
    <path d="M 414.72 307.584 
L 414.72 41.472 
" style="fill:none;stroke:#000000;stroke-linecap:square;stroke-linejoin:miter;stroke-width:0.8;"/>
   </g>
   <g id="patch_5">
    <path d="M 57.6 307.584 
L 414.72 307.584 
" style="fill:none;stroke:#000000;stroke-linecap:square;stroke-linejoin:miter;stroke-width:0.8;"/>
   </g>
   <g id="patch_6">
    <path d="M 57.6 41.472 
L 414.72 41.472 
" style="fill:none;stroke:#000000;stroke-linecap:square;stroke-linejoin:miter;stroke-width:0.8;"/>
   </g>
   <g id="text_15">
    <!-- FS881 -->
    <defs>
     <path d="M 9.8125 72.90625 
L 51.703125 72.90625 
L 51.703125 64.59375 
L 19.671875 64.59375 
L 19.671875 43.109375 
L 48.578125 43.109375 
L 48.578125 34.8125 
L 19.671875 34.8125 
L 19.671875 0 
L 9.8125 0 
z
" id="DejaVuSans-46"/>
    </defs>
    <g transform="translate(114.73391 185.034951)scale(0.1 -0.1)">
     <use xlink:href="#DejaVuSans-46"/>
     <use x="57.503906" xlink:href="#DejaVuSans-53"/>
     <use x="120.980469" xlink:href="#DejaVuSans-38"/>
     <use x="184.603516" xlink:href="#DejaVuSans-38"/>
     <use x="248.226562" xlink:href="#DejaVuSans-31"/>
    </g>
   </g>
   <g id="text_16">
    <!-- FS848 -->
    <g transform="translate(398.381909 146.034156)scale(0.1 -0.1)">
     <use xlink:href="#DejaVuSans-46"/>
     <use x="57.503906" xlink:href="#DejaVuSans-53"/>
     <use x="120.980469" xlink:href="#DejaVuSans-38"/>
     <use x="184.603516" xlink:href="#DejaVuSans-34"/>
     <use x="248.226562" xlink:href="#DejaVuSans-38"/>
    </g>
   </g>
   <g id="text_17">
    <!-- FS877 -->
    <defs>
     <path d="M 8.203125 72.90625 
L 55.078125 72.90625 
L 55.078125 68.703125 
L 28.609375 0 
L 18.3125 0 
L 43.21875 64.59375 
L 8.203125 64.59375 
z
" id="DejaVuSans-37"/>
    </defs>
    <g transform="translate(265.662515 147.304939)scale(0.1 -0.1)">
     <use xlink:href="#DejaVuSans-46"/>
     <use x="57.503906" xlink:href="#DejaVuSans-53"/>
     <use x="120.980469" xlink:href="#DejaVuSans-38"/>
     <use x="184.603516" xlink:href="#DejaVuSans-37"/>
     <use x="248.226562" xlink:href="#DejaVuSans-37"/>
    </g>
   </g>
   <g id="text_18">
    <!-- FS854 -->
    <g transform="translate(119.997892 279.931757)scale(0.1 -0.1)">
     <use xlink:href="#DejaVuSans-46"/>
     <use x="57.503906" xlink:href="#DejaVuSans-53"/>
     <use x="120.980469" xlink:href="#DejaVuSans-38"/>
     <use x="184.603516" xlink:href="#DejaVuSans-35"/>
     <use x="248.226562" xlink:href="#DejaVuSans-34"/>
    </g>
   </g>
   <g id="text_19">
    <!-- FS879 -->
    <defs>
     <path d="M 10.984375 1.515625 
L 10.984375 10.5 
Q 14.703125 8.734375 18.5 7.8125 
Q 22.3125 6.890625 25.984375 6.890625 
Q 35.75 6.890625 40.890625 13.453125 
Q 46.046875 20.015625 46.78125 33.40625 
Q 43.953125 29.203125 39.59375 26.953125 
Q 35.25 24.703125 29.984375 24.703125 
Q 19.046875 24.703125 12.671875 31.3125 
Q 6.296875 37.9375 6.296875 49.421875 
Q 6.296875 60.640625 12.9375 67.421875 
Q 19.578125 74.21875 30.609375 74.21875 
Q 43.265625 74.21875 49.921875 64.515625 
Q 56.59375 54.828125 56.59375 36.375 
Q 56.59375 19.140625 48.40625 8.859375 
Q 40.234375 -1.421875 26.421875 -1.421875 
Q 22.703125 -1.421875 18.890625 -0.6875 
Q 15.09375 0.046875 10.984375 1.515625 
z
M 30.609375 32.421875 
Q 37.25 32.421875 41.125 36.953125 
Q 45.015625 41.5 45.015625 49.421875 
Q 45.015625 57.28125 41.125 61.84375 
Q 37.25 66.40625 30.609375 66.40625 
Q 23.96875 66.40625 20.09375 61.84375 
Q 16.21875 57.28125 16.21875 49.421875 
Q 16.21875 41.5 20.09375 36.953125 
Q 23.96875 32.421875 30.609375 32.421875 
z
" id="DejaVuSans-39"/>
    </defs>
    <g transform="translate(82.122589 57.363796)scale(0.1 -0.1)">
     <use xlink:href="#DejaVuSans-46"/>
     <use x="57.503906" xlink:href="#DejaVuSans-53"/>
     <use x="120.980469" xlink:href="#DejaVuSans-38"/>
     <use x="184.603516" xlink:href="#DejaVuSans-37"/>
     <use x="248.226562" xlink:href="#DejaVuSans-39"/>
    </g>
   </g>
   <g id="text_20">
    <!-- FS856 -->
    <g transform="translate(77.13585 246.559645)scale(0.1 -0.1)">
     <use xlink:href="#DejaVuSans-46"/>
     <use x="57.503906" xlink:href="#DejaVuSans-53"/>
     <use x="120.980469" xlink:href="#DejaVuSans-38"/>
     <use x="184.603516" xlink:href="#DejaVuSans-35"/>
     <use x="248.226562" xlink:href="#DejaVuSans-36"/>
    </g>
   </g>
   <g id="text_21">
    <!-- FS866 -->
    <g transform="translate(183.653116 91.340421)scale(0.1 -0.1)">
     <use xlink:href="#DejaVuSans-46"/>
     <use x="57.503906" xlink:href="#DejaVuSans-53"/>
     <use x="120.980469" xlink:href="#DejaVuSans-38"/>
     <use x="184.603516" xlink:href="#DejaVuSans-36"/>
     <use x="248.226562" xlink:href="#DejaVuSans-36"/>
    </g>
   </g>
   <g id="text_22">
    <!-- FS842 -->
    <g transform="translate(85.748485 236.417875)scale(0.1 -0.1)">
     <use xlink:href="#DejaVuSans-46"/>
     <use x="57.503906" xlink:href="#DejaVuSans-53"/>
     <use x="120.980469" xlink:href="#DejaVuSans-38"/>
     <use x="184.603516" xlink:href="#DejaVuSans-34"/>
     <use x="248.226562" xlink:href="#DejaVuSans-32"/>
    </g>
   </g>
   <g id="text_23">
    <!-- FS851 -->
    <g transform="translate(75.035693 224.514697)scale(0.1 -0.1)">
     <use xlink:href="#DejaVuSans-46"/>
     <use x="57.503906" xlink:href="#DejaVuSans-53"/>
     <use x="120.980469" xlink:href="#DejaVuSans-38"/>
     <use x="184.603516" xlink:href="#DejaVuSans-35"/>
     <use x="248.226562" xlink:href="#DejaVuSans-31"/>
    </g>
   </g>
   <g id="text_24">
    <!-- FS844 -->
    <g transform="translate(74.120612 136.099597)scale(0.1 -0.1)">
     <use xlink:href="#DejaVuSans-46"/>
     <use x="57.503906" xlink:href="#DejaVuSans-53"/>
     <use x="120.980469" xlink:href="#DejaVuSans-38"/>
     <use x="184.603516" xlink:href="#DejaVuSans-34"/>
     <use x="248.226562" xlink:href="#DejaVuSans-34"/>
    </g>
   </g>
   <g id="text_25">
    <!-- FS852 -->
    <g transform="translate(74.867173 223.873268)scale(0.1 -0.1)">
     <use xlink:href="#DejaVuSans-46"/>
     <use x="57.503906" xlink:href="#DejaVuSans-53"/>
     <use x="120.980469" xlink:href="#DejaVuSans-38"/>
     <use x="184.603516" xlink:href="#DejaVuSans-35"/>
     <use x="248.226562" xlink:href="#DejaVuSans-32"/>
    </g>
   </g>
   <g id="text_26">
    <!-- FS849 -->
    <g transform="translate(74.508389 199.072514)scale(0.1 -0.1)">
     <use xlink:href="#DejaVuSans-46"/>
     <use x="57.503906" xlink:href="#DejaVuSans-53"/>
     <use x="120.980469" xlink:href="#DejaVuSans-38"/>
     <use x="184.603516" xlink:href="#DejaVuSans-34"/>
     <use x="248.226562" xlink:href="#DejaVuSans-39"/>
    </g>
   </g>
   <g id="text_27">
    <!-- FS841 -->
    <g transform="translate(74.280071 195.88577)scale(0.1 -0.1)">
     <use xlink:href="#DejaVuSans-46"/>
     <use x="57.503906" xlink:href="#DejaVuSans-53"/>
     <use x="120.980469" xlink:href="#DejaVuSans-38"/>
     <use x="184.603516" xlink:href="#DejaVuSans-34"/>
     <use x="248.226562" xlink:href="#DejaVuSans-31"/>
    </g>
   </g>
   <g id="text_28">
    <!-- FS874 -->
    <g transform="translate(73.865114 294.564212)scale(0.1 -0.1)">
     <use xlink:href="#DejaVuSans-46"/>
     <use x="57.503906" xlink:href="#DejaVuSans-53"/>
     <use x="120.980469" xlink:href="#DejaVuSans-38"/>
     <use x="184.603516" xlink:href="#DejaVuSans-37"/>
     <use x="248.226562" xlink:href="#DejaVuSans-34"/>
    </g>
   </g>
   <g id="text_29">
    <!-- FS872 -->
    <g transform="translate(73.836121 147.121239)scale(0.1 -0.1)">
     <use xlink:href="#DejaVuSans-46"/>
     <use x="57.503906" xlink:href="#DejaVuSans-53"/>
     <use x="120.980469" xlink:href="#DejaVuSans-38"/>
     <use x="184.603516" xlink:href="#DejaVuSans-37"/>
     <use x="248.226562" xlink:href="#DejaVuSans-32"/>
    </g>
   </g>
  </g>
 </g>
 <defs>
  <clipPath id="p276a549346">
   <rect height="266.112" width="357.12" x="57.6" y="41.472"/>
  </clipPath>
 </defs>
</svg>
