<?xml version="1.0" encoding="utf-8" standalone="no"?>
<!DOCTYPE svg PUBLIC "-//W3C//DTD SVG 1.1//EN"
  "http://www.w3.org/Graphics/SVG/1.1/DTD/svg11.dtd">
<!-- Created with matplotlib (http://matplotlib.org/) -->
<svg height="345pt" version="1.1" viewBox="0 0 460 345" width="460pt" xmlns="http://www.w3.org/2000/svg" xmlns:xlink="http://www.w3.org/1999/xlink">
 <defs>
  <style type="text/css">
*{stroke-linecap:butt;stroke-linejoin:round;}
  </style>
 </defs>
 <g id="figure_1">
  <g id="patch_1">
   <path d="M 0 345.6 
L 460.8 345.6 
L 460.8 0 
L 0 0 
z
" style="fill:#ffffff;"/>
  </g>
  <g id="axes_1">
   <g id="patch_2">
    <path d="M 57.6 307.584 
L 414.72 307.584 
L 414.72 41.472 
L 57.6 41.472 
z
" style="fill:#ffffff;"/>
   </g>
   <g id="PathCollection_1">
    <path clip-path="url(#p05aec2bdff)" d="M 178.86018 168.674203 
C 180.645369 168.674203 182.357682 167.96494 183.620001 166.702621 
C 184.882321 165.440301 185.591584 163.727988 185.591584 161.942799 
C 185.591584 160.15761 184.882321 158.445297 183.620001 157.182978 
C 182.357682 155.920658 180.645369 155.211395 178.86018 155.211395 
C 177.074991 155.211395 175.362678 155.920658 174.100359 157.182978 
C 172.838039 158.445297 172.128776 160.15761 172.128776 161.942799 
C 172.128776 163.727988 172.838039 165.440301 174.100359 166.702621 
C 175.362678 167.96494 177.074991 168.674203 178.86018 168.674203 
z
" style="fill:#ff0029;stroke:#ff0029;"/>
    <path clip-path="url(#p05aec2bdff)" d="M 350.442497 128.214138 
C 352.922058 128.214138 355.300396 127.228998 357.053711 125.475683 
C 358.807025 123.722369 359.792165 121.34403 359.792165 118.864469 
C 359.792165 116.384908 358.807025 114.00657 357.053711 112.253255 
C 355.300396 110.499941 352.922058 109.514801 350.442497 109.514801 
C 347.962936 109.514801 345.584597 110.499941 343.831283 112.253255 
C 342.077968 114.00657 341.092828 116.384908 341.092828 118.864469 
C 341.092828 121.34403 342.077968 123.722369 343.831283 125.475683 
C 345.584597 127.228998 347.962936 128.214138 350.442497 128.214138 
z
" style="fill:#ff3300;stroke:#ff3300;"/>
    <path clip-path="url(#p05aec2bdff)" d="M 125.421079 290.157415 
C 126.334302 290.157415 127.210244 289.794588 127.85599 289.148842 
C 128.501737 288.503096 128.864564 287.627153 128.864564 286.71393 
C 128.864564 285.800707 128.501737 284.924765 127.85599 284.279019 
C 127.210244 283.633273 126.334302 283.270445 125.421079 283.270445 
C 124.507856 283.270445 123.631914 283.633273 122.986167 284.279019 
C 122.340421 284.924765 121.977594 285.800707 121.977594 286.71393 
C 121.977594 287.627153 122.340421 288.503096 122.986167 289.148842 
C 123.631914 289.794588 124.507856 290.157415 125.421079 290.157415 
z
" style="fill:#ff8e00;stroke:#ff8e00;"/>
    <path clip-path="url(#p05aec2bdff)" d="M 398.392947 168.710222 
C 401.11913 168.710222 403.734023 167.627097 405.661726 165.699395 
C 407.589429 163.771692 408.672553 161.156799 408.672553 158.430615 
C 408.672553 155.704432 407.589429 153.089539 405.661726 151.161836 
C 403.734023 149.234134 401.11913 148.151009 398.392947 148.151009 
C 395.666763 148.151009 393.05187 149.234134 391.124168 151.161836 
C 389.196465 153.089539 388.113341 155.704432 388.113341 158.430615 
C 388.113341 161.156799 389.196465 163.771692 391.124168 165.699395 
C 393.05187 167.627097 395.666763 168.710222 398.392947 168.710222 
z
" style="fill:#ffea00;stroke:#ffea00;"/>
    <path clip-path="url(#p05aec2bdff)" d="M 76.558805 265.794843 
C 77.999664 265.794843 79.381703 265.222384 80.400545 264.203543 
C 81.419386 263.184701 81.991845 261.802662 81.991845 260.361803 
C 81.991845 258.920944 81.419386 257.538904 80.400545 256.520063 
C 79.381703 255.501222 77.999664 254.928762 76.558805 254.928762 
C 75.117946 254.928762 73.735906 255.501222 72.717065 256.520063 
C 71.698224 257.538904 71.125764 258.920944 71.125764 260.361803 
C 71.125764 261.802662 71.698224 263.184701 72.717065 264.203543 
C 73.735906 265.222384 75.117946 265.794843 76.558805 265.794843 
z
" style="fill:#b8ff00;stroke:#b8ff00;"/>
    <path clip-path="url(#p05aec2bdff)" d="M 136.354118 63.260345 
C 137.481876 63.260345 138.563597 62.812282 139.361042 62.014836 
C 140.158488 61.21739 140.606551 60.13567 140.606551 59.007911 
C 140.606551 57.880153 140.158488 56.798433 139.361042 56.000987 
C 138.563597 55.203541 137.481876 54.755478 136.354118 54.755478 
C 135.226359 54.755478 134.144639 55.203541 133.347193 56.000987 
C 132.549748 56.798433 132.101685 57.880153 132.101685 59.007911 
C 132.101685 60.13567 132.549748 61.21739 133.347193 62.014836 
C 134.144639 62.812282 135.226359 63.260345 136.354118 63.260345 
z
" style="fill:#5cff00;stroke:#5cff00;"/>
    <path clip-path="url(#p05aec2bdff)" d="M 173.672519 195.083491 
C 175.225133 195.083491 176.714364 194.466631 177.812227 193.368768 
C 178.910091 192.270904 179.52695 190.781673 179.52695 189.22906 
C 179.52695 187.676447 178.910091 186.187215 177.812227 185.089352 
C 176.714364 183.991489 175.225133 183.374629 173.672519 183.374629 
C 172.119906 183.374629 170.630675 183.991489 169.532812 185.089352 
C 168.434948 186.187215 167.818088 187.676447 167.818088 189.22906 
C 167.818088 190.781673 168.434948 192.270904 169.532812 193.368768 
C 170.630675 194.466631 172.119906 195.083491 173.672519 195.083491 
z
" style="fill:#00ff00;stroke:#00ff00;"/>
    <path clip-path="url(#p05aec2bdff)" d="M 75.359269 221.729119 
C 75.691049 221.729119 76.009285 221.597301 76.243889 221.362697 
C 76.478493 221.128093 76.610311 220.809857 76.610311 220.478077 
C 76.610311 220.146297 76.478493 219.828061 76.243889 219.593457 
C 76.009285 219.358853 75.691049 219.227035 75.359269 219.227035 
C 75.027489 219.227035 74.709253 219.358853 74.474649 219.593457 
C 74.240045 219.828061 74.108227 220.146297 74.108227 220.478077 
C 74.108227 220.809857 74.240045 221.128093 74.474649 221.362697 
C 74.709253 221.597301 75.027489 221.729119 75.359269 221.729119 
z
" style="fill:#00ff5b;stroke:#00ff5b;"/>
    <path clip-path="url(#p05aec2bdff)" d="M 81.936798 282.779194 
C 82.356174 282.779194 82.75843 282.612574 83.054974 282.31603 
C 83.351518 282.019486 83.518138 281.61723 83.518138 281.197853 
C 83.518138 280.778477 83.351518 280.376221 83.054974 280.079677 
C 82.75843 279.783133 82.356174 279.616513 81.936798 279.616513 
C 81.517421 279.616513 81.115165 279.783133 80.818621 280.079677 
C 80.522077 280.376221 80.355457 280.778477 80.355457 281.197853 
C 80.355457 281.61723 80.522077 282.019486 80.818621 282.31603 
C 81.115165 282.612574 81.517421 282.779194 81.936798 282.779194 
z
" style="fill:#00ffb7;stroke:#00ffb7;"/>
    <path clip-path="url(#p05aec2bdff)" d="M 395.09533 135.818533 
C 398.584476 135.818533 401.931185 134.43228 404.398384 131.965082 
C 406.865582 129.497883 408.251835 126.151174 408.251835 122.662028 
C 408.251835 119.172882 406.865582 115.826173 404.398384 113.358974 
C 401.931185 110.891775 398.584476 109.505523 395.09533 109.505523 
C 391.606184 109.505523 388.259475 110.891775 385.792276 113.358974 
C 383.325077 115.826173 381.938825 119.172882 381.938825 122.662028 
C 381.938825 126.151174 383.325077 129.497883 385.792276 131.965082 
C 388.259475 134.43228 391.606184 135.818533 395.09533 135.818533 
z
" style="fill:#00ecff;stroke:#00ecff;"/>
    <path clip-path="url(#p05aec2bdff)" d="M 75.058278 176.786032 
C 75.427689 176.786032 75.78202 176.639264 76.043233 176.378051 
C 76.304446 176.116838 76.451214 175.762507 76.451214 175.393096 
C 76.451214 175.023685 76.304446 174.669355 76.043233 174.408142 
C 75.78202 174.146929 75.427689 174.00016 75.058278 174.00016 
C 74.688867 174.00016 74.334537 174.146929 74.073324 174.408142 
C 73.812111 174.669355 73.665342 175.023685 73.665342 175.393096 
C 73.665342 175.762507 73.812111 176.116838 74.073324 176.378051 
C 74.334537 176.639264 74.688867 176.786032 75.058278 176.786032 
z
" style="fill:#008fff;stroke:#008fff;"/>
    <path clip-path="url(#p05aec2bdff)" d="M 77.019143 269.883977 
C 77.910712 269.883977 78.765885 269.529753 79.396319 268.899319 
C 80.026753 268.268884 80.380977 267.413712 80.380977 266.522143 
C 80.380977 265.630574 80.026753 264.775402 79.396319 264.144967 
C 78.765885 263.514533 77.910712 263.160309 77.019143 263.160309 
C 76.127574 263.160309 75.272402 263.514533 74.641968 264.144967 
C 74.011533 264.775402 73.657309 265.630574 73.657309 266.522143 
C 73.657309 267.413712 74.011533 268.268884 74.641968 268.899319 
C 75.272402 269.529753 76.127574 269.883977 77.019143 269.883977 
z
" style="fill:#0033ff;stroke:#0033ff;"/>
    <path clip-path="url(#p05aec2bdff)" d="M 73.836611 295.369814 
C 73.948853 295.369814 74.056513 295.32522 74.13588 295.245853 
C 74.215248 295.166485 74.259842 295.058825 74.259842 294.946583 
C 74.259842 294.834341 74.215248 294.726681 74.13588 294.647313 
C 74.056513 294.567946 73.948853 294.523352 73.836611 294.523352 
C 73.724369 294.523352 73.616708 294.567946 73.537341 294.647313 
C 73.457974 294.726681 73.41338 294.834341 73.41338 294.946583 
C 73.41338 295.058825 73.457974 295.166485 73.537341 295.245853 
C 73.616708 295.32522 73.724369 295.369814 73.836611 295.369814 
z
" style="fill:#2a00ff;stroke:#2a00ff;"/>
    <path clip-path="url(#p05aec2bdff)" d="M 73.903006 67.290234 
C 73.95193 67.290234 73.998857 67.270796 74.033452 67.236202 
C 74.068046 67.201607 74.087484 67.15468 74.087484 67.105756 
C 74.087484 67.056832 74.068046 67.009905 74.033452 66.97531 
C 73.998857 66.940715 73.95193 66.921277 73.903006 66.921277 
C 73.854082 66.921277 73.807155 66.940715 73.77256 66.97531 
C 73.737965 67.009905 73.718527 67.056832 73.718527 67.105756 
C 73.718527 67.15468 73.737965 67.201607 73.77256 67.236202 
C 73.807155 67.270796 73.854082 67.290234 73.903006 67.290234 
z
" style="fill:#8600ff;stroke:#8600ff;"/>
   </g>
   <g id="matplotlib.axis_1">
    <g id="xtick_1">
     <g id="line2d_1">
      <defs>
       <path d="M 0 0 
L 0 3.5 
" id="m14e0d72df0" style="stroke:#000000;stroke-width:0.8;"/>
      </defs>
      <g>
       <use style="stroke:#000000;stroke-width:0.8;" x="73.761363" xlink:href="#m14e0d72df0" y="307.584"/>
      </g>
     </g>
     <g id="text_1">
      <!-- 0 -->
      <defs>
       <path d="M 31.78125 66.40625 
Q 24.171875 66.40625 20.328125 58.90625 
Q 16.5 51.421875 16.5 36.375 
Q 16.5 21.390625 20.328125 13.890625 
Q 24.171875 6.390625 31.78125 6.390625 
Q 39.453125 6.390625 43.28125 13.890625 
Q 47.125 21.390625 47.125 36.375 
Q 47.125 51.421875 43.28125 58.90625 
Q 39.453125 66.40625 31.78125 66.40625 
z
M 31.78125 74.21875 
Q 44.046875 74.21875 50.515625 64.515625 
Q 56.984375 54.828125 56.984375 36.375 
Q 56.984375 17.96875 50.515625 8.265625 
Q 44.046875 -1.421875 31.78125 -1.421875 
Q 19.53125 -1.421875 13.0625 8.265625 
Q 6.59375 17.96875 6.59375 36.375 
Q 6.59375 54.828125 13.0625 64.515625 
Q 19.53125 74.21875 31.78125 74.21875 
z
" id="DejaVuSans-30"/>
      </defs>
      <g transform="translate(70.580113 322.182437)scale(0.1 -0.1)">
       <use xlink:href="#DejaVuSans-30"/>
      </g>
     </g>
    </g>
    <g id="xtick_2">
     <g id="line2d_2">
      <g>
       <use style="stroke:#000000;stroke-width:0.8;" x="119.274454" xlink:href="#m14e0d72df0" y="307.584"/>
      </g>
     </g>
     <g id="text_2">
      <!-- 10 -->
      <defs>
       <path d="M 12.40625 8.296875 
L 28.515625 8.296875 
L 28.515625 63.921875 
L 10.984375 60.40625 
L 10.984375 69.390625 
L 28.421875 72.90625 
L 38.28125 72.90625 
L 38.28125 8.296875 
L 54.390625 8.296875 
L 54.390625 0 
L 12.40625 0 
z
" id="DejaVuSans-31"/>
      </defs>
      <g transform="translate(112.911954 322.182437)scale(0.1 -0.1)">
       <use xlink:href="#DejaVuSans-31"/>
       <use x="63.623047" xlink:href="#DejaVuSans-30"/>
      </g>
     </g>
    </g>
    <g id="xtick_3">
     <g id="line2d_3">
      <g>
       <use style="stroke:#000000;stroke-width:0.8;" x="164.787544" xlink:href="#m14e0d72df0" y="307.584"/>
      </g>
     </g>
     <g id="text_3">
      <!-- 20 -->
      <defs>
       <path d="M 19.1875 8.296875 
L 53.609375 8.296875 
L 53.609375 0 
L 7.328125 0 
L 7.328125 8.296875 
Q 12.9375 14.109375 22.625 23.890625 
Q 32.328125 33.6875 34.8125 36.53125 
Q 39.546875 41.84375 41.421875 45.53125 
Q 43.3125 49.21875 43.3125 52.78125 
Q 43.3125 58.59375 39.234375 62.25 
Q 35.15625 65.921875 28.609375 65.921875 
Q 23.96875 65.921875 18.8125 64.3125 
Q 13.671875 62.703125 7.8125 59.421875 
L 7.8125 69.390625 
Q 13.765625 71.78125 18.9375 73 
Q 24.125 74.21875 28.421875 74.21875 
Q 39.75 74.21875 46.484375 68.546875 
Q 53.21875 62.890625 53.21875 53.421875 
Q 53.21875 48.921875 51.53125 44.890625 
Q 49.859375 40.875 45.40625 35.40625 
Q 44.1875 33.984375 37.640625 27.21875 
Q 31.109375 20.453125 19.1875 8.296875 
z
" id="DejaVuSans-32"/>
      </defs>
      <g transform="translate(158.425044 322.182437)scale(0.1 -0.1)">
       <use xlink:href="#DejaVuSans-32"/>
       <use x="63.623047" xlink:href="#DejaVuSans-30"/>
      </g>
     </g>
    </g>
    <g id="xtick_4">
     <g id="line2d_4">
      <g>
       <use style="stroke:#000000;stroke-width:0.8;" x="210.300634" xlink:href="#m14e0d72df0" y="307.584"/>
      </g>
     </g>
     <g id="text_4">
      <!-- 30 -->
      <defs>
       <path d="M 40.578125 39.3125 
Q 47.65625 37.796875 51.625 33 
Q 55.609375 28.21875 55.609375 21.1875 
Q 55.609375 10.40625 48.1875 4.484375 
Q 40.765625 -1.421875 27.09375 -1.421875 
Q 22.515625 -1.421875 17.65625 -0.515625 
Q 12.796875 0.390625 7.625 2.203125 
L 7.625 11.71875 
Q 11.71875 9.328125 16.59375 8.109375 
Q 21.484375 6.890625 26.8125 6.890625 
Q 36.078125 6.890625 40.9375 10.546875 
Q 45.796875 14.203125 45.796875 21.1875 
Q 45.796875 27.640625 41.28125 31.265625 
Q 36.765625 34.90625 28.71875 34.90625 
L 20.21875 34.90625 
L 20.21875 43.015625 
L 29.109375 43.015625 
Q 36.375 43.015625 40.234375 45.921875 
Q 44.09375 48.828125 44.09375 54.296875 
Q 44.09375 59.90625 40.109375 62.90625 
Q 36.140625 65.921875 28.71875 65.921875 
Q 24.65625 65.921875 20.015625 65.03125 
Q 15.375 64.15625 9.8125 62.3125 
L 9.8125 71.09375 
Q 15.4375 72.65625 20.34375 73.4375 
Q 25.25 74.21875 29.59375 74.21875 
Q 40.828125 74.21875 47.359375 69.109375 
Q 53.90625 64.015625 53.90625 55.328125 
Q 53.90625 49.265625 50.4375 45.09375 
Q 46.96875 40.921875 40.578125 39.3125 
z
" id="DejaVuSans-33"/>
      </defs>
      <g transform="translate(203.938134 322.182437)scale(0.1 -0.1)">
       <use xlink:href="#DejaVuSans-33"/>
       <use x="63.623047" xlink:href="#DejaVuSans-30"/>
      </g>
     </g>
    </g>
    <g id="xtick_5">
     <g id="line2d_5">
      <g>
       <use style="stroke:#000000;stroke-width:0.8;" x="255.813725" xlink:href="#m14e0d72df0" y="307.584"/>
      </g>
     </g>
     <g id="text_5">
      <!-- 40 -->
      <defs>
       <path d="M 37.796875 64.3125 
L 12.890625 25.390625 
L 37.796875 25.390625 
z
M 35.203125 72.90625 
L 47.609375 72.90625 
L 47.609375 25.390625 
L 58.015625 25.390625 
L 58.015625 17.1875 
L 47.609375 17.1875 
L 47.609375 0 
L 37.796875 0 
L 37.796875 17.1875 
L 4.890625 17.1875 
L 4.890625 26.703125 
z
" id="DejaVuSans-34"/>
      </defs>
      <g transform="translate(249.451225 322.182437)scale(0.1 -0.1)">
       <use xlink:href="#DejaVuSans-34"/>
       <use x="63.623047" xlink:href="#DejaVuSans-30"/>
      </g>
     </g>
    </g>
    <g id="xtick_6">
     <g id="line2d_6">
      <g>
       <use style="stroke:#000000;stroke-width:0.8;" x="301.326815" xlink:href="#m14e0d72df0" y="307.584"/>
      </g>
     </g>
     <g id="text_6">
      <!-- 50 -->
      <defs>
       <path d="M 10.796875 72.90625 
L 49.515625 72.90625 
L 49.515625 64.59375 
L 19.828125 64.59375 
L 19.828125 46.734375 
Q 21.96875 47.46875 24.109375 47.828125 
Q 26.265625 48.1875 28.421875 48.1875 
Q 40.625 48.1875 47.75 41.5 
Q 54.890625 34.8125 54.890625 23.390625 
Q 54.890625 11.625 47.5625 5.09375 
Q 40.234375 -1.421875 26.90625 -1.421875 
Q 22.3125 -1.421875 17.546875 -0.640625 
Q 12.796875 0.140625 7.71875 1.703125 
L 7.71875 11.625 
Q 12.109375 9.234375 16.796875 8.0625 
Q 21.484375 6.890625 26.703125 6.890625 
Q 35.15625 6.890625 40.078125 11.328125 
Q 45.015625 15.765625 45.015625 23.390625 
Q 45.015625 31 40.078125 35.4375 
Q 35.15625 39.890625 26.703125 39.890625 
Q 22.75 39.890625 18.8125 39.015625 
Q 14.890625 38.140625 10.796875 36.28125 
z
" id="DejaVuSans-35"/>
      </defs>
      <g transform="translate(294.964315 322.182437)scale(0.1 -0.1)">
       <use xlink:href="#DejaVuSans-35"/>
       <use x="63.623047" xlink:href="#DejaVuSans-30"/>
      </g>
     </g>
    </g>
    <g id="xtick_7">
     <g id="line2d_7">
      <g>
       <use style="stroke:#000000;stroke-width:0.8;" x="346.839906" xlink:href="#m14e0d72df0" y="307.584"/>
      </g>
     </g>
     <g id="text_7">
      <!-- 60 -->
      <defs>
       <path d="M 33.015625 40.375 
Q 26.375 40.375 22.484375 35.828125 
Q 18.609375 31.296875 18.609375 23.390625 
Q 18.609375 15.53125 22.484375 10.953125 
Q 26.375 6.390625 33.015625 6.390625 
Q 39.65625 6.390625 43.53125 10.953125 
Q 47.40625 15.53125 47.40625 23.390625 
Q 47.40625 31.296875 43.53125 35.828125 
Q 39.65625 40.375 33.015625 40.375 
z
M 52.59375 71.296875 
L 52.59375 62.3125 
Q 48.875 64.0625 45.09375 64.984375 
Q 41.3125 65.921875 37.59375 65.921875 
Q 27.828125 65.921875 22.671875 59.328125 
Q 17.53125 52.734375 16.796875 39.40625 
Q 19.671875 43.65625 24.015625 45.921875 
Q 28.375 48.1875 33.59375 48.1875 
Q 44.578125 48.1875 50.953125 41.515625 
Q 57.328125 34.859375 57.328125 23.390625 
Q 57.328125 12.15625 50.6875 5.359375 
Q 44.046875 -1.421875 33.015625 -1.421875 
Q 20.359375 -1.421875 13.671875 8.265625 
Q 6.984375 17.96875 6.984375 36.375 
Q 6.984375 53.65625 15.1875 63.9375 
Q 23.390625 74.21875 37.203125 74.21875 
Q 40.921875 74.21875 44.703125 73.484375 
Q 48.484375 72.75 52.59375 71.296875 
z
" id="DejaVuSans-36"/>
      </defs>
      <g transform="translate(340.477406 322.182437)scale(0.1 -0.1)">
       <use xlink:href="#DejaVuSans-36"/>
       <use x="63.623047" xlink:href="#DejaVuSans-30"/>
      </g>
     </g>
    </g>
    <g id="xtick_8">
     <g id="line2d_8">
      <g>
       <use style="stroke:#000000;stroke-width:0.8;" x="392.352996" xlink:href="#m14e0d72df0" y="307.584"/>
      </g>
     </g>
     <g id="text_8">
      <!-- 70 -->
      <defs>
       <path d="M 8.203125 72.90625 
L 55.078125 72.90625 
L 55.078125 68.703125 
L 28.609375 0 
L 18.3125 0 
L 43.21875 64.59375 
L 8.203125 64.59375 
z
" id="DejaVuSans-37"/>
      </defs>
      <g transform="translate(385.990496 322.182437)scale(0.1 -0.1)">
       <use xlink:href="#DejaVuSans-37"/>
       <use x="63.623047" xlink:href="#DejaVuSans-30"/>
      </g>
     </g>
    </g>
    <g id="text_9">
     <!-- SNVs -->
     <defs>
      <path d="M 53.515625 70.515625 
L 53.515625 60.890625 
Q 47.90625 63.578125 42.921875 64.890625 
Q 37.9375 66.21875 33.296875 66.21875 
Q 25.25 66.21875 20.875 63.09375 
Q 16.5 59.96875 16.5 54.203125 
Q 16.5 49.359375 19.40625 46.890625 
Q 22.3125 44.4375 30.421875 42.921875 
L 36.375 41.703125 
Q 47.40625 39.59375 52.65625 34.296875 
Q 57.90625 29 57.90625 20.125 
Q 57.90625 9.515625 50.796875 4.046875 
Q 43.703125 -1.421875 29.984375 -1.421875 
Q 24.8125 -1.421875 18.96875 -0.25 
Q 13.140625 0.921875 6.890625 3.21875 
L 6.890625 13.375 
Q 12.890625 10.015625 18.65625 8.296875 
Q 24.421875 6.59375 29.984375 6.59375 
Q 38.421875 6.59375 43.015625 9.90625 
Q 47.609375 13.234375 47.609375 19.390625 
Q 47.609375 24.75 44.3125 27.78125 
Q 41.015625 30.8125 33.5 32.328125 
L 27.484375 33.5 
Q 16.453125 35.6875 11.515625 40.375 
Q 6.59375 45.0625 6.59375 53.421875 
Q 6.59375 63.09375 13.40625 68.65625 
Q 20.21875 74.21875 32.171875 74.21875 
Q 37.3125 74.21875 42.625 73.28125 
Q 47.953125 72.359375 53.515625 70.515625 
z
" id="DejaVuSans-53"/>
      <path d="M 9.8125 72.90625 
L 23.09375 72.90625 
L 55.421875 11.921875 
L 55.421875 72.90625 
L 64.984375 72.90625 
L 64.984375 0 
L 51.703125 0 
L 19.390625 60.984375 
L 19.390625 0 
L 9.8125 0 
z
" id="DejaVuSans-4e"/>
      <path d="M 28.609375 0 
L 0.78125 72.90625 
L 11.078125 72.90625 
L 34.1875 11.53125 
L 57.328125 72.90625 
L 67.578125 72.90625 
L 39.796875 0 
z
" id="DejaVuSans-56"/>
      <path d="M 44.28125 53.078125 
L 44.28125 44.578125 
Q 40.484375 46.53125 36.375 47.5 
Q 32.28125 48.484375 27.875 48.484375 
Q 21.1875 48.484375 17.84375 46.4375 
Q 14.5 44.390625 14.5 40.28125 
Q 14.5 37.15625 16.890625 35.375 
Q 19.28125 33.59375 26.515625 31.984375 
L 29.59375 31.296875 
Q 39.15625 29.25 43.1875 25.515625 
Q 47.21875 21.78125 47.21875 15.09375 
Q 47.21875 7.46875 41.1875 3.015625 
Q 35.15625 -1.421875 24.609375 -1.421875 
Q 20.21875 -1.421875 15.453125 -0.5625 
Q 10.6875 0.296875 5.421875 2 
L 5.421875 11.28125 
Q 10.40625 8.6875 15.234375 7.390625 
Q 20.0625 6.109375 24.8125 6.109375 
Q 31.15625 6.109375 34.5625 8.28125 
Q 37.984375 10.453125 37.984375 14.40625 
Q 37.984375 18.0625 35.515625 20.015625 
Q 33.0625 21.96875 24.703125 23.78125 
L 21.578125 24.515625 
Q 13.234375 26.265625 9.515625 29.90625 
Q 5.8125 33.546875 5.8125 39.890625 
Q 5.8125 47.609375 11.28125 51.796875 
Q 16.75 56 26.8125 56 
Q 31.78125 56 36.171875 55.265625 
Q 40.578125 54.546875 44.28125 53.078125 
z
" id="DejaVuSans-73"/>
     </defs>
     <g transform="translate(223.220156 335.860562)scale(0.1 -0.1)">
      <use xlink:href="#DejaVuSans-53"/>
      <use x="63.476562" xlink:href="#DejaVuSans-4e"/>
      <use x="138.28125" xlink:href="#DejaVuSans-56"/>
      <use x="206.689453" xlink:href="#DejaVuSans-73"/>
     </g>
    </g>
   </g>
   <g id="matplotlib.axis_2">
    <g id="ytick_1">
     <g id="line2d_9">
      <defs>
       <path d="M 0 0 
L -3.5 0 
" id="m4dde4250a9" style="stroke:#000000;stroke-width:0.8;"/>
      </defs>
      <g>
       <use style="stroke:#000000;stroke-width:0.8;" x="57.6" xlink:href="#m4dde4250a9" y="302.346939"/>
      </g>
     </g>
     <g id="text_10">
      <!-- 0.0 -->
      <defs>
       <path d="M 10.6875 12.40625 
L 21 12.40625 
L 21 0 
L 10.6875 0 
z
" id="DejaVuSans-2e"/>
      </defs>
      <g transform="translate(34.696875 306.146158)scale(0.1 -0.1)">
       <use xlink:href="#DejaVuSans-30"/>
       <use x="63.623047" xlink:href="#DejaVuSans-2e"/>
       <use x="95.410156" xlink:href="#DejaVuSans-30"/>
      </g>
     </g>
    </g>
    <g id="ytick_2">
     <g id="line2d_10">
      <g>
       <use style="stroke:#000000;stroke-width:0.8;" x="57.6" xlink:href="#m4dde4250a9" y="255.065982"/>
      </g>
     </g>
     <g id="text_11">
      <!-- 0.1 -->
      <g transform="translate(34.696875 258.865201)scale(0.1 -0.1)">
       <use xlink:href="#DejaVuSans-30"/>
       <use x="63.623047" xlink:href="#DejaVuSans-2e"/>
       <use x="95.410156" xlink:href="#DejaVuSans-31"/>
      </g>
     </g>
    </g>
    <g id="ytick_3">
     <g id="line2d_11">
      <g>
       <use style="stroke:#000000;stroke-width:0.8;" x="57.6" xlink:href="#m4dde4250a9" y="207.785024"/>
      </g>
     </g>
     <g id="text_12">
      <!-- 0.2 -->
      <g transform="translate(34.696875 211.584243)scale(0.1 -0.1)">
       <use xlink:href="#DejaVuSans-30"/>
       <use x="63.623047" xlink:href="#DejaVuSans-2e"/>
       <use x="95.410156" xlink:href="#DejaVuSans-32"/>
      </g>
     </g>
    </g>
    <g id="ytick_4">
     <g id="line2d_12">
      <g>
       <use style="stroke:#000000;stroke-width:0.8;" x="57.6" xlink:href="#m4dde4250a9" y="160.504067"/>
      </g>
     </g>
     <g id="text_13">
      <!-- 0.3 -->
      <g transform="translate(34.696875 164.303286)scale(0.1 -0.1)">
       <use xlink:href="#DejaVuSans-30"/>
       <use x="63.623047" xlink:href="#DejaVuSans-2e"/>
       <use x="95.410156" xlink:href="#DejaVuSans-33"/>
      </g>
     </g>
    </g>
    <g id="ytick_5">
     <g id="line2d_13">
      <g>
       <use style="stroke:#000000;stroke-width:0.8;" x="57.6" xlink:href="#m4dde4250a9" y="113.22311"/>
      </g>
     </g>
     <g id="text_14">
      <!-- 0.4 -->
      <g transform="translate(34.696875 117.022329)scale(0.1 -0.1)">
       <use xlink:href="#DejaVuSans-30"/>
       <use x="63.623047" xlink:href="#DejaVuSans-2e"/>
       <use x="95.410156" xlink:href="#DejaVuSans-34"/>
      </g>
     </g>
    </g>
    <g id="ytick_6">
     <g id="line2d_14">
      <g>
       <use style="stroke:#000000;stroke-width:0.8;" x="57.6" xlink:href="#m4dde4250a9" y="65.942152"/>
      </g>
     </g>
     <g id="text_15">
      <!-- 0.5 -->
      <g transform="translate(34.696875 69.741371)scale(0.1 -0.1)">
       <use xlink:href="#DejaVuSans-30"/>
       <use x="63.623047" xlink:href="#DejaVuSans-2e"/>
       <use x="95.410156" xlink:href="#DejaVuSans-35"/>
      </g>
     </g>
    </g>
    <g id="text_16">
     <!-- n2n1 -->
     <defs>
      <path d="M 54.890625 33.015625 
L 54.890625 0 
L 45.90625 0 
L 45.90625 32.71875 
Q 45.90625 40.484375 42.875 44.328125 
Q 39.84375 48.1875 33.796875 48.1875 
Q 26.515625 48.1875 22.3125 43.546875 
Q 18.109375 38.921875 18.109375 30.90625 
L 18.109375 0 
L 9.078125 0 
L 9.078125 54.6875 
L 18.109375 54.6875 
L 18.109375 46.1875 
Q 21.34375 51.125 25.703125 53.5625 
Q 30.078125 56 35.796875 56 
Q 45.21875 56 50.046875 50.171875 
Q 54.890625 44.34375 54.890625 33.015625 
z
" id="DejaVuSans-6e"/>
     </defs>
     <g transform="translate(28.617188 187.228)rotate(-90)scale(0.1 -0.1)">
      <use xlink:href="#DejaVuSans-6e"/>
      <use x="63.378906" xlink:href="#DejaVuSans-32"/>
      <use x="127.001953" xlink:href="#DejaVuSans-6e"/>
      <use x="190.380859" xlink:href="#DejaVuSans-31"/>
     </g>
    </g>
   </g>
   <g id="patch_3">
    <path d="M 57.6 307.584 
L 57.6 41.472 
" style="fill:none;stroke:#000000;stroke-linecap:square;stroke-linejoin:miter;stroke-width:0.8;"/>
   </g>
   <g id="patch_4">
    <path d="M 414.72 307.584 
L 414.72 41.472 
" style="fill:none;stroke:#000000;stroke-linecap:square;stroke-linejoin:miter;stroke-width:0.8;"/>
   </g>
   <g id="patch_5">
    <path d="M 57.6 307.584 
L 414.72 307.584 
" style="fill:none;stroke:#000000;stroke-linecap:square;stroke-linejoin:miter;stroke-width:0.8;"/>
   </g>
   <g id="patch_6">
    <path d="M 57.6 41.472 
L 414.72 41.472 
" style="fill:none;stroke:#000000;stroke-linecap:square;stroke-linejoin:miter;stroke-width:0.8;"/>
   </g>
   <g id="text_17">
    <!-- FS877 -->
    <defs>
     <path d="M 9.8125 72.90625 
L 51.703125 72.90625 
L 51.703125 64.59375 
L 19.671875 64.59375 
L 19.671875 43.109375 
L 48.578125 43.109375 
L 48.578125 34.8125 
L 19.671875 34.8125 
L 19.671875 0 
L 9.8125 0 
z
" id="DejaVuSans-46"/>
     <path d="M 31.78125 34.625 
Q 24.75 34.625 20.71875 30.859375 
Q 16.703125 27.09375 16.703125 20.515625 
Q 16.703125 13.921875 20.71875 10.15625 
Q 24.75 6.390625 31.78125 6.390625 
Q 38.8125 6.390625 42.859375 10.171875 
Q 46.921875 13.96875 46.921875 20.515625 
Q 46.921875 27.09375 42.890625 30.859375 
Q 38.875 34.625 31.78125 34.625 
z
M 21.921875 38.8125 
Q 15.578125 40.375 12.03125 44.71875 
Q 8.5 49.078125 8.5 55.328125 
Q 8.5 64.0625 14.71875 69.140625 
Q 20.953125 74.21875 31.78125 74.21875 
Q 42.671875 74.21875 48.875 69.140625 
Q 55.078125 64.0625 55.078125 55.328125 
Q 55.078125 49.078125 51.53125 44.71875 
Q 48 40.375 41.703125 38.8125 
Q 48.828125 37.15625 52.796875 32.3125 
Q 56.78125 27.484375 56.78125 20.515625 
Q 56.78125 9.90625 50.3125 4.234375 
Q 43.84375 -1.421875 31.78125 -1.421875 
Q 19.734375 -1.421875 13.25 4.234375 
Q 6.78125 9.90625 6.78125 20.515625 
Q 6.78125 27.484375 10.78125 32.3125 
Q 14.796875 37.15625 21.921875 38.8125 
z
M 18.3125 54.390625 
Q 18.3125 48.734375 21.84375 45.5625 
Q 25.390625 42.390625 31.78125 42.390625 
Q 38.140625 42.390625 41.71875 45.5625 
Q 45.3125 48.734375 45.3125 54.390625 
Q 45.3125 60.0625 41.71875 63.234375 
Q 38.140625 66.40625 31.78125 66.40625 
Q 25.390625 66.40625 21.84375 63.234375 
Q 18.3125 60.0625 18.3125 54.390625 
z
" id="DejaVuSans-38"/>
    </defs>
    <g transform="translate(178.86018 161.942799)scale(0.1 -0.1)">
     <use xlink:href="#DejaVuSans-46"/>
     <use x="57.503906" xlink:href="#DejaVuSans-53"/>
     <use x="120.980469" xlink:href="#DejaVuSans-38"/>
     <use x="184.603516" xlink:href="#DejaVuSans-37"/>
     <use x="248.226562" xlink:href="#DejaVuSans-37"/>
    </g>
   </g>
   <g id="text_18">
    <!-- FS848 -->
    <g transform="translate(350.442497 118.864469)scale(0.1 -0.1)">
     <use xlink:href="#DejaVuSans-46"/>
     <use x="57.503906" xlink:href="#DejaVuSans-53"/>
     <use x="120.980469" xlink:href="#DejaVuSans-38"/>
     <use x="184.603516" xlink:href="#DejaVuSans-34"/>
     <use x="248.226562" xlink:href="#DejaVuSans-38"/>
    </g>
   </g>
   <g id="text_19">
    <!-- FS854 -->
    <g transform="translate(125.421079 286.71393)scale(0.1 -0.1)">
     <use xlink:href="#DejaVuSans-46"/>
     <use x="57.503906" xlink:href="#DejaVuSans-53"/>
     <use x="120.980469" xlink:href="#DejaVuSans-38"/>
     <use x="184.603516" xlink:href="#DejaVuSans-35"/>
     <use x="248.226562" xlink:href="#DejaVuSans-34"/>
    </g>
   </g>
   <g id="text_20">
    <!-- FS881 -->
    <g transform="translate(398.392947 158.430615)scale(0.1 -0.1)">
     <use xlink:href="#DejaVuSans-46"/>
     <use x="57.503906" xlink:href="#DejaVuSans-53"/>
     <use x="120.980469" xlink:href="#DejaVuSans-38"/>
     <use x="184.603516" xlink:href="#DejaVuSans-38"/>
     <use x="248.226562" xlink:href="#DejaVuSans-31"/>
    </g>
   </g>
   <g id="text_21">
    <!-- FS852 -->
    <g transform="translate(76.558805 260.361803)scale(0.1 -0.1)">
     <use xlink:href="#DejaVuSans-46"/>
     <use x="57.503906" xlink:href="#DejaVuSans-53"/>
     <use x="120.980469" xlink:href="#DejaVuSans-38"/>
     <use x="184.603516" xlink:href="#DejaVuSans-35"/>
     <use x="248.226562" xlink:href="#DejaVuSans-32"/>
    </g>
   </g>
   <g id="text_22">
    <!-- FS879 -->
    <defs>
     <path d="M 10.984375 1.515625 
L 10.984375 10.5 
Q 14.703125 8.734375 18.5 7.8125 
Q 22.3125 6.890625 25.984375 6.890625 
Q 35.75 6.890625 40.890625 13.453125 
Q 46.046875 20.015625 46.78125 33.40625 
Q 43.953125 29.203125 39.59375 26.953125 
Q 35.25 24.703125 29.984375 24.703125 
Q 19.046875 24.703125 12.671875 31.3125 
Q 6.296875 37.9375 6.296875 49.421875 
Q 6.296875 60.640625 12.9375 67.421875 
Q 19.578125 74.21875 30.609375 74.21875 
Q 43.265625 74.21875 49.921875 64.515625 
Q 56.59375 54.828125 56.59375 36.375 
Q 56.59375 19.140625 48.40625 8.859375 
Q 40.234375 -1.421875 26.421875 -1.421875 
Q 22.703125 -1.421875 18.890625 -0.6875 
Q 15.09375 0.046875 10.984375 1.515625 
z
M 30.609375 32.421875 
Q 37.25 32.421875 41.125 36.953125 
Q 45.015625 41.5 45.015625 49.421875 
Q 45.015625 57.28125 41.125 61.84375 
Q 37.25 66.40625 30.609375 66.40625 
Q 23.96875 66.40625 20.09375 61.84375 
Q 16.21875 57.28125 16.21875 49.421875 
Q 16.21875 41.5 20.09375 36.953125 
Q 23.96875 32.421875 30.609375 32.421875 
z
" id="DejaVuSans-39"/>
    </defs>
    <g transform="translate(136.354118 59.007911)scale(0.1 -0.1)">
     <use xlink:href="#DejaVuSans-46"/>
     <use x="57.503906" xlink:href="#DejaVuSans-53"/>
     <use x="120.980469" xlink:href="#DejaVuSans-38"/>
     <use x="184.603516" xlink:href="#DejaVuSans-37"/>
     <use x="248.226562" xlink:href="#DejaVuSans-39"/>
    </g>
   </g>
   <g id="text_23">
    <!-- FS842 -->
    <g transform="translate(173.672519 189.22906)scale(0.1 -0.1)">
     <use xlink:href="#DejaVuSans-46"/>
     <use x="57.503906" xlink:href="#DejaVuSans-53"/>
     <use x="120.980469" xlink:href="#DejaVuSans-38"/>
     <use x="184.603516" xlink:href="#DejaVuSans-34"/>
     <use x="248.226562" xlink:href="#DejaVuSans-32"/>
    </g>
   </g>
   <g id="text_24">
    <!-- FS849 -->
    <g transform="translate(75.359269 220.478077)scale(0.1 -0.1)">
     <use xlink:href="#DejaVuSans-46"/>
     <use x="57.503906" xlink:href="#DejaVuSans-53"/>
     <use x="120.980469" xlink:href="#DejaVuSans-38"/>
     <use x="184.603516" xlink:href="#DejaVuSans-34"/>
     <use x="248.226562" xlink:href="#DejaVuSans-39"/>
    </g>
   </g>
   <g id="text_25">
    <!-- FS856 -->
    <g transform="translate(81.936798 281.197853)scale(0.1 -0.1)">
     <use xlink:href="#DejaVuSans-46"/>
     <use x="57.503906" xlink:href="#DejaVuSans-53"/>
     <use x="120.980469" xlink:href="#DejaVuSans-38"/>
     <use x="184.603516" xlink:href="#DejaVuSans-35"/>
     <use x="248.226562" xlink:href="#DejaVuSans-36"/>
    </g>
   </g>
   <g id="text_26">
    <!-- FS866 -->
    <g transform="translate(395.09533 122.662028)scale(0.1 -0.1)">
     <use xlink:href="#DejaVuSans-46"/>
     <use x="57.503906" xlink:href="#DejaVuSans-53"/>
     <use x="120.980469" xlink:href="#DejaVuSans-38"/>
     <use x="184.603516" xlink:href="#DejaVuSans-36"/>
     <use x="248.226562" xlink:href="#DejaVuSans-36"/>
    </g>
   </g>
   <g id="text_27">
    <!-- FS841 -->
    <g transform="translate(75.058278 175.393096)scale(0.1 -0.1)">
     <use xlink:href="#DejaVuSans-46"/>
     <use x="57.503906" xlink:href="#DejaVuSans-53"/>
     <use x="120.980469" xlink:href="#DejaVuSans-38"/>
     <use x="184.603516" xlink:href="#DejaVuSans-34"/>
     <use x="248.226562" xlink:href="#DejaVuSans-31"/>
    </g>
   </g>
   <g id="text_28">
    <!-- FS851 -->
    <g transform="translate(77.019143 266.522143)scale(0.1 -0.1)">
     <use xlink:href="#DejaVuSans-46"/>
     <use x="57.503906" xlink:href="#DejaVuSans-53"/>
     <use x="120.980469" xlink:href="#DejaVuSans-38"/>
     <use x="184.603516" xlink:href="#DejaVuSans-35"/>
     <use x="248.226562" xlink:href="#DejaVuSans-31"/>
    </g>
   </g>
   <g id="text_29">
    <!-- FS874 -->
    <g transform="translate(73.836611 294.946583)scale(0.1 -0.1)">
     <use xlink:href="#DejaVuSans-46"/>
     <use x="57.503906" xlink:href="#DejaVuSans-53"/>
     <use x="120.980469" xlink:href="#DejaVuSans-38"/>
     <use x="184.603516" xlink:href="#DejaVuSans-37"/>
     <use x="248.226562" xlink:href="#DejaVuSans-34"/>
    </g>
   </g>
   <g id="text_30">
    <!-- FS872 -->
    <g transform="translate(73.903006 67.105756)scale(0.1 -0.1)">
     <use xlink:href="#DejaVuSans-46"/>
     <use x="57.503906" xlink:href="#DejaVuSans-53"/>
     <use x="120.980469" xlink:href="#DejaVuSans-38"/>
     <use x="184.603516" xlink:href="#DejaVuSans-37"/>
     <use x="248.226562" xlink:href="#DejaVuSans-32"/>
    </g>
   </g>
  </g>
 </g>
 <defs>
  <clipPath id="p05aec2bdff">
   <rect height="266.112" width="357.12" x="57.6" y="41.472"/>
  </clipPath>
 </defs>
</svg>
