<?xml version="1.0" encoding="utf-8" standalone="no"?>
<!DOCTYPE svg PUBLIC "-//W3C//DTD SVG 1.1//EN"
  "http://www.w3.org/Graphics/SVG/1.1/DTD/svg11.dtd">
<!-- Created with matplotlib (http://matplotlib.org/) -->
<svg height="345pt" version="1.1" viewBox="0 0 460 345" width="460pt" xmlns="http://www.w3.org/2000/svg" xmlns:xlink="http://www.w3.org/1999/xlink">
 <defs>
  <style type="text/css">
*{stroke-linecap:butt;stroke-linejoin:round;}
  </style>
 </defs>
 <g id="figure_1">
  <g id="patch_1">
   <path d="M 0 345.6 
L 460.8 345.6 
L 460.8 0 
L 0 0 
z
" style="fill:#ffffff;"/>
  </g>
  <g id="axes_1">
   <g id="patch_2">
    <path d="M 57.6 307.584 
L 414.72 307.584 
L 414.72 41.472 
L 57.6 41.472 
z
" style="fill:#ffffff;"/>
   </g>
   <g id="PathCollection_1">
    <path clip-path="url(#p0b6db0fb70)" d="M 83.284818 294.822796 
C 83.718992 294.822796 84.135442 294.650297 84.44245 294.343289 
C 84.749457 294.036282 84.921957 293.619831 84.921957 293.185657 
C 84.921957 292.751483 84.749457 292.335033 84.44245 292.028025 
C 84.135442 291.721018 83.718992 291.548518 83.284818 291.548518 
C 82.850643 291.548518 82.434193 291.721018 82.127186 292.028025 
C 81.820178 292.335033 81.647679 292.751483 81.647679 293.185657 
C 81.647679 293.619831 81.820178 294.036282 82.127186 294.343289 
C 82.434193 294.650297 82.850643 294.822796 83.284818 294.822796 
z
" style="fill:#ff0029;stroke:#ff0029;"/>
    <path clip-path="url(#p0b6db0fb70)" d="M 82.36909 94.309464 
C 82.955752 94.309464 83.518464 94.076381 83.933296 93.661549 
C 84.348128 93.246717 84.581211 92.684005 84.581211 92.097343 
C 84.581211 91.510682 84.348128 90.94797 83.933296 90.533138 
C 83.518464 90.118305 82.955752 89.885222 82.36909 89.885222 
C 81.782429 89.885222 81.219717 90.118305 80.804885 90.533138 
C 80.390053 90.94797 80.15697 91.510682 80.15697 92.097343 
C 80.15697 92.684005 80.390053 93.246717 80.804885 93.661549 
C 81.219717 94.076381 81.782429 94.309464 82.36909 94.309464 
z
" style="fill:#ff3300;stroke:#ff3300;"/>
    <path clip-path="url(#p0b6db0fb70)" d="M 379.545641 105.415848 
C 384.29095 105.415848 388.842542 103.530517 392.197982 100.175077 
C 395.553423 96.819636 397.438754 92.268044 397.438754 87.522735 
C 397.438754 82.777426 395.553423 78.225834 392.197982 74.870394 
C 388.842542 71.514954 384.29095 69.629622 379.545641 69.629622 
C 374.800332 69.629622 370.24874 71.514954 366.8933 74.870394 
C 363.537859 78.225834 361.652528 82.777426 361.652528 87.522735 
C 361.652528 92.268044 363.537859 96.819636 366.8933 100.175077 
C 370.24874 103.530517 374.800332 105.415848 379.545641 105.415848 
z
" style="fill:#ff8e00;stroke:#ff8e00;"/>
    <path clip-path="url(#p0b6db0fb70)" d="M 238.375415 121.641153 
C 241.391004 121.641153 244.283488 120.443047 246.415831 118.310704 
C 248.548174 116.17836 249.74628 113.285877 249.74628 110.270288 
C 249.74628 107.2547 248.548174 104.362216 246.415831 102.229873 
C 244.283488 100.09753 241.391004 98.899424 238.375415 98.899424 
C 235.359827 98.899424 232.467343 100.09753 230.335 102.229873 
C 228.202657 104.362216 227.004551 107.2547 227.004551 110.270288 
C 227.004551 113.285877 228.202657 116.17836 230.335 118.310704 
C 232.467343 120.443047 235.359827 121.641153 238.375415 121.641153 
z
" style="fill:#ffea00;stroke:#ffea00;"/>
    <path clip-path="url(#p0b6db0fb70)" d="M 107.610881 224.736335 
C 108.537716 224.736335 109.426715 224.368099 110.082086 223.712728 
C 110.737457 223.057357 111.105693 222.168358 111.105693 221.241523 
C 111.105693 220.314689 110.737457 219.42569 110.082086 218.770319 
C 109.426715 218.114948 108.537716 217.746712 107.610881 217.746712 
C 106.684047 217.746712 105.795048 218.114948 105.139677 218.770319 
C 104.484306 219.42569 104.11607 220.314689 104.11607 221.241523 
C 104.11607 222.168358 104.484306 223.057357 105.139677 223.712728 
C 105.795048 224.368099 106.684047 224.736335 107.610881 224.736335 
z
" style="fill:#b8ff00;stroke:#b8ff00;"/>
    <path clip-path="url(#p0b6db0fb70)" d="M 348.82925 243.32615 
C 357.565048 243.32615 365.944226 239.855381 372.121367 233.678239 
C 378.298509 227.501098 381.769278 219.12192 381.769278 210.386122 
C 381.769278 201.650325 378.298509 193.271147 372.121367 187.094005 
C 365.944226 180.916863 357.565048 177.446094 348.82925 177.446094 
C 340.093453 177.446094 331.714275 180.916863 325.537133 187.094005 
C 319.359991 193.271147 315.889222 201.650325 315.889222 210.386122 
C 315.889222 219.12192 319.359991 227.501098 325.537133 233.678239 
C 331.714275 239.855381 340.093453 243.32615 348.82925 243.32615 
z
" style="fill:#5cff00;stroke:#5cff00;"/>
    <path clip-path="url(#p0b6db0fb70)" d="M 398.291698 118.140617 
C 405.408312 118.140617 412.234406 115.313156 417.266612 110.28095 
C 422.298818 105.248744 425.126278 98.42265 425.126278 91.306036 
C 425.126278 84.189422 422.298818 77.363328 417.266612 72.331122 
C 412.234406 67.298916 405.408312 64.471455 398.291698 64.471455 
C 391.175084 64.471455 384.34899 67.298916 379.316784 72.331122 
C 374.284578 77.363328 371.457117 84.189422 371.457117 91.306036 
C 371.457117 98.42265 374.284578 105.248744 379.316784 110.28095 
C 384.34899 115.313156 391.175084 118.140617 398.291698 118.140617 
z
" style="fill:#00ff00;stroke:#00ff00;"/>
    <path clip-path="url(#p0b6db0fb70)" d="M 75.576898 252.844139 
C 76.542119 252.844139 77.467937 252.460652 78.150452 251.778138 
C 78.832966 251.095623 79.216453 250.169805 79.216453 249.204584 
C 79.216453 248.239363 78.832966 247.313544 78.150452 246.63103 
C 77.467937 245.948515 76.542119 245.565029 75.576898 245.565029 
C 74.611676 245.565029 73.685858 245.948515 73.003344 246.63103 
C 72.320829 247.313544 71.937343 248.239363 71.937343 249.204584 
C 71.937343 250.169805 72.320829 251.095623 73.003344 251.778138 
C 73.685858 252.460652 74.611676 252.844139 75.576898 252.844139 
z
" style="fill:#00ff5b;stroke:#00ff5b;"/>
    <path clip-path="url(#p0b6db0fb70)" d="M 74.703992 272.874101 
C 74.896429 272.874101 75.08101 272.797645 75.217084 272.661571 
C 75.353157 272.525498 75.429613 272.340917 75.429613 272.14848 
C 75.429613 271.956043 75.353157 271.771462 75.217084 271.635388 
C 75.08101 271.499315 74.896429 271.422859 74.703992 271.422859 
C 74.511555 271.422859 74.326974 271.499315 74.190901 271.635388 
C 74.054827 271.771462 73.978371 271.956043 73.978371 272.14848 
C 73.978371 272.340917 74.054827 272.525498 74.190901 272.661571 
C 74.326974 272.797645 74.511555 272.874101 74.703992 272.874101 
z
" style="fill:#00ffb7;stroke:#00ffb7;"/>
    <path clip-path="url(#p0b6db0fb70)" d="M 74.684228 210.218221 
C 75.003284 210.218221 75.309315 210.091459 75.534921 209.865853 
C 75.760528 209.640246 75.88729 209.334216 75.88729 209.01516 
C 75.88729 208.696104 75.760528 208.390074 75.534921 208.164467 
C 75.309315 207.938861 75.003284 207.812099 74.684228 207.812099 
C 74.365173 207.812099 74.059142 207.938861 73.833535 208.164467 
C 73.607929 208.390074 73.481167 208.696104 73.481167 209.01516 
C 73.481167 209.334216 73.607929 209.640246 73.833535 209.865853 
C 74.059142 210.091459 74.365173 210.218221 74.684228 210.218221 
z
" style="fill:#00ecff;stroke:#00ecff;"/>
    <path clip-path="url(#p0b6db0fb70)" d="M 73.850851 295.191613 
C 73.954162 295.191613 74.053256 295.150567 74.126309 295.077514 
C 74.199361 295.004462 74.240407 294.905368 74.240407 294.802056 
C 74.240407 294.698745 74.199361 294.599651 74.126309 294.526598 
C 74.053256 294.453546 73.954162 294.4125 73.850851 294.4125 
C 73.747539 294.4125 73.648445 294.453546 73.575393 294.526598 
C 73.50234 294.599651 73.461294 294.698745 73.461294 294.802056 
C 73.461294 294.905368 73.50234 295.004462 73.575393 295.077514 
C 73.648445 295.150567 73.747539 295.191613 73.850851 295.191613 
z
" style="fill:#008fff;stroke:#008fff;"/>
    <path clip-path="url(#p0b6db0fb70)" d="M 75.655953 258.337807 
C 76.295311 258.337807 76.908568 258.083787 77.360663 257.631693 
C 77.812757 257.179599 78.066776 256.566342 78.066776 255.926984 
C 78.066776 255.287626 77.812757 254.674369 77.360663 254.222274 
C 76.908568 253.77018 76.295311 253.516161 75.655953 253.516161 
C 75.016595 253.516161 74.403338 253.77018 73.951244 254.222274 
C 73.49915 254.674369 73.24513 255.287626 73.24513 255.926984 
C 73.24513 256.566342 73.49915 257.179599 73.951244 257.631693 
C 74.403338 258.083787 75.016595 258.337807 75.655953 258.337807 
z
" style="fill:#0033ff;stroke:#0033ff;"/>
    <path clip-path="url(#p0b6db0fb70)" d="M 75.069624 226.472617 
C 75.272432 226.472617 75.466961 226.39204 75.610369 226.248633 
C 75.753776 226.105226 75.834352 225.910697 75.834352 225.707889 
C 75.834352 225.505081 75.753776 225.310552 75.610369 225.167145 
C 75.466961 225.023738 75.272432 224.943161 75.069624 224.943161 
C 74.866816 224.943161 74.672287 225.023738 74.52888 225.167145 
C 74.385473 225.310552 74.304896 225.505081 74.304896 225.707889 
C 74.304896 225.910697 74.385473 226.105226 74.52888 226.248633 
C 74.672287 226.39204 74.866816 226.472617 75.069624 226.472617 
z
" style="fill:#2a00ff;stroke:#2a00ff;"/>
    <path clip-path="url(#p0b6db0fb70)" d="M 73.850851 253.482908 
C 73.915983 253.482908 73.978456 253.45703 74.024511 253.410975 
C 74.070566 253.36492 74.096444 253.302447 74.096444 253.237315 
C 74.096444 253.172183 74.070566 253.109709 74.024511 253.063654 
C 73.978456 253.017599 73.915983 252.991721 73.850851 252.991721 
C 73.785719 252.991721 73.723245 253.017599 73.67719 253.063654 
C 73.631135 253.109709 73.605258 253.172183 73.605258 253.237315 
C 73.605258 253.302447 73.631135 253.36492 73.67719 253.410975 
C 73.723245 253.45703 73.785719 253.482908 73.850851 253.482908 
z
" style="fill:#8600ff;stroke:#8600ff;"/>
    <path clip-path="url(#p0b6db0fb70)" d="M 73.834381 112.494803 
C 73.894545 112.494803 73.952254 112.4709 73.994797 112.428357 
C 74.03734 112.385814 74.061243 112.328105 74.061243 112.267941 
C 74.061243 112.207776 74.03734 112.150067 73.994797 112.107524 
C 73.952254 112.064982 73.894545 112.041078 73.834381 112.041078 
C 73.774216 112.041078 73.716507 112.064982 73.673965 112.107524 
C 73.631422 112.150067 73.607518 112.207776 73.607518 112.267941 
C 73.607518 112.328105 73.631422 112.385814 73.673965 112.428357 
C 73.716507 112.4709 73.774216 112.494803 73.834381 112.494803 
z
" style="fill:#e200ff;stroke:#e200ff;"/>
   </g>
   <g id="matplotlib.axis_1">
    <g id="xtick_1">
     <g id="line2d_1">
      <defs>
       <path d="M 0 0 
L 0 3.5 
" id="mf00ef16843" style="stroke:#000000;stroke-width:0.8;"/>
      </defs>
      <g>
       <use style="stroke:#000000;stroke-width:0.8;" x="73.758619" xlink:href="#mf00ef16843" y="307.584"/>
      </g>
     </g>
     <g id="text_1">
      <!-- 0 -->
      <defs>
       <path d="M 31.78125 66.40625 
Q 24.171875 66.40625 20.328125 58.90625 
Q 16.5 51.421875 16.5 36.375 
Q 16.5 21.390625 20.328125 13.890625 
Q 24.171875 6.390625 31.78125 6.390625 
Q 39.453125 6.390625 43.28125 13.890625 
Q 47.125 21.390625 47.125 36.375 
Q 47.125 51.421875 43.28125 58.90625 
Q 39.453125 66.40625 31.78125 66.40625 
z
M 31.78125 74.21875 
Q 44.046875 74.21875 50.515625 64.515625 
Q 56.984375 54.828125 56.984375 36.375 
Q 56.984375 17.96875 50.515625 8.265625 
Q 44.046875 -1.421875 31.78125 -1.421875 
Q 19.53125 -1.421875 13.0625 8.265625 
Q 6.59375 17.96875 6.59375 36.375 
Q 6.59375 54.828125 13.0625 64.515625 
Q 19.53125 74.21875 31.78125 74.21875 
z
" id="DejaVuSans-30"/>
      </defs>
      <g transform="translate(70.577369 322.182437)scale(0.1 -0.1)">
       <use xlink:href="#DejaVuSans-30"/>
      </g>
     </g>
    </g>
    <g id="xtick_2">
     <g id="line2d_2">
      <g>
       <use style="stroke:#000000;stroke-width:0.8;" x="146.057262" xlink:href="#mf00ef16843" y="307.584"/>
      </g>
     </g>
     <g id="text_2">
      <!-- 20 -->
      <defs>
       <path d="M 19.1875 8.296875 
L 53.609375 8.296875 
L 53.609375 0 
L 7.328125 0 
L 7.328125 8.296875 
Q 12.9375 14.109375 22.625 23.890625 
Q 32.328125 33.6875 34.8125 36.53125 
Q 39.546875 41.84375 41.421875 45.53125 
Q 43.3125 49.21875 43.3125 52.78125 
Q 43.3125 58.59375 39.234375 62.25 
Q 35.15625 65.921875 28.609375 65.921875 
Q 23.96875 65.921875 18.8125 64.3125 
Q 13.671875 62.703125 7.8125 59.421875 
L 7.8125 69.390625 
Q 13.765625 71.78125 18.9375 73 
Q 24.125 74.21875 28.421875 74.21875 
Q 39.75 74.21875 46.484375 68.546875 
Q 53.21875 62.890625 53.21875 53.421875 
Q 53.21875 48.921875 51.53125 44.890625 
Q 49.859375 40.875 45.40625 35.40625 
Q 44.1875 33.984375 37.640625 27.21875 
Q 31.109375 20.453125 19.1875 8.296875 
z
" id="DejaVuSans-32"/>
      </defs>
      <g transform="translate(139.694762 322.182437)scale(0.1 -0.1)">
       <use xlink:href="#DejaVuSans-32"/>
       <use x="63.623047" xlink:href="#DejaVuSans-30"/>
      </g>
     </g>
    </g>
    <g id="xtick_3">
     <g id="line2d_3">
      <g>
       <use style="stroke:#000000;stroke-width:0.8;" x="218.355905" xlink:href="#mf00ef16843" y="307.584"/>
      </g>
     </g>
     <g id="text_3">
      <!-- 40 -->
      <defs>
       <path d="M 37.796875 64.3125 
L 12.890625 25.390625 
L 37.796875 25.390625 
z
M 35.203125 72.90625 
L 47.609375 72.90625 
L 47.609375 25.390625 
L 58.015625 25.390625 
L 58.015625 17.1875 
L 47.609375 17.1875 
L 47.609375 0 
L 37.796875 0 
L 37.796875 17.1875 
L 4.890625 17.1875 
L 4.890625 26.703125 
z
" id="DejaVuSans-34"/>
      </defs>
      <g transform="translate(211.993405 322.182437)scale(0.1 -0.1)">
       <use xlink:href="#DejaVuSans-34"/>
       <use x="63.623047" xlink:href="#DejaVuSans-30"/>
      </g>
     </g>
    </g>
    <g id="xtick_4">
     <g id="line2d_4">
      <g>
       <use style="stroke:#000000;stroke-width:0.8;" x="290.654547" xlink:href="#mf00ef16843" y="307.584"/>
      </g>
     </g>
     <g id="text_4">
      <!-- 60 -->
      <defs>
       <path d="M 33.015625 40.375 
Q 26.375 40.375 22.484375 35.828125 
Q 18.609375 31.296875 18.609375 23.390625 
Q 18.609375 15.53125 22.484375 10.953125 
Q 26.375 6.390625 33.015625 6.390625 
Q 39.65625 6.390625 43.53125 10.953125 
Q 47.40625 15.53125 47.40625 23.390625 
Q 47.40625 31.296875 43.53125 35.828125 
Q 39.65625 40.375 33.015625 40.375 
z
M 52.59375 71.296875 
L 52.59375 62.3125 
Q 48.875 64.0625 45.09375 64.984375 
Q 41.3125 65.921875 37.59375 65.921875 
Q 27.828125 65.921875 22.671875 59.328125 
Q 17.53125 52.734375 16.796875 39.40625 
Q 19.671875 43.65625 24.015625 45.921875 
Q 28.375 48.1875 33.59375 48.1875 
Q 44.578125 48.1875 50.953125 41.515625 
Q 57.328125 34.859375 57.328125 23.390625 
Q 57.328125 12.15625 50.6875 5.359375 
Q 44.046875 -1.421875 33.015625 -1.421875 
Q 20.359375 -1.421875 13.671875 8.265625 
Q 6.984375 17.96875 6.984375 36.375 
Q 6.984375 53.65625 15.1875 63.9375 
Q 23.390625 74.21875 37.203125 74.21875 
Q 40.921875 74.21875 44.703125 73.484375 
Q 48.484375 72.75 52.59375 71.296875 
z
" id="DejaVuSans-36"/>
      </defs>
      <g transform="translate(284.292047 322.182437)scale(0.1 -0.1)">
       <use xlink:href="#DejaVuSans-36"/>
       <use x="63.623047" xlink:href="#DejaVuSans-30"/>
      </g>
     </g>
    </g>
    <g id="xtick_5">
     <g id="line2d_5">
      <g>
       <use style="stroke:#000000;stroke-width:0.8;" x="362.95319" xlink:href="#mf00ef16843" y="307.584"/>
      </g>
     </g>
     <g id="text_5">
      <!-- 80 -->
      <defs>
       <path d="M 31.78125 34.625 
Q 24.75 34.625 20.71875 30.859375 
Q 16.703125 27.09375 16.703125 20.515625 
Q 16.703125 13.921875 20.71875 10.15625 
Q 24.75 6.390625 31.78125 6.390625 
Q 38.8125 6.390625 42.859375 10.171875 
Q 46.921875 13.96875 46.921875 20.515625 
Q 46.921875 27.09375 42.890625 30.859375 
Q 38.875 34.625 31.78125 34.625 
z
M 21.921875 38.8125 
Q 15.578125 40.375 12.03125 44.71875 
Q 8.5 49.078125 8.5 55.328125 
Q 8.5 64.0625 14.71875 69.140625 
Q 20.953125 74.21875 31.78125 74.21875 
Q 42.671875 74.21875 48.875 69.140625 
Q 55.078125 64.0625 55.078125 55.328125 
Q 55.078125 49.078125 51.53125 44.71875 
Q 48 40.375 41.703125 38.8125 
Q 48.828125 37.15625 52.796875 32.3125 
Q 56.78125 27.484375 56.78125 20.515625 
Q 56.78125 9.90625 50.3125 4.234375 
Q 43.84375 -1.421875 31.78125 -1.421875 
Q 19.734375 -1.421875 13.25 4.234375 
Q 6.78125 9.90625 6.78125 20.515625 
Q 6.78125 27.484375 10.78125 32.3125 
Q 14.796875 37.15625 21.921875 38.8125 
z
M 18.3125 54.390625 
Q 18.3125 48.734375 21.84375 45.5625 
Q 25.390625 42.390625 31.78125 42.390625 
Q 38.140625 42.390625 41.71875 45.5625 
Q 45.3125 48.734375 45.3125 54.390625 
Q 45.3125 60.0625 41.71875 63.234375 
Q 38.140625 66.40625 31.78125 66.40625 
Q 25.390625 66.40625 21.84375 63.234375 
Q 18.3125 60.0625 18.3125 54.390625 
z
" id="DejaVuSans-38"/>
      </defs>
      <g transform="translate(356.59069 322.182437)scale(0.1 -0.1)">
       <use xlink:href="#DejaVuSans-38"/>
       <use x="63.623047" xlink:href="#DejaVuSans-30"/>
      </g>
     </g>
    </g>
    <g id="text_6">
     <!-- SNVs -->
     <defs>
      <path d="M 53.515625 70.515625 
L 53.515625 60.890625 
Q 47.90625 63.578125 42.921875 64.890625 
Q 37.9375 66.21875 33.296875 66.21875 
Q 25.25 66.21875 20.875 63.09375 
Q 16.5 59.96875 16.5 54.203125 
Q 16.5 49.359375 19.40625 46.890625 
Q 22.3125 44.4375 30.421875 42.921875 
L 36.375 41.703125 
Q 47.40625 39.59375 52.65625 34.296875 
Q 57.90625 29 57.90625 20.125 
Q 57.90625 9.515625 50.796875 4.046875 
Q 43.703125 -1.421875 29.984375 -1.421875 
Q 24.8125 -1.421875 18.96875 -0.25 
Q 13.140625 0.921875 6.890625 3.21875 
L 6.890625 13.375 
Q 12.890625 10.015625 18.65625 8.296875 
Q 24.421875 6.59375 29.984375 6.59375 
Q 38.421875 6.59375 43.015625 9.90625 
Q 47.609375 13.234375 47.609375 19.390625 
Q 47.609375 24.75 44.3125 27.78125 
Q 41.015625 30.8125 33.5 32.328125 
L 27.484375 33.5 
Q 16.453125 35.6875 11.515625 40.375 
Q 6.59375 45.0625 6.59375 53.421875 
Q 6.59375 63.09375 13.40625 68.65625 
Q 20.21875 74.21875 32.171875 74.21875 
Q 37.3125 74.21875 42.625 73.28125 
Q 47.953125 72.359375 53.515625 70.515625 
z
" id="DejaVuSans-53"/>
      <path d="M 9.8125 72.90625 
L 23.09375 72.90625 
L 55.421875 11.921875 
L 55.421875 72.90625 
L 64.984375 72.90625 
L 64.984375 0 
L 51.703125 0 
L 19.390625 60.984375 
L 19.390625 0 
L 9.8125 0 
z
" id="DejaVuSans-4e"/>
      <path d="M 28.609375 0 
L 0.78125 72.90625 
L 11.078125 72.90625 
L 34.1875 11.53125 
L 57.328125 72.90625 
L 67.578125 72.90625 
L 39.796875 0 
z
" id="DejaVuSans-56"/>
      <path d="M 44.28125 53.078125 
L 44.28125 44.578125 
Q 40.484375 46.53125 36.375 47.5 
Q 32.28125 48.484375 27.875 48.484375 
Q 21.1875 48.484375 17.84375 46.4375 
Q 14.5 44.390625 14.5 40.28125 
Q 14.5 37.15625 16.890625 35.375 
Q 19.28125 33.59375 26.515625 31.984375 
L 29.59375 31.296875 
Q 39.15625 29.25 43.1875 25.515625 
Q 47.21875 21.78125 47.21875 15.09375 
Q 47.21875 7.46875 41.1875 3.015625 
Q 35.15625 -1.421875 24.609375 -1.421875 
Q 20.21875 -1.421875 15.453125 -0.5625 
Q 10.6875 0.296875 5.421875 2 
L 5.421875 11.28125 
Q 10.40625 8.6875 15.234375 7.390625 
Q 20.0625 6.109375 24.8125 6.109375 
Q 31.15625 6.109375 34.5625 8.28125 
Q 37.984375 10.453125 37.984375 14.40625 
Q 37.984375 18.0625 35.515625 20.015625 
Q 33.0625 21.96875 24.703125 23.78125 
L 21.578125 24.515625 
Q 13.234375 26.265625 9.515625 29.90625 
Q 5.8125 33.546875 5.8125 39.890625 
Q 5.8125 47.609375 11.28125 51.796875 
Q 16.75 56 26.8125 56 
Q 31.78125 56 36.171875 55.265625 
Q 40.578125 54.546875 44.28125 53.078125 
z
" id="DejaVuSans-73"/>
     </defs>
     <g transform="translate(223.220156 335.860562)scale(0.1 -0.1)">
      <use xlink:href="#DejaVuSans-53"/>
      <use x="63.476562" xlink:href="#DejaVuSans-4e"/>
      <use x="138.28125" xlink:href="#DejaVuSans-56"/>
      <use x="206.689453" xlink:href="#DejaVuSans-73"/>
     </g>
    </g>
   </g>
   <g id="matplotlib.axis_2">
    <g id="ytick_1">
     <g id="line2d_6">
      <defs>
       <path d="M 0 0 
L -3.5 0 
" id="m6a6f0cc3a3" style="stroke:#000000;stroke-width:0.8;"/>
      </defs>
      <g>
       <use style="stroke:#000000;stroke-width:0.8;" x="57.6" xlink:href="#m6a6f0cc3a3" y="257.217339"/>
      </g>
     </g>
     <g id="text_7">
      <!-- 0.1 -->
      <defs>
       <path d="M 10.6875 12.40625 
L 21 12.40625 
L 21 0 
L 10.6875 0 
z
" id="DejaVuSans-2e"/>
       <path d="M 12.40625 8.296875 
L 28.515625 8.296875 
L 28.515625 63.921875 
L 10.984375 60.40625 
L 10.984375 69.390625 
L 28.421875 72.90625 
L 38.28125 72.90625 
L 38.28125 8.296875 
L 54.390625 8.296875 
L 54.390625 0 
L 12.40625 0 
z
" id="DejaVuSans-31"/>
      </defs>
      <g transform="translate(34.696875 261.016558)scale(0.1 -0.1)">
       <use xlink:href="#DejaVuSans-30"/>
       <use x="63.623047" xlink:href="#DejaVuSans-2e"/>
       <use x="95.410156" xlink:href="#DejaVuSans-31"/>
      </g>
     </g>
    </g>
    <g id="ytick_2">
     <g id="line2d_7">
      <g>
       <use style="stroke:#000000;stroke-width:0.8;" x="57.6" xlink:href="#m6a6f0cc3a3" y="205.239713"/>
      </g>
     </g>
     <g id="text_8">
      <!-- 0.2 -->
      <g transform="translate(34.696875 209.038931)scale(0.1 -0.1)">
       <use xlink:href="#DejaVuSans-30"/>
       <use x="63.623047" xlink:href="#DejaVuSans-2e"/>
       <use x="95.410156" xlink:href="#DejaVuSans-32"/>
      </g>
     </g>
    </g>
    <g id="ytick_3">
     <g id="line2d_8">
      <g>
       <use style="stroke:#000000;stroke-width:0.8;" x="57.6" xlink:href="#m6a6f0cc3a3" y="153.262086"/>
      </g>
     </g>
     <g id="text_9">
      <!-- 0.3 -->
      <defs>
       <path d="M 40.578125 39.3125 
Q 47.65625 37.796875 51.625 33 
Q 55.609375 28.21875 55.609375 21.1875 
Q 55.609375 10.40625 48.1875 4.484375 
Q 40.765625 -1.421875 27.09375 -1.421875 
Q 22.515625 -1.421875 17.65625 -0.515625 
Q 12.796875 0.390625 7.625 2.203125 
L 7.625 11.71875 
Q 11.71875 9.328125 16.59375 8.109375 
Q 21.484375 6.890625 26.8125 6.890625 
Q 36.078125 6.890625 40.9375 10.546875 
Q 45.796875 14.203125 45.796875 21.1875 
Q 45.796875 27.640625 41.28125 31.265625 
Q 36.765625 34.90625 28.71875 34.90625 
L 20.21875 34.90625 
L 20.21875 43.015625 
L 29.109375 43.015625 
Q 36.375 43.015625 40.234375 45.921875 
Q 44.09375 48.828125 44.09375 54.296875 
Q 44.09375 59.90625 40.109375 62.90625 
Q 36.140625 65.921875 28.71875 65.921875 
Q 24.65625 65.921875 20.015625 65.03125 
Q 15.375 64.15625 9.8125 62.3125 
L 9.8125 71.09375 
Q 15.4375 72.65625 20.34375 73.4375 
Q 25.25 74.21875 29.59375 74.21875 
Q 40.828125 74.21875 47.359375 69.109375 
Q 53.90625 64.015625 53.90625 55.328125 
Q 53.90625 49.265625 50.4375 45.09375 
Q 46.96875 40.921875 40.578125 39.3125 
z
" id="DejaVuSans-33"/>
      </defs>
      <g transform="translate(34.696875 157.061305)scale(0.1 -0.1)">
       <use xlink:href="#DejaVuSans-30"/>
       <use x="63.623047" xlink:href="#DejaVuSans-2e"/>
       <use x="95.410156" xlink:href="#DejaVuSans-33"/>
      </g>
     </g>
    </g>
    <g id="ytick_4">
     <g id="line2d_9">
      <g>
       <use style="stroke:#000000;stroke-width:0.8;" x="57.6" xlink:href="#m6a6f0cc3a3" y="101.284459"/>
      </g>
     </g>
     <g id="text_10">
      <!-- 0.4 -->
      <g transform="translate(34.696875 105.083678)scale(0.1 -0.1)">
       <use xlink:href="#DejaVuSans-30"/>
       <use x="63.623047" xlink:href="#DejaVuSans-2e"/>
       <use x="95.410156" xlink:href="#DejaVuSans-34"/>
      </g>
     </g>
    </g>
    <g id="ytick_5">
     <g id="line2d_10">
      <g>
       <use style="stroke:#000000;stroke-width:0.8;" x="57.6" xlink:href="#m6a6f0cc3a3" y="49.306832"/>
      </g>
     </g>
     <g id="text_11">
      <!-- 0.5 -->
      <defs>
       <path d="M 10.796875 72.90625 
L 49.515625 72.90625 
L 49.515625 64.59375 
L 19.828125 64.59375 
L 19.828125 46.734375 
Q 21.96875 47.46875 24.109375 47.828125 
Q 26.265625 48.1875 28.421875 48.1875 
Q 40.625 48.1875 47.75 41.5 
Q 54.890625 34.8125 54.890625 23.390625 
Q 54.890625 11.625 47.5625 5.09375 
Q 40.234375 -1.421875 26.90625 -1.421875 
Q 22.3125 -1.421875 17.546875 -0.640625 
Q 12.796875 0.140625 7.71875 1.703125 
L 7.71875 11.625 
Q 12.109375 9.234375 16.796875 8.0625 
Q 21.484375 6.890625 26.703125 6.890625 
Q 35.15625 6.890625 40.078125 11.328125 
Q 45.015625 15.765625 45.015625 23.390625 
Q 45.015625 31 40.078125 35.4375 
Q 35.15625 39.890625 26.703125 39.890625 
Q 22.75 39.890625 18.8125 39.015625 
Q 14.890625 38.140625 10.796875 36.28125 
z
" id="DejaVuSans-35"/>
      </defs>
      <g transform="translate(34.696875 53.106051)scale(0.1 -0.1)">
       <use xlink:href="#DejaVuSans-30"/>
       <use x="63.623047" xlink:href="#DejaVuSans-2e"/>
       <use x="95.410156" xlink:href="#DejaVuSans-35"/>
      </g>
     </g>
    </g>
    <g id="text_12">
     <!-- n2n1 -->
     <defs>
      <path d="M 54.890625 33.015625 
L 54.890625 0 
L 45.90625 0 
L 45.90625 32.71875 
Q 45.90625 40.484375 42.875 44.328125 
Q 39.84375 48.1875 33.796875 48.1875 
Q 26.515625 48.1875 22.3125 43.546875 
Q 18.109375 38.921875 18.109375 30.90625 
L 18.109375 0 
L 9.078125 0 
L 9.078125 54.6875 
L 18.109375 54.6875 
L 18.109375 46.1875 
Q 21.34375 51.125 25.703125 53.5625 
Q 30.078125 56 35.796875 56 
Q 45.21875 56 50.046875 50.171875 
Q 54.890625 44.34375 54.890625 33.015625 
z
" id="DejaVuSans-6e"/>
     </defs>
     <g transform="translate(28.617188 187.228)rotate(-90)scale(0.1 -0.1)">
      <use xlink:href="#DejaVuSans-6e"/>
      <use x="63.378906" xlink:href="#DejaVuSans-32"/>
      <use x="127.001953" xlink:href="#DejaVuSans-6e"/>
      <use x="190.380859" xlink:href="#DejaVuSans-31"/>
     </g>
    </g>
   </g>
   <g id="patch_3">
    <path d="M 57.6 307.584 
L 57.6 41.472 
" style="fill:none;stroke:#000000;stroke-linecap:square;stroke-linejoin:miter;stroke-width:0.8;"/>
   </g>
   <g id="patch_4">
    <path d="M 414.72 307.584 
L 414.72 41.472 
" style="fill:none;stroke:#000000;stroke-linecap:square;stroke-linejoin:miter;stroke-width:0.8;"/>
   </g>
   <g id="patch_5">
    <path d="M 57.6 307.584 
L 414.72 307.584 
" style="fill:none;stroke:#000000;stroke-linecap:square;stroke-linejoin:miter;stroke-width:0.8;"/>
   </g>
   <g id="patch_6">
    <path d="M 57.6 41.472 
L 414.72 41.472 
" style="fill:none;stroke:#000000;stroke-linecap:square;stroke-linejoin:miter;stroke-width:0.8;"/>
   </g>
   <g id="text_13">
    <!-- FS854 -->
    <defs>
     <path d="M 9.8125 72.90625 
L 51.703125 72.90625 
L 51.703125 64.59375 
L 19.671875 64.59375 
L 19.671875 43.109375 
L 48.578125 43.109375 
L 48.578125 34.8125 
L 19.671875 34.8125 
L 19.671875 0 
L 9.8125 0 
z
" id="DejaVuSans-46"/>
    </defs>
    <g transform="translate(83.284818 293.185657)scale(0.1 -0.1)">
     <use xlink:href="#DejaVuSans-46"/>
     <use x="57.503906" xlink:href="#DejaVuSans-53"/>
     <use x="120.980469" xlink:href="#DejaVuSans-38"/>
     <use x="184.603516" xlink:href="#DejaVuSans-35"/>
     <use x="248.226562" xlink:href="#DejaVuSans-34"/>
    </g>
   </g>
   <g id="text_14">
    <!-- FS879 -->
    <defs>
     <path d="M 8.203125 72.90625 
L 55.078125 72.90625 
L 55.078125 68.703125 
L 28.609375 0 
L 18.3125 0 
L 43.21875 64.59375 
L 8.203125 64.59375 
z
" id="DejaVuSans-37"/>
     <path d="M 10.984375 1.515625 
L 10.984375 10.5 
Q 14.703125 8.734375 18.5 7.8125 
Q 22.3125 6.890625 25.984375 6.890625 
Q 35.75 6.890625 40.890625 13.453125 
Q 46.046875 20.015625 46.78125 33.40625 
Q 43.953125 29.203125 39.59375 26.953125 
Q 35.25 24.703125 29.984375 24.703125 
Q 19.046875 24.703125 12.671875 31.3125 
Q 6.296875 37.9375 6.296875 49.421875 
Q 6.296875 60.640625 12.9375 67.421875 
Q 19.578125 74.21875 30.609375 74.21875 
Q 43.265625 74.21875 49.921875 64.515625 
Q 56.59375 54.828125 56.59375 36.375 
Q 56.59375 19.140625 48.40625 8.859375 
Q 40.234375 -1.421875 26.421875 -1.421875 
Q 22.703125 -1.421875 18.890625 -0.6875 
Q 15.09375 0.046875 10.984375 1.515625 
z
M 30.609375 32.421875 
Q 37.25 32.421875 41.125 36.953125 
Q 45.015625 41.5 45.015625 49.421875 
Q 45.015625 57.28125 41.125 61.84375 
Q 37.25 66.40625 30.609375 66.40625 
Q 23.96875 66.40625 20.09375 61.84375 
Q 16.21875 57.28125 16.21875 49.421875 
Q 16.21875 41.5 20.09375 36.953125 
Q 23.96875 32.421875 30.609375 32.421875 
z
" id="DejaVuSans-39"/>
    </defs>
    <g transform="translate(82.36909 92.097343)scale(0.1 -0.1)">
     <use xlink:href="#DejaVuSans-46"/>
     <use x="57.503906" xlink:href="#DejaVuSans-53"/>
     <use x="120.980469" xlink:href="#DejaVuSans-38"/>
     <use x="184.603516" xlink:href="#DejaVuSans-37"/>
     <use x="248.226562" xlink:href="#DejaVuSans-39"/>
    </g>
   </g>
   <g id="text_15">
    <!-- FS848 -->
    <g transform="translate(379.545641 87.522735)scale(0.1 -0.1)">
     <use xlink:href="#DejaVuSans-46"/>
     <use x="57.503906" xlink:href="#DejaVuSans-53"/>
     <use x="120.980469" xlink:href="#DejaVuSans-38"/>
     <use x="184.603516" xlink:href="#DejaVuSans-34"/>
     <use x="248.226562" xlink:href="#DejaVuSans-38"/>
    </g>
   </g>
   <g id="text_16">
    <!-- FS877 -->
    <g transform="translate(238.375415 110.270288)scale(0.1 -0.1)">
     <use xlink:href="#DejaVuSans-46"/>
     <use x="57.503906" xlink:href="#DejaVuSans-53"/>
     <use x="120.980469" xlink:href="#DejaVuSans-38"/>
     <use x="184.603516" xlink:href="#DejaVuSans-37"/>
     <use x="248.226562" xlink:href="#DejaVuSans-37"/>
    </g>
   </g>
   <g id="text_17">
    <!-- FS842 -->
    <g transform="translate(107.610881 221.241523)scale(0.1 -0.1)">
     <use xlink:href="#DejaVuSans-46"/>
     <use x="57.503906" xlink:href="#DejaVuSans-53"/>
     <use x="120.980469" xlink:href="#DejaVuSans-38"/>
     <use x="184.603516" xlink:href="#DejaVuSans-34"/>
     <use x="248.226562" xlink:href="#DejaVuSans-32"/>
    </g>
   </g>
   <g id="text_18">
    <!-- FS881 -->
    <g transform="translate(348.82925 210.386122)scale(0.1 -0.1)">
     <use xlink:href="#DejaVuSans-46"/>
     <use x="57.503906" xlink:href="#DejaVuSans-53"/>
     <use x="120.980469" xlink:href="#DejaVuSans-38"/>
     <use x="184.603516" xlink:href="#DejaVuSans-38"/>
     <use x="248.226562" xlink:href="#DejaVuSans-31"/>
    </g>
   </g>
   <g id="text_19">
    <!-- FS866 -->
    <g transform="translate(398.291698 91.306036)scale(0.1 -0.1)">
     <use xlink:href="#DejaVuSans-46"/>
     <use x="57.503906" xlink:href="#DejaVuSans-53"/>
     <use x="120.980469" xlink:href="#DejaVuSans-38"/>
     <use x="184.603516" xlink:href="#DejaVuSans-36"/>
     <use x="248.226562" xlink:href="#DejaVuSans-36"/>
    </g>
   </g>
   <g id="text_20">
    <!-- FS852 -->
    <g transform="translate(75.576898 249.204584)scale(0.1 -0.1)">
     <use xlink:href="#DejaVuSans-46"/>
     <use x="57.503906" xlink:href="#DejaVuSans-53"/>
     <use x="120.980469" xlink:href="#DejaVuSans-38"/>
     <use x="184.603516" xlink:href="#DejaVuSans-35"/>
     <use x="248.226562" xlink:href="#DejaVuSans-32"/>
    </g>
   </g>
   <g id="text_21">
    <!-- FS856 -->
    <g transform="translate(74.703992 272.14848)scale(0.1 -0.1)">
     <use xlink:href="#DejaVuSans-46"/>
     <use x="57.503906" xlink:href="#DejaVuSans-53"/>
     <use x="120.980469" xlink:href="#DejaVuSans-38"/>
     <use x="184.603516" xlink:href="#DejaVuSans-35"/>
     <use x="248.226562" xlink:href="#DejaVuSans-36"/>
    </g>
   </g>
   <g id="text_22">
    <!-- FS841 -->
    <g transform="translate(74.684228 209.01516)scale(0.1 -0.1)">
     <use xlink:href="#DejaVuSans-46"/>
     <use x="57.503906" xlink:href="#DejaVuSans-53"/>
     <use x="120.980469" xlink:href="#DejaVuSans-38"/>
     <use x="184.603516" xlink:href="#DejaVuSans-34"/>
     <use x="248.226562" xlink:href="#DejaVuSans-31"/>
    </g>
   </g>
   <g id="text_23">
    <!-- FS874 -->
    <g transform="translate(73.850851 294.802056)scale(0.1 -0.1)">
     <use xlink:href="#DejaVuSans-46"/>
     <use x="57.503906" xlink:href="#DejaVuSans-53"/>
     <use x="120.980469" xlink:href="#DejaVuSans-38"/>
     <use x="184.603516" xlink:href="#DejaVuSans-37"/>
     <use x="248.226562" xlink:href="#DejaVuSans-34"/>
    </g>
   </g>
   <g id="text_24">
    <!-- FS851 -->
    <g transform="translate(75.655953 255.926984)scale(0.1 -0.1)">
     <use xlink:href="#DejaVuSans-46"/>
     <use x="57.503906" xlink:href="#DejaVuSans-53"/>
     <use x="120.980469" xlink:href="#DejaVuSans-38"/>
     <use x="184.603516" xlink:href="#DejaVuSans-35"/>
     <use x="248.226562" xlink:href="#DejaVuSans-31"/>
    </g>
   </g>
   <g id="text_25">
    <!-- FS849 -->
    <g transform="translate(75.069624 225.707889)scale(0.1 -0.1)">
     <use xlink:href="#DejaVuSans-46"/>
     <use x="57.503906" xlink:href="#DejaVuSans-53"/>
     <use x="120.980469" xlink:href="#DejaVuSans-38"/>
     <use x="184.603516" xlink:href="#DejaVuSans-34"/>
     <use x="248.226562" xlink:href="#DejaVuSans-39"/>
    </g>
   </g>
   <g id="text_26">
    <!-- FS844 -->
    <g transform="translate(73.850851 253.237315)scale(0.1 -0.1)">
     <use xlink:href="#DejaVuSans-46"/>
     <use x="57.503906" xlink:href="#DejaVuSans-53"/>
     <use x="120.980469" xlink:href="#DejaVuSans-38"/>
     <use x="184.603516" xlink:href="#DejaVuSans-34"/>
     <use x="248.226562" xlink:href="#DejaVuSans-34"/>
    </g>
   </g>
   <g id="text_27">
    <!-- FS872 -->
    <g transform="translate(73.834381 112.267941)scale(0.1 -0.1)">
     <use xlink:href="#DejaVuSans-46"/>
     <use x="57.503906" xlink:href="#DejaVuSans-53"/>
     <use x="120.980469" xlink:href="#DejaVuSans-38"/>
     <use x="184.603516" xlink:href="#DejaVuSans-37"/>
     <use x="248.226562" xlink:href="#DejaVuSans-32"/>
    </g>
   </g>
  </g>
 </g>
 <defs>
  <clipPath id="p0b6db0fb70">
   <rect height="266.112" width="357.12" x="57.6" y="41.472"/>
  </clipPath>
 </defs>
</svg>
