<?xml version="1.0" encoding="utf-8" standalone="no"?>
<!DOCTYPE svg PUBLIC "-//W3C//DTD SVG 1.1//EN"
  "http://www.w3.org/Graphics/SVG/1.1/DTD/svg11.dtd">
<!-- Created with matplotlib (http://matplotlib.org/) -->
<svg height="345pt" version="1.1" viewBox="0 0 460 345" width="460pt" xmlns="http://www.w3.org/2000/svg" xmlns:xlink="http://www.w3.org/1999/xlink">
 <defs>
  <style type="text/css">
*{stroke-linecap:butt;stroke-linejoin:round;}
  </style>
 </defs>
 <g id="figure_1">
  <g id="patch_1">
   <path d="M 0 345.6 
L 460.8 345.6 
L 460.8 0 
L 0 0 
z
" style="fill:#ffffff;"/>
  </g>
  <g id="axes_1">
   <g id="patch_2">
    <path d="M 57.6 307.584 
L 414.72 307.584 
L 414.72 41.472 
L 57.6 41.472 
z
" style="fill:#ffffff;"/>
   </g>
   <g id="PathCollection_1">
    <path clip-path="url(#p9bcdd9a357)" d="M 81.694326 60.317291 
C 82.473412 60.317291 83.220694 60.007756 83.771592 59.456859 
C 84.322489 58.905962 84.632023 58.15868 84.632023 57.379593 
C 84.632023 56.600507 84.322489 55.853225 83.771592 55.302328 
C 83.220694 54.75143 82.473412 54.441896 81.694326 54.441896 
C 80.915239 54.441896 80.167957 54.75143 79.61706 55.302328 
C 79.066163 55.853225 78.756628 56.600507 78.756628 57.379593 
C 78.756628 58.15868 79.066163 58.905962 79.61706 59.456859 
C 80.167957 60.007756 80.915239 60.317291 81.694326 60.317291 
z
" style="fill:#ff0029;stroke:#ff0029;"/>
    <path clip-path="url(#p9bcdd9a357)" d="M 180.897213 96.170231 
C 182.369803 96.170231 183.782278 95.585165 184.823556 94.543886 
C 185.864835 93.502608 186.449901 92.090133 186.449901 90.617543 
C 186.449901 89.144953 185.864835 87.732478 184.823556 86.6912 
C 183.782278 85.649922 182.369803 85.064855 180.897213 85.064855 
C 179.424623 85.064855 178.012148 85.649922 176.97087 86.6912 
C 175.929591 87.732478 175.344525 89.144953 175.344525 90.617543 
C 175.344525 92.090133 175.929591 93.502608 176.97087 94.543886 
C 178.012148 95.585165 179.424623 96.170231 180.897213 96.170231 
z
" style="fill:#ff3300;stroke:#ff3300;"/>
    <path clip-path="url(#p9bcdd9a357)" d="M 398.37667 171.389358 
C 402.912307 171.389358 407.262786 169.58733 410.469966 166.38015 
C 413.677146 163.172971 415.479173 158.822491 415.479173 154.286854 
C 415.479173 149.751217 413.677146 145.400737 410.469966 142.193557 
C 407.262786 138.986378 402.912307 137.18435 398.37667 137.18435 
C 393.841033 137.18435 389.490553 138.986378 386.283373 142.193557 
C 383.076194 145.400737 381.274166 149.751217 381.274166 154.286854 
C 381.274166 158.822491 383.076194 163.172971 386.283373 166.38015 
C 389.490553 169.58733 393.841033 171.389358 398.37667 171.389358 
z
" style="fill:#ff8e00;stroke:#ff8e00;"/>
    <path clip-path="url(#p9bcdd9a357)" d="M 271.299095 151.96236 
C 275.316593 151.96236 279.170085 150.366192 282.010885 147.525391 
C 284.851685 144.684591 286.447854 140.831099 286.447854 136.813601 
C 286.447854 132.796103 284.851685 128.94261 282.010885 126.10181 
C 279.170085 123.26101 275.316593 121.664841 271.299095 121.664841 
C 267.281597 121.664841 263.428104 123.26101 260.587304 126.10181 
C 257.746504 128.94261 256.150335 132.796103 256.150335 136.813601 
C 256.150335 140.831099 257.746504 144.684591 260.587304 147.525391 
C 263.428104 150.366192 267.281597 151.96236 271.299095 151.96236 
z
" style="fill:#ffea00;stroke:#ffea00;"/>
    <path clip-path="url(#p9bcdd9a357)" d="M 85.200795 255.001696 
C 85.749853 255.001696 86.276497 254.783552 86.66474 254.39531 
C 87.052983 254.007067 87.271126 253.480423 87.271126 252.931364 
C 87.271126 252.382306 87.052983 251.855662 86.66474 251.467419 
C 86.276497 251.079176 85.749853 250.861033 85.200795 250.861033 
C 84.651737 250.861033 84.125093 251.079176 83.73685 251.467419 
C 83.348607 251.855662 83.130464 252.382306 83.130464 252.931364 
C 83.130464 253.480423 83.348607 254.007067 83.73685 254.39531 
C 84.125093 254.783552 84.651737 255.001696 85.200795 255.001696 
z
" style="fill:#b8ff00;stroke:#b8ff00;"/>
    <path clip-path="url(#p9bcdd9a357)" d="M 120.056491 279.227586 
C 121.060166 279.227586 122.022868 278.828822 122.732573 278.119117 
C 123.442278 277.409411 123.841042 276.446709 123.841042 275.443035 
C 123.841042 274.43936 123.442278 273.476658 122.732573 272.766953 
C 122.022868 272.057248 121.060166 271.658483 120.056491 271.658483 
C 119.052816 271.658483 118.090114 272.057248 117.380409 272.766953 
C 116.670704 273.476658 116.27194 274.43936 116.27194 275.443035 
C 116.27194 276.446709 116.670704 277.409411 117.380409 278.119117 
C 118.090114 278.828822 119.052816 279.227586 120.056491 279.227586 
z
" style="fill:#5cff00;stroke:#5cff00;"/>
    <path clip-path="url(#p9bcdd9a357)" d="M 112.335293 184.556457 
C 113.554652 184.556457 114.724234 184.072 115.586451 183.209783 
C 116.448668 182.347566 116.933125 181.177984 116.933125 179.958625 
C 116.933125 178.739265 116.448668 177.569683 115.586451 176.707466 
C 114.724234 175.845249 113.554652 175.360792 112.335293 175.360792 
C 111.115933 175.360792 109.946351 175.845249 109.084134 176.707466 
C 108.221917 177.569683 107.73746 178.739265 107.73746 179.958625 
C 107.73746 181.177984 108.221917 182.347566 109.084134 183.209783 
C 109.946351 184.072 111.115933 184.556457 112.335293 184.556457 
z
" style="fill:#00ff00;stroke:#00ff00;"/>
    <path clip-path="url(#p9bcdd9a357)" d="M 76.492676 266.809716 
C 77.052731 266.809716 77.589922 266.587204 77.985941 266.191186 
C 78.381959 265.795167 78.604471 265.257976 78.604471 264.697921 
C 78.604471 264.137867 78.381959 263.600675 77.985941 263.204657 
C 77.589922 262.808638 77.052731 262.586126 76.492676 262.586126 
C 75.932622 262.586126 75.39543 262.808638 74.999412 263.204657 
C 74.603394 263.600675 74.380882 264.137867 74.380882 264.697921 
C 74.380882 265.257976 74.603394 265.795167 74.999412 266.191186 
C 75.39543 266.587204 75.932622 266.809716 76.492676 266.809716 
z
" style="fill:#00ff5b;stroke:#00ff5b;"/>
    <path clip-path="url(#p9bcdd9a357)" d="M 73.999252 243.131547 
C 74.093696 243.131547 74.184285 243.094024 74.251067 243.027242 
C 74.317849 242.96046 74.355372 242.869871 74.355372 242.775427 
C 74.355372 242.680983 74.317849 242.590394 74.251067 242.523612 
C 74.184285 242.456829 74.093696 242.419306 73.999252 242.419306 
C 73.904807 242.419306 73.814219 242.456829 73.747436 242.523612 
C 73.680654 242.590394 73.643131 242.680983 73.643131 242.775427 
C 73.643131 242.869871 73.680654 242.96046 73.747436 243.027242 
C 73.814219 243.094024 73.904807 243.131547 73.999252 243.131547 
z
" style="fill:#00ffb7;stroke:#00ffb7;"/>
    <path clip-path="url(#p9bcdd9a357)" d="M 74.312744 265.630601 
C 74.421593 265.630601 74.525998 265.587355 74.602966 265.510387 
C 74.679934 265.433419 74.72318 265.329014 74.72318 265.220165 
C 74.72318 265.111316 74.679934 265.00691 74.602966 264.929943 
C 74.525998 264.852975 74.421593 264.809729 74.312744 264.809729 
C 74.203895 264.809729 74.09949 264.852975 74.022522 264.929943 
C 73.945554 265.00691 73.902308 265.111316 73.902308 265.220165 
C 73.902308 265.329014 73.945554 265.433419 74.022522 265.510387 
C 74.09949 265.587355 74.203895 265.630601 74.312744 265.630601 
z
" style="fill:#00ecff;stroke:#00ecff;"/>
    <path clip-path="url(#p9bcdd9a357)" d="M 74.205344 241.452845 
C 74.324296 241.452845 74.438392 241.405585 74.522504 241.321473 
C 74.606616 241.237361 74.653877 241.123265 74.653877 241.004312 
C 74.653877 240.88536 74.606616 240.771264 74.522504 240.687152 
C 74.438392 240.60304 74.324296 240.55578 74.205344 240.55578 
C 74.086392 240.55578 73.972295 240.60304 73.888183 240.687152 
C 73.804071 240.771264 73.756811 240.88536 73.756811 241.004312 
C 73.756811 241.123265 73.804071 241.237361 73.888183 241.321473 
C 73.972295 241.405585 74.086392 241.452845 74.205344 241.452845 
z
" style="fill:#008fff;stroke:#008fff;"/>
    <path clip-path="url(#p9bcdd9a357)" d="M 73.967322 155.617812 
C 74.105127 155.617812 74.237306 155.563062 74.334748 155.46562 
C 74.432191 155.368177 74.486941 155.235998 74.486941 155.098193 
C 74.486941 154.960389 74.432191 154.82821 74.334748 154.730767 
C 74.237306 154.633324 74.105127 154.578574 73.967322 154.578574 
C 73.829517 154.578574 73.697338 154.633324 73.599896 154.730767 
C 73.502453 154.82821 73.447703 154.960389 73.447703 155.098193 
C 73.447703 155.235998 73.502453 155.368177 73.599896 155.46562 
C 73.697338 155.563062 73.829517 155.617812 73.967322 155.617812 
z
" style="fill:#0033ff;stroke:#0033ff;"/>
    <path clip-path="url(#p9bcdd9a357)" d="M 73.8367 286.493299 
C 73.882986 286.493299 73.927382 286.474909 73.960111 286.44218 
C 73.99284 286.409451 74.01123 286.365055 74.01123 286.31877 
C 74.01123 286.272484 73.99284 286.228088 73.960111 286.195359 
C 73.927382 286.16263 73.882986 286.14424 73.8367 286.14424 
C 73.790415 286.14424 73.746018 286.16263 73.713289 286.195359 
C 73.68056 286.228088 73.662171 286.272484 73.662171 286.31877 
C 73.662171 286.365055 73.68056 286.409451 73.713289 286.44218 
C 73.746018 286.474909 73.790415 286.493299 73.8367 286.493299 
z
" style="fill:#2a00ff;stroke:#2a00ff;"/>
    <path clip-path="url(#p9bcdd9a357)" d="M 73.833798 295.43877 
C 73.877686 295.43877 73.919783 295.421333 73.950817 295.390299 
C 73.981851 295.359265 73.999288 295.317168 73.999288 295.27328 
C 73.999288 295.229391 73.981851 295.187294 73.950817 295.15626 
C 73.919783 295.125226 73.877686 295.107789 73.833798 295.107789 
C 73.789909 295.107789 73.747812 295.125226 73.716778 295.15626 
C 73.685744 295.187294 73.668307 295.229391 73.668307 295.27328 
C 73.668307 295.317168 73.685744 295.359265 73.716778 295.390299 
C 73.747812 295.421333 73.789909 295.43877 73.833798 295.43877 
z
" style="fill:#8600ff;stroke:#8600ff;"/>
   </g>
   <g id="matplotlib.axis_1">
    <g id="xtick_1">
     <g id="line2d_1">
      <defs>
       <path d="M 0 0 
L 0 3.5 
" id="m09b3cd72d0" style="stroke:#000000;stroke-width:0.8;"/>
      </defs>
      <g>
       <use style="stroke:#000000;stroke-width:0.8;" x="73.819284" xlink:href="#m09b3cd72d0" y="307.584"/>
      </g>
     </g>
     <g id="text_1">
      <!-- 0 -->
      <defs>
       <path d="M 31.78125 66.40625 
Q 24.171875 66.40625 20.328125 58.90625 
Q 16.5 51.421875 16.5 36.375 
Q 16.5 21.390625 20.328125 13.890625 
Q 24.171875 6.390625 31.78125 6.390625 
Q 39.453125 6.390625 43.28125 13.890625 
Q 47.125 21.390625 47.125 36.375 
Q 47.125 51.421875 43.28125 58.90625 
Q 39.453125 66.40625 31.78125 66.40625 
z
M 31.78125 74.21875 
Q 44.046875 74.21875 50.515625 64.515625 
Q 56.984375 54.828125 56.984375 36.375 
Q 56.984375 17.96875 50.515625 8.265625 
Q 44.046875 -1.421875 31.78125 -1.421875 
Q 19.53125 -1.421875 13.0625 8.265625 
Q 6.59375 17.96875 6.59375 36.375 
Q 6.59375 54.828125 13.0625 64.515625 
Q 19.53125 74.21875 31.78125 74.21875 
z
" id="DejaVuSans-30"/>
      </defs>
      <g transform="translate(70.638034 322.182437)scale(0.1 -0.1)">
       <use xlink:href="#DejaVuSans-30"/>
      </g>
     </g>
    </g>
    <g id="xtick_2">
     <g id="line2d_2">
      <g>
       <use style="stroke:#000000;stroke-width:0.8;" x="137.972632" xlink:href="#m09b3cd72d0" y="307.584"/>
      </g>
     </g>
     <g id="text_2">
      <!-- 20 -->
      <defs>
       <path d="M 19.1875 8.296875 
L 53.609375 8.296875 
L 53.609375 0 
L 7.328125 0 
L 7.328125 8.296875 
Q 12.9375 14.109375 22.625 23.890625 
Q 32.328125 33.6875 34.8125 36.53125 
Q 39.546875 41.84375 41.421875 45.53125 
Q 43.3125 49.21875 43.3125 52.78125 
Q 43.3125 58.59375 39.234375 62.25 
Q 35.15625 65.921875 28.609375 65.921875 
Q 23.96875 65.921875 18.8125 64.3125 
Q 13.671875 62.703125 7.8125 59.421875 
L 7.8125 69.390625 
Q 13.765625 71.78125 18.9375 73 
Q 24.125 74.21875 28.421875 74.21875 
Q 39.75 74.21875 46.484375 68.546875 
Q 53.21875 62.890625 53.21875 53.421875 
Q 53.21875 48.921875 51.53125 44.890625 
Q 49.859375 40.875 45.40625 35.40625 
Q 44.1875 33.984375 37.640625 27.21875 
Q 31.109375 20.453125 19.1875 8.296875 
z
" id="DejaVuSans-32"/>
      </defs>
      <g transform="translate(131.610132 322.182437)scale(0.1 -0.1)">
       <use xlink:href="#DejaVuSans-32"/>
       <use x="63.623047" xlink:href="#DejaVuSans-30"/>
      </g>
     </g>
    </g>
    <g id="xtick_3">
     <g id="line2d_3">
      <g>
       <use style="stroke:#000000;stroke-width:0.8;" x="202.125981" xlink:href="#m09b3cd72d0" y="307.584"/>
      </g>
     </g>
     <g id="text_3">
      <!-- 40 -->
      <defs>
       <path d="M 37.796875 64.3125 
L 12.890625 25.390625 
L 37.796875 25.390625 
z
M 35.203125 72.90625 
L 47.609375 72.90625 
L 47.609375 25.390625 
L 58.015625 25.390625 
L 58.015625 17.1875 
L 47.609375 17.1875 
L 47.609375 0 
L 37.796875 0 
L 37.796875 17.1875 
L 4.890625 17.1875 
L 4.890625 26.703125 
z
" id="DejaVuSans-34"/>
      </defs>
      <g transform="translate(195.763481 322.182437)scale(0.1 -0.1)">
       <use xlink:href="#DejaVuSans-34"/>
       <use x="63.623047" xlink:href="#DejaVuSans-30"/>
      </g>
     </g>
    </g>
    <g id="xtick_4">
     <g id="line2d_4">
      <g>
       <use style="stroke:#000000;stroke-width:0.8;" x="266.279329" xlink:href="#m09b3cd72d0" y="307.584"/>
      </g>
     </g>
     <g id="text_4">
      <!-- 60 -->
      <defs>
       <path d="M 33.015625 40.375 
Q 26.375 40.375 22.484375 35.828125 
Q 18.609375 31.296875 18.609375 23.390625 
Q 18.609375 15.53125 22.484375 10.953125 
Q 26.375 6.390625 33.015625 6.390625 
Q 39.65625 6.390625 43.53125 10.953125 
Q 47.40625 15.53125 47.40625 23.390625 
Q 47.40625 31.296875 43.53125 35.828125 
Q 39.65625 40.375 33.015625 40.375 
z
M 52.59375 71.296875 
L 52.59375 62.3125 
Q 48.875 64.0625 45.09375 64.984375 
Q 41.3125 65.921875 37.59375 65.921875 
Q 27.828125 65.921875 22.671875 59.328125 
Q 17.53125 52.734375 16.796875 39.40625 
Q 19.671875 43.65625 24.015625 45.921875 
Q 28.375 48.1875 33.59375 48.1875 
Q 44.578125 48.1875 50.953125 41.515625 
Q 57.328125 34.859375 57.328125 23.390625 
Q 57.328125 12.15625 50.6875 5.359375 
Q 44.046875 -1.421875 33.015625 -1.421875 
Q 20.359375 -1.421875 13.671875 8.265625 
Q 6.984375 17.96875 6.984375 36.375 
Q 6.984375 53.65625 15.1875 63.9375 
Q 23.390625 74.21875 37.203125 74.21875 
Q 40.921875 74.21875 44.703125 73.484375 
Q 48.484375 72.75 52.59375 71.296875 
z
" id="DejaVuSans-36"/>
      </defs>
      <g transform="translate(259.916829 322.182437)scale(0.1 -0.1)">
       <use xlink:href="#DejaVuSans-36"/>
       <use x="63.623047" xlink:href="#DejaVuSans-30"/>
      </g>
     </g>
    </g>
    <g id="xtick_5">
     <g id="line2d_5">
      <g>
       <use style="stroke:#000000;stroke-width:0.8;" x="330.432677" xlink:href="#m09b3cd72d0" y="307.584"/>
      </g>
     </g>
     <g id="text_5">
      <!-- 80 -->
      <defs>
       <path d="M 31.78125 34.625 
Q 24.75 34.625 20.71875 30.859375 
Q 16.703125 27.09375 16.703125 20.515625 
Q 16.703125 13.921875 20.71875 10.15625 
Q 24.75 6.390625 31.78125 6.390625 
Q 38.8125 6.390625 42.859375 10.171875 
Q 46.921875 13.96875 46.921875 20.515625 
Q 46.921875 27.09375 42.890625 30.859375 
Q 38.875 34.625 31.78125 34.625 
z
M 21.921875 38.8125 
Q 15.578125 40.375 12.03125 44.71875 
Q 8.5 49.078125 8.5 55.328125 
Q 8.5 64.0625 14.71875 69.140625 
Q 20.953125 74.21875 31.78125 74.21875 
Q 42.671875 74.21875 48.875 69.140625 
Q 55.078125 64.0625 55.078125 55.328125 
Q 55.078125 49.078125 51.53125 44.71875 
Q 48 40.375 41.703125 38.8125 
Q 48.828125 37.15625 52.796875 32.3125 
Q 56.78125 27.484375 56.78125 20.515625 
Q 56.78125 9.90625 50.3125 4.234375 
Q 43.84375 -1.421875 31.78125 -1.421875 
Q 19.734375 -1.421875 13.25 4.234375 
Q 6.78125 9.90625 6.78125 20.515625 
Q 6.78125 27.484375 10.78125 32.3125 
Q 14.796875 37.15625 21.921875 38.8125 
z
M 18.3125 54.390625 
Q 18.3125 48.734375 21.84375 45.5625 
Q 25.390625 42.390625 31.78125 42.390625 
Q 38.140625 42.390625 41.71875 45.5625 
Q 45.3125 48.734375 45.3125 54.390625 
Q 45.3125 60.0625 41.71875 63.234375 
Q 38.140625 66.40625 31.78125 66.40625 
Q 25.390625 66.40625 21.84375 63.234375 
Q 18.3125 60.0625 18.3125 54.390625 
z
" id="DejaVuSans-38"/>
      </defs>
      <g transform="translate(324.070177 322.182437)scale(0.1 -0.1)">
       <use xlink:href="#DejaVuSans-38"/>
       <use x="63.623047" xlink:href="#DejaVuSans-30"/>
      </g>
     </g>
    </g>
    <g id="xtick_6">
     <g id="line2d_6">
      <g>
       <use style="stroke:#000000;stroke-width:0.8;" x="394.586026" xlink:href="#m09b3cd72d0" y="307.584"/>
      </g>
     </g>
     <g id="text_6">
      <!-- 100 -->
      <defs>
       <path d="M 12.40625 8.296875 
L 28.515625 8.296875 
L 28.515625 63.921875 
L 10.984375 60.40625 
L 10.984375 69.390625 
L 28.421875 72.90625 
L 38.28125 72.90625 
L 38.28125 8.296875 
L 54.390625 8.296875 
L 54.390625 0 
L 12.40625 0 
z
" id="DejaVuSans-31"/>
      </defs>
      <g transform="translate(385.042276 322.182437)scale(0.1 -0.1)">
       <use xlink:href="#DejaVuSans-31"/>
       <use x="63.623047" xlink:href="#DejaVuSans-30"/>
       <use x="127.246094" xlink:href="#DejaVuSans-30"/>
      </g>
     </g>
    </g>
    <g id="text_7">
     <!-- SNVs -->
     <defs>
      <path d="M 53.515625 70.515625 
L 53.515625 60.890625 
Q 47.90625 63.578125 42.921875 64.890625 
Q 37.9375 66.21875 33.296875 66.21875 
Q 25.25 66.21875 20.875 63.09375 
Q 16.5 59.96875 16.5 54.203125 
Q 16.5 49.359375 19.40625 46.890625 
Q 22.3125 44.4375 30.421875 42.921875 
L 36.375 41.703125 
Q 47.40625 39.59375 52.65625 34.296875 
Q 57.90625 29 57.90625 20.125 
Q 57.90625 9.515625 50.796875 4.046875 
Q 43.703125 -1.421875 29.984375 -1.421875 
Q 24.8125 -1.421875 18.96875 -0.25 
Q 13.140625 0.921875 6.890625 3.21875 
L 6.890625 13.375 
Q 12.890625 10.015625 18.65625 8.296875 
Q 24.421875 6.59375 29.984375 6.59375 
Q 38.421875 6.59375 43.015625 9.90625 
Q 47.609375 13.234375 47.609375 19.390625 
Q 47.609375 24.75 44.3125 27.78125 
Q 41.015625 30.8125 33.5 32.328125 
L 27.484375 33.5 
Q 16.453125 35.6875 11.515625 40.375 
Q 6.59375 45.0625 6.59375 53.421875 
Q 6.59375 63.09375 13.40625 68.65625 
Q 20.21875 74.21875 32.171875 74.21875 
Q 37.3125 74.21875 42.625 73.28125 
Q 47.953125 72.359375 53.515625 70.515625 
z
" id="DejaVuSans-53"/>
      <path d="M 9.8125 72.90625 
L 23.09375 72.90625 
L 55.421875 11.921875 
L 55.421875 72.90625 
L 64.984375 72.90625 
L 64.984375 0 
L 51.703125 0 
L 19.390625 60.984375 
L 19.390625 0 
L 9.8125 0 
z
" id="DejaVuSans-4e"/>
      <path d="M 28.609375 0 
L 0.78125 72.90625 
L 11.078125 72.90625 
L 34.1875 11.53125 
L 57.328125 72.90625 
L 67.578125 72.90625 
L 39.796875 0 
z
" id="DejaVuSans-56"/>
      <path d="M 44.28125 53.078125 
L 44.28125 44.578125 
Q 40.484375 46.53125 36.375 47.5 
Q 32.28125 48.484375 27.875 48.484375 
Q 21.1875 48.484375 17.84375 46.4375 
Q 14.5 44.390625 14.5 40.28125 
Q 14.5 37.15625 16.890625 35.375 
Q 19.28125 33.59375 26.515625 31.984375 
L 29.59375 31.296875 
Q 39.15625 29.25 43.1875 25.515625 
Q 47.21875 21.78125 47.21875 15.09375 
Q 47.21875 7.46875 41.1875 3.015625 
Q 35.15625 -1.421875 24.609375 -1.421875 
Q 20.21875 -1.421875 15.453125 -0.5625 
Q 10.6875 0.296875 5.421875 2 
L 5.421875 11.28125 
Q 10.40625 8.6875 15.234375 7.390625 
Q 20.0625 6.109375 24.8125 6.109375 
Q 31.15625 6.109375 34.5625 8.28125 
Q 37.984375 10.453125 37.984375 14.40625 
Q 37.984375 18.0625 35.515625 20.015625 
Q 33.0625 21.96875 24.703125 23.78125 
L 21.578125 24.515625 
Q 13.234375 26.265625 9.515625 29.90625 
Q 5.8125 33.546875 5.8125 39.890625 
Q 5.8125 47.609375 11.28125 51.796875 
Q 16.75 56 26.8125 56 
Q 31.78125 56 36.171875 55.265625 
Q 40.578125 54.546875 44.28125 53.078125 
z
" id="DejaVuSans-73"/>
     </defs>
     <g transform="translate(223.220156 335.860562)scale(0.1 -0.1)">
      <use xlink:href="#DejaVuSans-53"/>
      <use x="63.476562" xlink:href="#DejaVuSans-4e"/>
      <use x="138.28125" xlink:href="#DejaVuSans-56"/>
      <use x="206.689453" xlink:href="#DejaVuSans-73"/>
     </g>
    </g>
   </g>
   <g id="matplotlib.axis_2">
    <g id="ytick_1">
     <g id="line2d_7">
      <defs>
       <path d="M 0 0 
L -3.5 0 
" id="m75177fb158" style="stroke:#000000;stroke-width:0.8;"/>
      </defs>
      <g>
       <use style="stroke:#000000;stroke-width:0.8;" x="57.6" xlink:href="#m75177fb158" y="295.27328"/>
      </g>
     </g>
     <g id="text_8">
      <!-- 0.0 -->
      <defs>
       <path d="M 10.6875 12.40625 
L 21 12.40625 
L 21 0 
L 10.6875 0 
z
" id="DejaVuSans-2e"/>
      </defs>
      <g transform="translate(34.696875 299.072498)scale(0.1 -0.1)">
       <use xlink:href="#DejaVuSans-30"/>
       <use x="63.623047" xlink:href="#DejaVuSans-2e"/>
       <use x="95.410156" xlink:href="#DejaVuSans-30"/>
      </g>
     </g>
    </g>
    <g id="ytick_2">
     <g id="line2d_8">
      <g>
       <use style="stroke:#000000;stroke-width:0.8;" x="57.6" xlink:href="#m75177fb158" y="247.318548"/>
      </g>
     </g>
     <g id="text_9">
      <!-- 0.1 -->
      <g transform="translate(34.696875 251.117767)scale(0.1 -0.1)">
       <use xlink:href="#DejaVuSans-30"/>
       <use x="63.623047" xlink:href="#DejaVuSans-2e"/>
       <use x="95.410156" xlink:href="#DejaVuSans-31"/>
      </g>
     </g>
    </g>
    <g id="ytick_3">
     <g id="line2d_9">
      <g>
       <use style="stroke:#000000;stroke-width:0.8;" x="57.6" xlink:href="#m75177fb158" y="199.363816"/>
      </g>
     </g>
     <g id="text_10">
      <!-- 0.2 -->
      <g transform="translate(34.696875 203.163035)scale(0.1 -0.1)">
       <use xlink:href="#DejaVuSans-30"/>
       <use x="63.623047" xlink:href="#DejaVuSans-2e"/>
       <use x="95.410156" xlink:href="#DejaVuSans-32"/>
      </g>
     </g>
    </g>
    <g id="ytick_4">
     <g id="line2d_10">
      <g>
       <use style="stroke:#000000;stroke-width:0.8;" x="57.6" xlink:href="#m75177fb158" y="151.409084"/>
      </g>
     </g>
     <g id="text_11">
      <!-- 0.3 -->
      <defs>
       <path d="M 40.578125 39.3125 
Q 47.65625 37.796875 51.625 33 
Q 55.609375 28.21875 55.609375 21.1875 
Q 55.609375 10.40625 48.1875 4.484375 
Q 40.765625 -1.421875 27.09375 -1.421875 
Q 22.515625 -1.421875 17.65625 -0.515625 
Q 12.796875 0.390625 7.625 2.203125 
L 7.625 11.71875 
Q 11.71875 9.328125 16.59375 8.109375 
Q 21.484375 6.890625 26.8125 6.890625 
Q 36.078125 6.890625 40.9375 10.546875 
Q 45.796875 14.203125 45.796875 21.1875 
Q 45.796875 27.640625 41.28125 31.265625 
Q 36.765625 34.90625 28.71875 34.90625 
L 20.21875 34.90625 
L 20.21875 43.015625 
L 29.109375 43.015625 
Q 36.375 43.015625 40.234375 45.921875 
Q 44.09375 48.828125 44.09375 54.296875 
Q 44.09375 59.90625 40.109375 62.90625 
Q 36.140625 65.921875 28.71875 65.921875 
Q 24.65625 65.921875 20.015625 65.03125 
Q 15.375 64.15625 9.8125 62.3125 
L 9.8125 71.09375 
Q 15.4375 72.65625 20.34375 73.4375 
Q 25.25 74.21875 29.59375 74.21875 
Q 40.828125 74.21875 47.359375 69.109375 
Q 53.90625 64.015625 53.90625 55.328125 
Q 53.90625 49.265625 50.4375 45.09375 
Q 46.96875 40.921875 40.578125 39.3125 
z
" id="DejaVuSans-33"/>
      </defs>
      <g transform="translate(34.696875 155.208303)scale(0.1 -0.1)">
       <use xlink:href="#DejaVuSans-30"/>
       <use x="63.623047" xlink:href="#DejaVuSans-2e"/>
       <use x="95.410156" xlink:href="#DejaVuSans-33"/>
      </g>
     </g>
    </g>
    <g id="ytick_5">
     <g id="line2d_11">
      <g>
       <use style="stroke:#000000;stroke-width:0.8;" x="57.6" xlink:href="#m75177fb158" y="103.454352"/>
      </g>
     </g>
     <g id="text_12">
      <!-- 0.4 -->
      <g transform="translate(34.696875 107.253571)scale(0.1 -0.1)">
       <use xlink:href="#DejaVuSans-30"/>
       <use x="63.623047" xlink:href="#DejaVuSans-2e"/>
       <use x="95.410156" xlink:href="#DejaVuSans-34"/>
      </g>
     </g>
    </g>
    <g id="ytick_6">
     <g id="line2d_12">
      <g>
       <use style="stroke:#000000;stroke-width:0.8;" x="57.6" xlink:href="#m75177fb158" y="55.49962"/>
      </g>
     </g>
     <g id="text_13">
      <!-- 0.5 -->
      <defs>
       <path d="M 10.796875 72.90625 
L 49.515625 72.90625 
L 49.515625 64.59375 
L 19.828125 64.59375 
L 19.828125 46.734375 
Q 21.96875 47.46875 24.109375 47.828125 
Q 26.265625 48.1875 28.421875 48.1875 
Q 40.625 48.1875 47.75 41.5 
Q 54.890625 34.8125 54.890625 23.390625 
Q 54.890625 11.625 47.5625 5.09375 
Q 40.234375 -1.421875 26.90625 -1.421875 
Q 22.3125 -1.421875 17.546875 -0.640625 
Q 12.796875 0.140625 7.71875 1.703125 
L 7.71875 11.625 
Q 12.109375 9.234375 16.796875 8.0625 
Q 21.484375 6.890625 26.703125 6.890625 
Q 35.15625 6.890625 40.078125 11.328125 
Q 45.015625 15.765625 45.015625 23.390625 
Q 45.015625 31 40.078125 35.4375 
Q 35.15625 39.890625 26.703125 39.890625 
Q 22.75 39.890625 18.8125 39.015625 
Q 14.890625 38.140625 10.796875 36.28125 
z
" id="DejaVuSans-35"/>
      </defs>
      <g transform="translate(34.696875 59.298839)scale(0.1 -0.1)">
       <use xlink:href="#DejaVuSans-30"/>
       <use x="63.623047" xlink:href="#DejaVuSans-2e"/>
       <use x="95.410156" xlink:href="#DejaVuSans-35"/>
      </g>
     </g>
    </g>
    <g id="text_14">
     <!-- n2n1 -->
     <defs>
      <path d="M 54.890625 33.015625 
L 54.890625 0 
L 45.90625 0 
L 45.90625 32.71875 
Q 45.90625 40.484375 42.875 44.328125 
Q 39.84375 48.1875 33.796875 48.1875 
Q 26.515625 48.1875 22.3125 43.546875 
Q 18.109375 38.921875 18.109375 30.90625 
L 18.109375 0 
L 9.078125 0 
L 9.078125 54.6875 
L 18.109375 54.6875 
L 18.109375 46.1875 
Q 21.34375 51.125 25.703125 53.5625 
Q 30.078125 56 35.796875 56 
Q 45.21875 56 50.046875 50.171875 
Q 54.890625 44.34375 54.890625 33.015625 
z
" id="DejaVuSans-6e"/>
     </defs>
     <g transform="translate(28.617188 187.228)rotate(-90)scale(0.1 -0.1)">
      <use xlink:href="#DejaVuSans-6e"/>
      <use x="63.378906" xlink:href="#DejaVuSans-32"/>
      <use x="127.001953" xlink:href="#DejaVuSans-6e"/>
      <use x="190.380859" xlink:href="#DejaVuSans-31"/>
     </g>
    </g>
   </g>
   <g id="patch_3">
    <path d="M 57.6 307.584 
L 57.6 41.472 
" style="fill:none;stroke:#000000;stroke-linecap:square;stroke-linejoin:miter;stroke-width:0.8;"/>
   </g>
   <g id="patch_4">
    <path d="M 414.72 307.584 
L 414.72 41.472 
" style="fill:none;stroke:#000000;stroke-linecap:square;stroke-linejoin:miter;stroke-width:0.8;"/>
   </g>
   <g id="patch_5">
    <path d="M 57.6 307.584 
L 414.72 307.584 
" style="fill:none;stroke:#000000;stroke-linecap:square;stroke-linejoin:miter;stroke-width:0.8;"/>
   </g>
   <g id="patch_6">
    <path d="M 57.6 41.472 
L 414.72 41.472 
" style="fill:none;stroke:#000000;stroke-linecap:square;stroke-linejoin:miter;stroke-width:0.8;"/>
   </g>
   <g id="text_15">
    <!-- FS879 -->
    <defs>
     <path d="M 9.8125 72.90625 
L 51.703125 72.90625 
L 51.703125 64.59375 
L 19.671875 64.59375 
L 19.671875 43.109375 
L 48.578125 43.109375 
L 48.578125 34.8125 
L 19.671875 34.8125 
L 19.671875 0 
L 9.8125 0 
z
" id="DejaVuSans-46"/>
     <path d="M 8.203125 72.90625 
L 55.078125 72.90625 
L 55.078125 68.703125 
L 28.609375 0 
L 18.3125 0 
L 43.21875 64.59375 
L 8.203125 64.59375 
z
" id="DejaVuSans-37"/>
     <path d="M 10.984375 1.515625 
L 10.984375 10.5 
Q 14.703125 8.734375 18.5 7.8125 
Q 22.3125 6.890625 25.984375 6.890625 
Q 35.75 6.890625 40.890625 13.453125 
Q 46.046875 20.015625 46.78125 33.40625 
Q 43.953125 29.203125 39.59375 26.953125 
Q 35.25 24.703125 29.984375 24.703125 
Q 19.046875 24.703125 12.671875 31.3125 
Q 6.296875 37.9375 6.296875 49.421875 
Q 6.296875 60.640625 12.9375 67.421875 
Q 19.578125 74.21875 30.609375 74.21875 
Q 43.265625 74.21875 49.921875 64.515625 
Q 56.59375 54.828125 56.59375 36.375 
Q 56.59375 19.140625 48.40625 8.859375 
Q 40.234375 -1.421875 26.421875 -1.421875 
Q 22.703125 -1.421875 18.890625 -0.6875 
Q 15.09375 0.046875 10.984375 1.515625 
z
M 30.609375 32.421875 
Q 37.25 32.421875 41.125 36.953125 
Q 45.015625 41.5 45.015625 49.421875 
Q 45.015625 57.28125 41.125 61.84375 
Q 37.25 66.40625 30.609375 66.40625 
Q 23.96875 66.40625 20.09375 61.84375 
Q 16.21875 57.28125 16.21875 49.421875 
Q 16.21875 41.5 20.09375 36.953125 
Q 23.96875 32.421875 30.609375 32.421875 
z
" id="DejaVuSans-39"/>
    </defs>
    <g transform="translate(81.694326 57.379593)scale(0.1 -0.1)">
     <use xlink:href="#DejaVuSans-46"/>
     <use x="57.503906" xlink:href="#DejaVuSans-53"/>
     <use x="120.980469" xlink:href="#DejaVuSans-38"/>
     <use x="184.603516" xlink:href="#DejaVuSans-37"/>
     <use x="248.226562" xlink:href="#DejaVuSans-39"/>
    </g>
   </g>
   <g id="text_16">
    <!-- FS866 -->
    <g transform="translate(180.897213 90.617543)scale(0.1 -0.1)">
     <use xlink:href="#DejaVuSans-46"/>
     <use x="57.503906" xlink:href="#DejaVuSans-53"/>
     <use x="120.980469" xlink:href="#DejaVuSans-38"/>
     <use x="184.603516" xlink:href="#DejaVuSans-36"/>
     <use x="248.226562" xlink:href="#DejaVuSans-36"/>
    </g>
   </g>
   <g id="text_17">
    <!-- FS848 -->
    <g transform="translate(398.37667 154.286854)scale(0.1 -0.1)">
     <use xlink:href="#DejaVuSans-46"/>
     <use x="57.503906" xlink:href="#DejaVuSans-53"/>
     <use x="120.980469" xlink:href="#DejaVuSans-38"/>
     <use x="184.603516" xlink:href="#DejaVuSans-34"/>
     <use x="248.226562" xlink:href="#DejaVuSans-38"/>
    </g>
   </g>
   <g id="text_18">
    <!-- FS877 -->
    <g transform="translate(271.299095 136.813601)scale(0.1 -0.1)">
     <use xlink:href="#DejaVuSans-46"/>
     <use x="57.503906" xlink:href="#DejaVuSans-53"/>
     <use x="120.980469" xlink:href="#DejaVuSans-38"/>
     <use x="184.603516" xlink:href="#DejaVuSans-37"/>
     <use x="248.226562" xlink:href="#DejaVuSans-37"/>
    </g>
   </g>
   <g id="text_19">
    <!-- FS842 -->
    <g transform="translate(85.200795 252.931364)scale(0.1 -0.1)">
     <use xlink:href="#DejaVuSans-46"/>
     <use x="57.503906" xlink:href="#DejaVuSans-53"/>
     <use x="120.980469" xlink:href="#DejaVuSans-38"/>
     <use x="184.603516" xlink:href="#DejaVuSans-34"/>
     <use x="248.226562" xlink:href="#DejaVuSans-32"/>
    </g>
   </g>
   <g id="text_20">
    <!-- FS854 -->
    <g transform="translate(120.056491 275.443035)scale(0.1 -0.1)">
     <use xlink:href="#DejaVuSans-46"/>
     <use x="57.503906" xlink:href="#DejaVuSans-53"/>
     <use x="120.980469" xlink:href="#DejaVuSans-38"/>
     <use x="184.603516" xlink:href="#DejaVuSans-35"/>
     <use x="248.226562" xlink:href="#DejaVuSans-34"/>
    </g>
   </g>
   <g id="text_21">
    <!-- FS881 -->
    <g transform="translate(112.335293 179.958625)scale(0.1 -0.1)">
     <use xlink:href="#DejaVuSans-46"/>
     <use x="57.503906" xlink:href="#DejaVuSans-53"/>
     <use x="120.980469" xlink:href="#DejaVuSans-38"/>
     <use x="184.603516" xlink:href="#DejaVuSans-38"/>
     <use x="248.226562" xlink:href="#DejaVuSans-31"/>
    </g>
   </g>
   <g id="text_22">
    <!-- FS856 -->
    <g transform="translate(76.492676 264.697921)scale(0.1 -0.1)">
     <use xlink:href="#DejaVuSans-46"/>
     <use x="57.503906" xlink:href="#DejaVuSans-53"/>
     <use x="120.980469" xlink:href="#DejaVuSans-38"/>
     <use x="184.603516" xlink:href="#DejaVuSans-35"/>
     <use x="248.226562" xlink:href="#DejaVuSans-36"/>
    </g>
   </g>
   <g id="text_23">
    <!-- FS849 -->
    <g transform="translate(73.999252 242.775427)scale(0.1 -0.1)">
     <use xlink:href="#DejaVuSans-46"/>
     <use x="57.503906" xlink:href="#DejaVuSans-53"/>
     <use x="120.980469" xlink:href="#DejaVuSans-38"/>
     <use x="184.603516" xlink:href="#DejaVuSans-34"/>
     <use x="248.226562" xlink:href="#DejaVuSans-39"/>
    </g>
   </g>
   <g id="text_24">
    <!-- FS851 -->
    <g transform="translate(74.312744 265.220165)scale(0.1 -0.1)">
     <use xlink:href="#DejaVuSans-46"/>
     <use x="57.503906" xlink:href="#DejaVuSans-53"/>
     <use x="120.980469" xlink:href="#DejaVuSans-38"/>
     <use x="184.603516" xlink:href="#DejaVuSans-35"/>
     <use x="248.226562" xlink:href="#DejaVuSans-31"/>
    </g>
   </g>
   <g id="text_25">
    <!-- FS852 -->
    <g transform="translate(74.205344 241.004312)scale(0.1 -0.1)">
     <use xlink:href="#DejaVuSans-46"/>
     <use x="57.503906" xlink:href="#DejaVuSans-53"/>
     <use x="120.980469" xlink:href="#DejaVuSans-38"/>
     <use x="184.603516" xlink:href="#DejaVuSans-35"/>
     <use x="248.226562" xlink:href="#DejaVuSans-32"/>
    </g>
   </g>
   <g id="text_26">
    <!-- FS844 -->
    <g transform="translate(73.967322 155.098193)scale(0.1 -0.1)">
     <use xlink:href="#DejaVuSans-46"/>
     <use x="57.503906" xlink:href="#DejaVuSans-53"/>
     <use x="120.980469" xlink:href="#DejaVuSans-38"/>
     <use x="184.603516" xlink:href="#DejaVuSans-34"/>
     <use x="248.226562" xlink:href="#DejaVuSans-34"/>
    </g>
   </g>
   <g id="text_27">
    <!-- FS874 -->
    <g transform="translate(73.8367 286.31877)scale(0.1 -0.1)">
     <use xlink:href="#DejaVuSans-46"/>
     <use x="57.503906" xlink:href="#DejaVuSans-53"/>
     <use x="120.980469" xlink:href="#DejaVuSans-38"/>
     <use x="184.603516" xlink:href="#DejaVuSans-37"/>
     <use x="248.226562" xlink:href="#DejaVuSans-34"/>
    </g>
   </g>
   <g id="text_28">
    <!-- FS872 -->
    <g transform="translate(73.833798 295.27328)scale(0.1 -0.1)">
     <use xlink:href="#DejaVuSans-46"/>
     <use x="57.503906" xlink:href="#DejaVuSans-53"/>
     <use x="120.980469" xlink:href="#DejaVuSans-38"/>
     <use x="184.603516" xlink:href="#DejaVuSans-37"/>
     <use x="248.226562" xlink:href="#DejaVuSans-32"/>
    </g>
   </g>
  </g>
 </g>
 <defs>
  <clipPath id="p9bcdd9a357">
   <rect height="266.112" width="357.12" x="57.6" y="41.472"/>
  </clipPath>
 </defs>
</svg>
