<svg width="460" height="345" xmlns="http://www.w3.org/2000/svg" xmlns:xlink="http://www.w3.org/1999/xlink">
 <defs>
  <style type="text/css">*{stroke-linecap:butt;stroke-linejoin:round;}</style>
 </defs>
 <defs>
  <clipPath id="pc34903a9cf">
   <rect id="svg_1" y="42.748591" x="57.17447" width="357.12" height="266.112"/>
  </clipPath>
 </defs>
 <g>
  <title>background</title>
  <rect fill="#ffffff" id="canvas_background" height="347" width="462" y="-1" x="-1"/>
 </g>
 <g>
  <title>Layer 1</title>
  <g fill-opacity="0" id="figure_1">
   <g id="patch_1">
    <path id="svg_2" fill="#ffffff" d="m-30.638194,343.046817l460.8,0l0,-345.6l-460.8,0l0,345.6z"/>
   </g>
   <g id="axes_1">
    <g id="patch_2">
     <path id="svg_3" fill="#ffffff" d="m26.961806,305.030817l357.12,0l0,-266.112l-357.12,0l0,266.112z"/>
    </g>
    <g id="PathCollection_1">
     <defs fill="#ffffff" transform="translate(-0.8510609269142151,0.8510609269142151) translate(-1.276591420173645,-0.8510609269142151) translate(1.276591420173645,1.276591420173645) translate(0.42553046345710754,0.42553046345710754) translate(-30.212663650512695,-4.25530481338501) translate(30.212663650512695,3.8297741413116455) ">
      <path fill="#ffffff" id="C0_0_81282c092c" d="m0,2.23607c0.59301,0 1.16182,-0.23561 1.58114,-0.65493c0.41932,-0.41932 0.65493,-0.98813 0.65493,-1.58114c0,-0.59301 -0.23561,-1.16182 -0.65493,-1.58114c-0.41932,-0.41932 -0.98813,-0.65493 -1.58114,-0.65493c-0.59301,0 -1.16182,0.23561 -1.58114,0.65493c-0.41932,0.41932 -0.65493,0.98813 -0.65493,1.58114c0,0.59301 0.23561,1.16182 0.65493,1.58114c0.41932,0.41932 0.98813,0.65493 1.58114,0.65493z"/>
     </defs>
     <g id="svg_4" clip-path="url(#pc34903a9cf)">
      <use id="svg_5" fill="#ffffff" stroke="#0000ff" y="279.840876" xlink:href="#C0_0_81282c092c" x="81.777137"/>
     </g>
     <g id="svg_6" clip-path="url(#pc34903a9cf)">
      <use id="svg_7" fill="#ffffff" stroke="#0000ff" y="102.166643" xlink:href="#C0_0_81282c092c" x="80.972553"/>
     </g>
     <g id="svg_8" clip-path="url(#pc34903a9cf)">
      <use id="svg_9" fill="#ffffff" stroke="#0000ff" y="98.124687" xlink:href="#C0_0_81282c092c" x="342.080427"/>
     </g>
     <g id="svg_10" clip-path="url(#pc34903a9cf)">
      <use id="svg_11" fill="#ffffff" stroke="#0000ff" y="118.223588" xlink:href="#C0_0_81282c092c" x="218.044202"/>
     </g>
     <g id="svg_12" clip-path="url(#pc34903a9cf)">
      <use id="svg_13" fill="#ffffff" stroke="#0000ff" y="216.273687" xlink:href="#C0_0_81282c092c" x="103.150718"/>
     </g>
     <g id="svg_14" clip-path="url(#pc34903a9cf)">
      <use id="svg_15" fill="#ffffff" stroke="#0000ff" y="206.682254" xlink:href="#C0_0_81282c092c" x="315.092122"/>
     </g>
     <g id="svg_16" clip-path="url(#pc34903a9cf)">
      <use id="svg_17" fill="#ffffff" stroke="#0000ff" y="101.467473" xlink:href="#C0_0_81282c092c" x="358.551252"/>
     </g>
     <g id="svg_18" clip-path="url(#pc34903a9cf)">
      <use id="svg_19" fill="#ffffff" stroke="#0000ff" y="240.980818" xlink:href="#C0_0_81282c092c" x="75.004737"/>
     </g>
     <g id="svg_20" clip-path="url(#pc34903a9cf)">
      <use id="svg_21" fill="#ffffff" stroke="#0000ff" y="261.2532" xlink:href="#C0_0_81282c092c" x="74.237777"/>
     </g>
     <g id="svg_22" clip-path="url(#pc34903a9cf)">
      <use id="svg_23" fill="#ffffff" stroke="#0000ff" y="205.470922" xlink:href="#C0_0_81282c092c" x="74.220412"/>
     </g>
     <g id="svg_24" clip-path="url(#pc34903a9cf)">
      <use id="svg_25" fill="#ffffff" stroke="#0000ff" y="281.269067" xlink:href="#C0_0_81282c092c" x="73.488182"/>
     </g>
     <g id="svg_26" clip-path="url(#pc34903a9cf)">
      <use id="svg_27" fill="#ffffff" stroke="#0000ff" y="246.920483" xlink:href="#C0_0_81282c092c" x="75.074197"/>
     </g>
     <g id="svg_28" clip-path="url(#pc34903a9cf)">
      <use id="svg_29" fill="#ffffff" stroke="#0000ff" y="220.220003" xlink:href="#C0_0_81282c092c" x="74.559032"/>
     </g>
     <g id="svg_30" clip-path="url(#pc34903a9cf)">
      <use id="svg_31" fill="#ffffff" stroke="#0000ff" y="244.543991" xlink:href="#C0_0_81282c092c" x="73.488182"/>
     </g>
     <g id="svg_32" clip-path="url(#pc34903a9cf)">
      <use id="svg_33" fill="#ffffff" stroke="#0000ff" y="119.98864" xlink:href="#C0_0_81282c092c" x="73.473711"/>
     </g>
     <g id="svg_34" clip-path="url(#pc34903a9cf)">
      <use id="svg_35" fill="#ffffff" stroke="#ff0000" y="185.022303" xlink:href="#C0_0_81282c092c" x="114.432437"/>
     </g>
     <g id="svg_36" clip-path="url(#pc34903a9cf)">
      <use id="svg_37" fill="#ffffff" stroke="#ff0000" y="148.118793" xlink:href="#C0_0_81282c092c" x="398.047424"/>
     </g>
     <g id="svg_38" clip-path="url(#pc34903a9cf)">
      <use id="svg_39" fill="#ffffff" stroke="#ff0000" y="149.321239" xlink:href="#C0_0_81282c092c" x="265.343476"/>
     </g>
     <g id="svg_40" clip-path="url(#pc34903a9cf)">
      <use id="svg_41" fill="#ffffff" stroke="#ff0000" y="274.815992" xlink:href="#C0_0_81282c092c" x="119.695807"/>
     </g>
     <g id="svg_42" clip-path="url(#pc34903a9cf)">
      <use id="svg_43" fill="#ffffff" stroke="#ff0000" y="64.216721" xlink:href="#C0_0_81282c092c" x="81.824913"/>
     </g>
     <g id="svg_44" clip-path="url(#pc34903a9cf)">
      <use id="svg_45" fill="#ffffff" stroke="#ff0000" y="243.238479" xlink:href="#C0_0_81282c092c" x="76.838753"/>
     </g>
     <g id="svg_46" clip-path="url(#pc34903a9cf)">
      <use id="svg_47" fill="#ffffff" stroke="#ff0000" y="96.366237" xlink:href="#C0_0_81282c092c" x="183.343623"/>
     </g>
     <g id="svg_48" clip-path="url(#pc34903a9cf)">
      <use id="svg_49" fill="#ffffff" stroke="#ff0000" y="233.642088" xlink:href="#C0_0_81282c092c" x="85.450387"/>
     </g>
     <g id="svg_50" clip-path="url(#pc34903a9cf)">
      <use id="svg_51" fill="#ffffff" stroke="#ff0000" y="222.379009" xlink:href="#C0_0_81282c092c" x="74.738841"/>
     </g>
     <g id="svg_52" clip-path="url(#pc34903a9cf)">
      <use id="svg_53" fill="#ffffff" stroke="#ff0000" y="138.71847" xlink:href="#C0_0_81282c092c" x="73.823866"/>
     </g>
     <g id="svg_54" clip-path="url(#pc34903a9cf)">
      <use id="svg_55" fill="#ffffff" stroke="#ff0000" y="221.772072" xlink:href="#C0_0_81282c092c" x="74.570341"/>
     </g>
     <g id="svg_56" clip-path="url(#pc34903a9cf)">
      <use id="svg_57" fill="#ffffff" stroke="#ff0000" y="198.30499" xlink:href="#C0_0_81282c092c" x="74.211598"/>
     </g>
     <g id="svg_58" clip-path="url(#pc34903a9cf)">
      <use id="svg_59" fill="#ffffff" stroke="#ff0000" y="195.289614" xlink:href="#C0_0_81282c092c" x="73.983307"/>
     </g>
     <g id="svg_60" clip-path="url(#pc34903a9cf)">
      <use id="svg_61" fill="#ffffff" stroke="#ff0000" y="288.66158" xlink:href="#C0_0_81282c092c" x="73.568398"/>
     </g>
     <g id="svg_62" clip-path="url(#pc34903a9cf)">
      <use id="svg_63" fill="#ffffff" stroke="#ff0000" y="149.147418" xlink:href="#C0_0_81282c092c" x="73.539409"/>
     </g>
     <g id="svg_64" clip-path="url(#pc34903a9cf)">
      <use id="svg_65" fill="#ffffff" stroke="#bfbf00" y="157.607045" xlink:href="#C0_0_81282c092c" x="146.751565"/>
     </g>
     <g id="svg_66" clip-path="url(#pc34903a9cf)">
      <use id="svg_67" fill="#ffffff" stroke="#bfbf00" y="115.763674" xlink:href="#C0_0_81282c092c" x="266.492263"/>
     </g>
     <g id="svg_68" clip-path="url(#pc34903a9cf)">
      <use id="svg_69" fill="#ffffff" stroke="#bfbf00" y="278.801267" xlink:href="#C0_0_81282c092c" x="109.458473"/>
     </g>
     <g id="svg_70" clip-path="url(#pc34903a9cf)">
      <use id="svg_71" fill="#ffffff" stroke="#bfbf00" y="154.195548" xlink:href="#C0_0_81282c092c" x="299.955037"/>
     </g>
     <g id="svg_72" clip-path="url(#pc34903a9cf)">
      <use id="svg_73" fill="#ffffff" stroke="#bfbf00" y="253.204596" xlink:href="#C0_0_81282c092c" x="75.359372"/>
     </g>
     <g id="svg_74" clip-path="url(#pc34903a9cf)">
      <use id="svg_75" fill="#ffffff" stroke="#bfbf00" y="57.62307" xlink:href="#C0_0_81282c092c" x="117.08822"/>
     </g>
     <g id="svg_76" clip-path="url(#pc34903a9cf)">
      <use id="svg_77" fill="#ffffff" stroke="#bfbf00" y="184.111069" xlink:href="#C0_0_81282c092c" x="143.131297"/>
     </g>
     <g id="svg_78" clip-path="url(#pc34903a9cf)">
      <use id="svg_79" fill="#ffffff" stroke="#bfbf00" y="214.464247" xlink:href="#C0_0_81282c092c" x="74.522262"/>
     </g>
     <g id="svg_80" clip-path="url(#pc34903a9cf)">
      <use id="svg_81" fill="#ffffff" stroke="#bfbf00" y="273.443323" xlink:href="#C0_0_81282c092c" x="79.112466"/>
     </g>
     <g id="svg_82" clip-path="url(#pc34903a9cf)">
      <use id="svg_83" fill="#ffffff" stroke="#bfbf00" y="119.452365" xlink:href="#C0_0_81282c092c" x="297.653756"/>
     </g>
     <g id="svg_84" clip-path="url(#pc34903a9cf)">
      <use id="svg_85" fill="#ffffff" stroke="#bfbf00" y="170.671752" xlink:href="#C0_0_81282c092c" x="74.312212"/>
     </g>
     <g id="svg_86" clip-path="url(#pc34903a9cf)">
      <use id="svg_87" fill="#ffffff" stroke="#bfbf00" y="259.188333" xlink:href="#C0_0_81282c092c" x="75.680624"/>
     </g>
     <g id="svg_88" clip-path="url(#pc34903a9cf)">
      <use id="svg_89" fill="#ffffff" stroke="#bfbf00" y="286.797908" xlink:href="#C0_0_81282c092c" x="73.459658"/>
     </g>
     <g id="svg_90" clip-path="url(#pc34903a9cf)">
      <use id="svg_91" fill="#ffffff" stroke="#bfbf00" y="65.488767" xlink:href="#C0_0_81282c092c" x="73.505992"/>
     </g>
     <g id="svg_92" clip-path="url(#pc34903a9cf)">
      <use id="svg_93" fill="#ffffff" stroke="#008000" y="157.351676" xlink:href="#C0_0_81282c092c" x="188.023573"/>
     </g>
     <g id="svg_94" clip-path="url(#pc34903a9cf)">
      <use id="svg_95" fill="#ffffff" stroke="#008000" y="144.808371" xlink:href="#C0_0_81282c092c" x="144.185832"/>
     </g>
     <g id="svg_96" clip-path="url(#pc34903a9cf)">
      <use id="svg_97" fill="#ffffff" stroke="#008000" y="213.255962" xlink:href="#C0_0_81282c092c" x="80.552682"/>
     </g>
     <g id="svg_98" clip-path="url(#pc34903a9cf)">
      <use id="svg_99" fill="#ffffff" stroke="#008000" y="272.723261" xlink:href="#C0_0_81282c092c" x="86.567052"/>
     </g>
     <g id="svg_100" clip-path="url(#pc34903a9cf)">
      <use id="svg_101" fill="#ffffff" stroke="#008000" y="103.643381" xlink:href="#C0_0_81282c092c" x="116.805549"/>
     </g>
     <g id="svg_102" clip-path="url(#pc34903a9cf)">
      <use id="svg_103" fill="#ffffff" stroke="#008000" y="77.240656" xlink:href="#C0_0_81282c092c" x="78.456994"/>
     </g>
     <g id="svg_104" clip-path="url(#pc34903a9cf)">
      <use id="svg_105" fill="#ffffff" stroke="#008000" y="176.725938" xlink:href="#C0_0_81282c092c" x="100.070349"/>
     </g>
     <g id="svg_106" clip-path="url(#pc34903a9cf)">
      <use id="svg_107" fill="#ffffff" stroke="#008000" y="253.546221" xlink:href="#C0_0_81282c092c" x="74.412065"/>
     </g>
     <g id="svg_108" clip-path="url(#pc34903a9cf)">
      <use id="svg_109" fill="#ffffff" stroke="#008000" y="201.666959" xlink:href="#C0_0_81282c092c" x="73.972728"/>
     </g>
     <g id="svg_110" clip-path="url(#pc34903a9cf)">
      <use id="svg_111" fill="#ffffff" stroke="#008000" y="226.413814" xlink:href="#C0_0_81282c092c" x="74.427215"/>
     </g>
     <g id="svg_112" clip-path="url(#pc34903a9cf)">
      <use id="svg_113" fill="#ffffff" stroke="#008000" y="209.982568" xlink:href="#C0_0_81282c092c" x="73.795983"/>
     </g>
     <g id="svg_114" clip-path="url(#pc34903a9cf)">
      <use id="svg_115" fill="#ffffff" stroke="#008000" y="196.949273" xlink:href="#C0_0_81282c092c" x="74.533261"/>
     </g>
     <g id="svg_116" clip-path="url(#pc34903a9cf)">
      <use fill="#ffffff" id="svg_117" stroke="#000000" y="66.158943" xlink:href="#C0_0_81282c092c" x="81.204892"/>
     </g>
     <g id="svg_118" clip-path="url(#pc34903a9cf)">
      <use fill="#ffffff" id="svg_119" stroke="#000000" y="97.990423" xlink:href="#C0_0_81282c092c" x="179.434081"/>
     </g>
     <g id="svg_120" clip-path="url(#pc34903a9cf)">
      <use fill="#ffffff" id="svg_121" stroke="#000000" y="158.965554" xlink:href="#C0_0_81282c092c" x="394.778929"/>
     </g>
     <g id="svg_122" clip-path="url(#pc34903a9cf)">
      <use fill="#ffffff" id="svg_123" stroke="#000000" y="142.231685" xlink:href="#C0_0_81282c092c" x="268.948649"/>
     </g>
     <g id="svg_124" clip-path="url(#pc34903a9cf)">
      <use fill="#ffffff" id="svg_125" stroke="#000000" y="253.435903" xlink:href="#C0_0_81282c092c" x="84.676944"/>
     </g>
     <g id="svg_126" clip-path="url(#pc34903a9cf)">
      <use fill="#ffffff" id="svg_127" stroke="#000000" y="274.994988" xlink:href="#C0_0_81282c092c" x="119.190524"/>
     </g>
     <g id="svg_128" clip-path="url(#pc34903a9cf)">
      <use fill="#ffffff" id="svg_129" stroke="#000000" y="183.551019" xlink:href="#C0_0_81282c092c" x="111.545111"/>
     </g>
     <g id="svg_130" clip-path="url(#pc34903a9cf)">
      <use fill="#ffffff" id="svg_131" stroke="#000000" y="264.704556" xlink:href="#C0_0_81282c092c" x="76.054298"/>
     </g>
     <g id="svg_132" clip-path="url(#pc34903a9cf)">
      <use fill="#ffffff" id="svg_133" stroke="#000000" y="243.709716" xlink:href="#C0_0_81282c092c" x="73.585346"/>
     </g>
     <g id="svg_134" clip-path="url(#pc34903a9cf)">
      <use fill="#ffffff" id="svg_135" stroke="#000000" y="265.204701" xlink:href="#C0_0_81282c092c" x="73.895762"/>
     </g>
     <g id="svg_136" clip-path="url(#pc34903a9cf)">
      <use fill="#ffffff" id="svg_137" stroke="#000000" y="242.013547" xlink:href="#C0_0_81282c092c" x="73.789416"/>
     </g>
     <g id="svg_138" clip-path="url(#pc34903a9cf)">
      <use fill="#ffffff" id="svg_139" stroke="#000000" y="159.742562" xlink:href="#C0_0_81282c092c" x="73.55373"/>
     </g>
     <g id="svg_140" clip-path="url(#pc34903a9cf)">
      <use fill="#ffffff" id="svg_141" stroke="#000000" y="285.410514" xlink:href="#C0_0_81282c092c" x="73.42439"/>
     </g>
     <g id="svg_142" clip-path="url(#pc34903a9cf)">
      <use fill="#ffffff" id="svg_143" stroke="#000000" y="293.986112" xlink:href="#C0_0_81282c092c" x="73.421516"/>
     </g>
    </g>
    <g id="matplotlib.axis_1">
     <g id="xtick_1">
      <g id="line2d_1">
       <defs fill="#ffffff" transform="translate(-0.8510609269142151,0.8510609269142151) translate(-1.276591420173645,-0.8510609269142151) translate(1.276591420173645,1.276591420173645) translate(0.42553046345710754,0.42553046345710754) translate(-30.212663650512695,-4.25530481338501) translate(30.212663650512695,3.8297741413116455) ">
        <path fill="#ffffff" stroke="#000000" stroke-width="0.8" id="m06d2b2168d" d="m0,0l0,3.5"/>
       </defs>
       <g id="svg_144">
        <use fill="#ffffff" id="svg_145" stroke="#000000" stroke-width="0.8" y="308.860591" xlink:href="#m06d2b2168d" x="73.407145"/>
       </g>
      </g>
      <g id="text_1">
       <!-- 0 -->
       <defs fill="#ffffff" transform="translate(-0.8510609269142151,0.8510609269142151) translate(-1.276591420173645,-0.8510609269142151) translate(1.276591420173645,1.276591420173645) translate(0.42553046345710754,0.42553046345710754) translate(-30.212663650512695,-4.25530481338501) translate(30.212663650512695,3.8297741413116455) ">
        <path fill="#ffffff" id="DejaVuSans-30" d="m31.78125,66.40625q-7.60937,0 -11.45312,-7.5q-3.82813,-7.48437 -3.82813,-22.53125q0,-14.98437 3.82813,-22.48437q3.84375,-7.5 11.45312,-7.5q7.67188,0 11.5,7.5q3.84375,7.5 3.84375,22.48437q0,15.04688 -3.84375,22.53125q-3.82812,7.5 -11.5,7.5zm0,7.8125q12.26563,0 18.73438,-9.70312q6.46875,-9.6875 6.46875,-28.14063q0,-18.40625 -6.46875,-28.10937q-6.46875,-9.68751 -18.73438,-9.68751q-12.25,0 -18.71875,9.68751q-6.46875,9.70312 -6.46875,28.10937q0,18.45313 6.46875,28.14063q6.46875,9.70312 18.71875,9.70312z"/>
       </defs>
       <g id="svg_146" transform="translate(70.65142822265625,322.18243408203125) scale(0.10000000149011612,-0.10000000149011612) ">
        <use fill="#ffffff" x="-4.255304" y="-12.765912" id="svg_147" xlink:href="#DejaVuSans-30"/>
       </g>
      </g>
     </g>
     <g id="xtick_2">
      <g id="line2d_2">
       <g id="svg_148">
        <use fill="#ffffff" id="svg_149" stroke="#000000" stroke-width="0.8" y="308.860591" xlink:href="#m06d2b2168d" x="136.930814"/>
       </g>
      </g>
      <g id="text_2">
       <!-- 20 -->
       <defs fill="#ffffff" transform="translate(-0.8510609269142151,0.8510609269142151) translate(-1.276591420173645,-0.8510609269142151) translate(1.276591420173645,1.276591420173645) translate(0.42553046345710754,0.42553046345710754) translate(-30.212663650512695,-4.25530481338501) translate(30.212663650512695,3.8297741413116455) ">
        <path fill="#ffffff" id="DejaVuSans-32" d="m19.1875,8.29688l34.42188,0l0,-8.29688l-46.28125,0l0,8.29688q5.60937,5.8125 15.29687,15.59375q9.70313,9.79687 12.1875,12.64062q4.73438,5.3125 6.60938,9q1.89062,3.6875 1.89062,7.25q0,5.8125 -4.07812,9.46875q-4.07813,3.67188 -10.625,3.67188q-4.64063,0 -9.79688,-1.60938q-5.14062,-1.60937 -11,-4.89062l0,9.96875q5.95313,2.39062 11.125,3.60937q5.1875,1.21875 9.48438,1.21875q11.32812,0 18.0625,-5.67187q6.73437,-5.65625 6.73437,-15.125q0,-4.5 -1.6875,-8.53125q-1.67187,-4.01563 -6.125,-9.48438q-1.21875,-1.42187 -7.76562,-8.1875q-6.53125,-6.76562 -18.45313,-18.92187z"/>
       </defs>
       <g id="svg_150" transform="translate(130.9938507080078,322.18243408203125) scale(0.10000000149011612,-0.10000000149011612) ">
        <use fill="#ffffff" x="-4.255304" y="-12.765912" id="svg_151" xlink:href="#DejaVuSans-32"/>
        <use fill="#ffffff" y="-12.765912" id="svg_152" xlink:href="#DejaVuSans-30" x="59.367743"/>
       </g>
      </g>
     </g>
     <g id="xtick_3">
      <g id="line2d_3">
       <g id="svg_153">
        <use fill="#ffffff" id="svg_154" stroke="#000000" stroke-width="0.8" y="308.860591" xlink:href="#m06d2b2168d" x="200.454483"/>
       </g>
      </g>
      <g id="text_3">
       <!-- 40 -->
       <defs fill="#ffffff" transform="translate(-0.8510609269142151,0.8510609269142151) translate(-1.276591420173645,-0.8510609269142151) translate(1.276591420173645,1.276591420173645) translate(0.42553046345710754,0.42553046345710754) translate(-30.212663650512695,-4.25530481338501) translate(30.212663650512695,3.8297741413116455) ">
        <path fill="#ffffff" id="DejaVuSans-34" d="m37.79688,64.3125l-24.90625,-38.92187l24.90625,0l0,38.92187zm-2.59375,8.59375l12.40625,0l0,-47.51562l10.40625,0l0,-8.20313l-10.40625,0l0,-17.1875l-9.8125,0l0,17.1875l-32.90625,0l0,9.51563l30.3125,46.20312z"/>
       </defs>
       <g id="svg_155" transform="translate(194.51751708984375,322.18243408203125) scale(0.10000000149011612,-0.10000000149011612) ">
        <use fill="#ffffff" x="-4.255304" y="-12.765912" id="svg_156" xlink:href="#DejaVuSans-34"/>
        <use fill="#ffffff" y="-12.765912" id="svg_157" xlink:href="#DejaVuSans-30" x="59.367743"/>
       </g>
      </g>
     </g>
     <g id="xtick_4">
      <g id="line2d_4">
       <g id="svg_158">
        <use fill="#ffffff" id="svg_159" stroke="#000000" stroke-width="0.8" y="308.860591" xlink:href="#m06d2b2168d" x="263.978153"/>
       </g>
      </g>
      <g id="text_4">
       <!-- 60 -->
       <defs fill="#ffffff" transform="translate(-0.8510609269142151,0.8510609269142151) translate(-1.276591420173645,-0.8510609269142151) translate(1.276591420173645,1.276591420173645) translate(0.42553046345710754,0.42553046345710754) translate(-30.212663650512695,-4.25530481338501) translate(30.212663650512695,3.8297741413116455) ">
        <path fill="#ffffff" id="DejaVuSans-36" d="m33.01563,40.375q-6.64063,0 -10.53125,-4.54687q-3.875,-4.53125 -3.875,-12.4375q0,-7.85938 3.875,-12.4375q3.89062,-4.5625 10.53125,-4.5625q6.64062,0 10.51562,4.5625q3.875,4.57812 3.875,12.4375q0,7.90625 -3.875,12.4375q-3.875,4.54687 -10.51562,4.54687zm19.57812,30.92188l0,-8.98438q-3.71875,1.75 -7.5,2.67188q-3.78125,0.9375 -7.5,0.9375q-9.76562,0 -14.92187,-6.59375q-5.14063,-6.59375 -5.875,-19.92188q2.875,4.25 7.21875,6.51563q4.35937,2.26562 9.57812,2.26562q10.98438,0 17.35938,-6.67187q6.375,-6.65625 6.375,-18.125q0,-11.23438 -6.64063,-18.03125q-6.64062,-6.78126 -17.67187,-6.78126q-12.65625,0 -19.34375,9.68751q-6.6875,9.70312 -6.6875,28.10937q0,17.28125 8.20312,27.5625q8.20313,10.28125 22.01563,10.28125q3.71875,0 7.5,-0.73437q3.78125,-0.73438 7.89062,-2.1875z"/>
       </defs>
       <g id="svg_160" transform="translate(258.0411682128906,322.18243408203125) scale(0.10000000149011612,-0.10000000149011612) ">
        <use fill="#ffffff" x="-4.255304" y="-12.765912" id="svg_161" xlink:href="#DejaVuSans-36"/>
        <use fill="#ffffff" y="-12.765912" id="svg_162" xlink:href="#DejaVuSans-30" x="59.367743"/>
       </g>
      </g>
     </g>
     <g id="xtick_5">
      <g id="line2d_5">
       <g id="svg_163">
        <use fill="#ffffff" id="svg_164" stroke="#000000" stroke-width="0.8" y="308.860591" xlink:href="#m06d2b2168d" x="327.501822"/>
       </g>
      </g>
      <g id="text_5">
       <!-- 80 -->
       <defs fill="#ffffff" transform="translate(-0.8510609269142151,0.8510609269142151) translate(-1.276591420173645,-0.8510609269142151) translate(1.276591420173645,1.276591420173645) translate(0.42553046345710754,0.42553046345710754) translate(-30.212663650512695,-4.25530481338501) translate(30.212663650512695,3.8297741413116455) ">
        <path fill="#ffffff" id="DejaVuSans-38" d="m31.78125,34.625q-7.03125,0 -11.0625,-3.76562q-4.01562,-3.76563 -4.01562,-10.34375q0,-6.59375 4.01562,-10.35938q4.03125,-3.76562 11.0625,-3.76562q7.03125,0 11.07813,3.78125q4.0625,3.79687 4.0625,10.34375q0,6.57812 -4.03125,10.34375q-4.01563,3.76562 -11.10938,3.76562zm-9.85937,4.1875q-6.34375,1.5625 -9.89063,5.90625q-3.53125,4.35938 -3.53125,10.60938q0,8.73437 6.21875,13.8125q6.23438,5.07812 17.0625,5.07812q10.89063,0 17.09375,-5.07812q6.20313,-5.07813 6.20313,-13.8125q0,-6.25 -3.54688,-10.60938q-3.53125,-4.34375 -9.82812,-5.90625q7.125,-1.65625 11.09375,-6.5q3.98437,-4.82812 3.98437,-11.79687q0,-10.60938 -6.46875,-16.28125q-6.46875,-5.65626 -18.53125,-5.65626q-12.04687,0 -18.53125,5.65626q-6.46875,5.67187 -6.46875,16.28125q0,6.96875 4,11.79687q4.01563,4.84375 11.14063,6.5zm-3.60938,15.57813q0,-5.65625 3.53125,-8.82813q3.54688,-3.17187 9.9375,-3.17187q6.35938,0 9.9375,3.17187q3.59375,3.17188 3.59375,8.82813q0,5.67187 -3.59375,8.84375q-3.57812,3.17187 -9.9375,3.17187q-6.39062,0 -9.9375,-3.17187q-3.53125,-3.17188 -3.53125,-8.84375z"/>
       </defs>
       <g id="svg_165" transform="translate(321.5648498535156,322.18243408203125) scale(0.10000000149011612,-0.10000000149011612) ">
        <use fill="#ffffff" x="-4.255304" y="-12.765912" id="svg_166" xlink:href="#DejaVuSans-38"/>
        <use fill="#ffffff" y="-12.765912" id="svg_167" xlink:href="#DejaVuSans-30" x="59.367743"/>
       </g>
      </g>
     </g>
     <g id="xtick_6">
      <g id="line2d_6">
       <g id="svg_168">
        <use fill="#ffffff" id="svg_169" stroke="#000000" stroke-width="0.8" y="308.860591" xlink:href="#m06d2b2168d" x="391.025491"/>
       </g>
      </g>
      <g id="text_6">
       <!-- 100 -->
       <defs fill="#ffffff" transform="translate(-0.8510609269142151,0.8510609269142151) translate(-1.276591420173645,-0.8510609269142151) translate(1.276591420173645,1.276591420173645) translate(0.42553046345710754,0.42553046345710754) translate(-30.212663650512695,-4.25530481338501) translate(30.212663650512695,3.8297741413116455) ">
        <path fill="#ffffff" id="DejaVuSans-31" d="m12.40625,8.29688l16.10938,0l0,55.625l-17.53125,-3.51563l0,8.98438l17.4375,3.51562l9.85937,0l0,-64.60937l16.10938,0l0,-8.29688l-41.98438,0l0,8.29688z"/>
       </defs>
       <g id="svg_170" transform="translate(381.9072570800781,322.18243408203125) scale(0.10000000149011612,-0.10000000149011612) ">
        <use fill="#ffffff" x="-4.255304" y="-12.765912" id="svg_171" xlink:href="#DejaVuSans-31"/>
        <use fill="#ffffff" y="-12.765912" id="svg_172" xlink:href="#DejaVuSans-30" x="59.367743"/>
        <use fill="#ffffff" y="-12.765912" id="svg_173" xlink:href="#DejaVuSans-30" x="122.99079"/>
       </g>
      </g>
     </g>
     <g id="text_7">
      <!-- SNVs -->
      <defs fill="#ffffff" transform="translate(-0.8510609269142151,0.8510609269142151) translate(-1.276591420173645,-0.8510609269142151) translate(1.276591420173645,1.276591420173645) translate(0.42553046345710754,0.42553046345710754) translate(-30.212663650512695,-4.25530481338501) translate(30.212663650512695,3.8297741413116455) ">
       <path fill="#ffffff" id="DejaVuSans-53" d="m53.51563,70.51563l0,-9.625q-5.60938,2.6875 -10.59375,4q-4.98438,1.32812 -9.625,1.32812q-8.04688,0 -12.42188,-3.125q-4.375,-3.125 -4.375,-8.89062q0,-4.84375 2.90625,-7.3125q2.90625,-2.45313 11.01563,-3.96875l5.95312,-1.21875q11.03125,-2.10938 16.28125,-7.40625q5.25,-5.29688 5.25,-14.17188q0,-10.60937 -7.10937,-16.07812q-7.09375,-5.46876 -20.8125,-5.46876q-5.17188,0 -11.01563,1.17188q-5.82812,1.17188 -12.07812,3.46875l0,10.15625q6,-3.35937 11.76562,-5.07812q5.76563,-1.70313 11.32813,-1.70313q8.4375,0 13.03125,3.3125q4.59375,3.32813 4.59375,9.48438q0,5.35937 -3.29688,8.39062q-3.29687,3.03125 -10.8125,4.54688l-6.01562,1.17187q-11.03125,2.1875 -15.96875,6.875q-4.92188,4.6875 -4.92188,13.04688q0,9.67187 6.8125,15.23437q6.8125,5.5625 18.76563,5.5625q5.14062,0 10.45312,-0.9375q5.32813,-0.92187 10.89063,-2.76562z"/>
       <path fill="#ffffff" id="DejaVuSans-4e" d="m9.8125,72.90625l13.28125,0l32.32813,-60.98437l0,60.98437l9.5625,0l0,-72.90625l-13.28125,0l-32.3125,60.98438l0,-60.98438l-9.57813,0l0,72.90625z"/>
       <path fill="#ffffff" id="DejaVuSans-56" d="m28.60938,0l-27.82813,72.90625l10.29688,0l23.10937,-61.375l23.14063,61.375l10.25,0l-27.78125,-72.90625l-11.1875,0z"/>
       <path fill="#ffffff" id="DejaVuSans-73" d="m44.28125,53.07813l0,-8.5q-3.79687,1.95312 -7.90625,2.92187q-4.09375,0.98438 -8.5,0.98438q-6.6875,0 -10.03125,-2.04688q-3.34375,-2.04687 -3.34375,-6.15625q0,-3.125 2.39063,-4.90625q2.39062,-1.78125 9.625,-3.39062l3.07812,-0.6875q9.5625,-2.04688 13.59375,-5.78125q4.03125,-3.73438 4.03125,-10.42188q0,-7.625 -6.03125,-12.07812q-6.03125,-4.43751 -16.57812,-4.43751q-4.39063,0 -9.15625,0.85938q-4.76563,0.85938 -10.03125,2.5625l0,9.28125q4.98437,-2.59375 9.8125,-3.89062q4.82812,-1.28125 9.57812,-1.28125q6.34375,0 9.75,2.17187q3.42188,2.17188 3.42188,6.125q0,3.65625 -2.46875,5.60938q-2.45313,1.95312 -10.8125,3.76562l-3.125,0.73438q-8.34375,1.75 -12.0625,5.39062q-3.70313,3.64063 -3.70313,9.98438q0,7.71875 5.46875,11.90625q5.46875,4.20312 15.53125,4.20312q4.96875,0 9.35938,-0.73437q4.40625,-0.71875 8.10937,-2.1875z"/>
      </defs>
      <g id="svg_174" transform="translate(223.22015380859375,335.8605651855469) scale(0.10000000149011612,-0.10000000149011612) ">
       <use fill="#ffffff" x="-4.255304" y="-12.765912" id="svg_175" xlink:href="#DejaVuSans-53"/>
       <use fill="#ffffff" y="-12.765912" id="svg_176" xlink:href="#DejaVuSans-4e" x="59.221258"/>
       <use fill="#ffffff" y="-12.765912" id="svg_177" xlink:href="#DejaVuSans-56" x="134.025946"/>
       <use fill="#ffffff" y="-12.765912" id="svg_178" xlink:href="#DejaVuSans-73" x="202.434149"/>
      </g>
     </g>
    </g>
    <g id="matplotlib.axis_2">
     <g id="ytick_1">
      <g id="line2d_7">
       <defs fill="#ffffff" transform="translate(-0.8510609269142151,0.8510609269142151) translate(-1.276591420173645,-0.8510609269142151) translate(1.276591420173645,1.276591420173645) translate(0.42553046345710754,0.42553046345710754) translate(-30.212663650512695,-4.25530481338501) translate(30.212663650512695,3.8297741413116455) ">
        <path fill="#ffffff" stroke="#000000" stroke-width="0.8" id="m578df05b11" d="m0,0l-3.5,0"/>
       </defs>
       <g id="svg_179">
        <use fill="#ffffff" id="svg_180" stroke="#000000" stroke-width="0.8" y="293.986112" xlink:href="#m578df05b11" x="57.17447"/>
       </g>
      </g>
      <g id="text_8">
       <!-- 0.0 -->
       <defs fill="#ffffff" transform="translate(-0.8510609269142151,0.8510609269142151) translate(-1.276591420173645,-0.8510609269142151) translate(1.276591420173645,1.276591420173645) translate(0.42553046345710754,0.42553046345710754) translate(-30.212663650512695,-4.25530481338501) translate(30.212663650512695,3.8297741413116455) ">
        <path fill="#ffffff" id="DejaVuSans-2e" d="m10.6875,12.40625l10.3125,0l0,-12.40625l-10.3125,0l0,12.40625z"/>
       </defs>
       <g id="svg_181" transform="translate(34.696876525878906,296.50872802734375) scale(0.10000000149011612,-0.10000000149011612) ">
        <use fill="#ffffff" x="-4.255304" y="-12.765912" id="svg_182" xlink:href="#DejaVuSans-30"/>
        <use fill="#ffffff" y="-12.765912" id="svg_183" xlink:href="#DejaVuSans-2e" x="59.367743"/>
        <use fill="#ffffff" y="-12.765912" id="svg_184" xlink:href="#DejaVuSans-30" x="91.154852"/>
       </g>
      </g>
     </g>
     <g id="ytick_2">
      <g id="line2d_8">
       <g id="svg_185">
        <use fill="#ffffff" id="svg_186" stroke="#000000" stroke-width="0.8" y="248.060594" xlink:href="#m578df05b11" x="57.17447"/>
       </g>
      </g>
      <g id="text_9">
       <!-- 0.1 -->
       <g id="svg_187" transform="translate(34.696876525878906,250.58322143554688) scale(0.10000000149011612,-0.10000000149011612) ">
        <use fill="#ffffff" x="-4.255304" y="-12.765912" id="svg_188" xlink:href="#DejaVuSans-30"/>
        <use fill="#ffffff" y="-12.765912" id="svg_189" xlink:href="#DejaVuSans-2e" x="59.367743"/>
        <use fill="#ffffff" y="-12.765912" id="svg_190" xlink:href="#DejaVuSans-31" x="91.154852"/>
       </g>
      </g>
     </g>
     <g id="ytick_3">
      <g id="line2d_9">
       <g id="svg_191">
        <use fill="#ffffff" id="svg_192" stroke="#000000" stroke-width="0.8" y="202.135076" xlink:href="#m578df05b11" x="57.17447"/>
       </g>
      </g>
      <g id="text_10">
       <!-- 0.2 -->
       <g id="svg_193" transform="translate(34.696876525878906,204.65769958496094) scale(0.10000000149011612,-0.10000000149011612) ">
        <use fill="#ffffff" x="-4.255304" y="-12.765912" id="svg_194" xlink:href="#DejaVuSans-30"/>
        <use fill="#ffffff" y="-12.765912" id="svg_195" xlink:href="#DejaVuSans-2e" x="59.367743"/>
        <use fill="#ffffff" y="-12.765912" id="svg_196" xlink:href="#DejaVuSans-32" x="91.154852"/>
       </g>
      </g>
     </g>
     <g id="ytick_4">
      <g id="line2d_10">
       <g id="svg_197">
        <use fill="#ffffff" id="svg_198" stroke="#000000" stroke-width="0.8" y="156.209558" xlink:href="#m578df05b11" x="57.17447"/>
       </g>
      </g>
      <g id="text_11">
       <!-- 0.3 -->
       <defs fill="#ffffff" transform="translate(-0.8510609269142151,0.8510609269142151) translate(-1.276591420173645,-0.8510609269142151) translate(1.276591420173645,1.276591420173645) translate(0.42553046345710754,0.42553046345710754) translate(-30.212663650512695,-4.25530481338501) translate(30.212663650512695,3.8297741413116455) ">
        <path fill="#ffffff" id="DejaVuSans-33" d="m40.57813,39.3125q7.07812,-1.51562 11.04687,-6.3125q3.98438,-4.78125 3.98438,-11.8125q0,-10.78125 -7.42188,-16.70312q-7.42187,-5.90626 -21.09375,-5.90626q-4.57812,0 -9.4375,0.90625q-4.85937,0.90626 -10.03125,2.71876l0,9.51562q4.09375,-2.39062 8.96875,-3.60937q4.89063,-1.21875 10.21875,-1.21875q9.26563,0 14.125,3.65625q4.85938,3.65625 4.85938,10.64062q0,6.45313 -4.51563,10.07813q-4.51562,3.64062 -12.5625,3.64062l-8.5,0l0,8.10938l8.89063,0q7.26562,0 11.125,2.90625q3.85937,2.90625 3.85937,8.375q0,5.60937 -3.98437,8.60937q-3.96875,3.01563 -11.39063,3.01563q-4.0625,0 -8.70312,-0.89063q-4.64063,-0.875 -10.20313,-2.71875l0,8.78125q5.625,1.5625 10.53125,2.34375q4.90625,0.78125 9.25,0.78125q11.23438,0 17.76563,-5.10937q6.54687,-5.09375 6.54687,-13.78125q0,-6.0625 -3.46875,-10.23438q-3.46875,-4.17187 -9.85937,-5.78125z"/>
       </defs>
       <g id="svg_199" transform="translate(34.696876525878906,158.73219299316406) scale(0.10000000149011612,-0.10000000149011612) ">
        <use fill="#ffffff" x="-4.255304" y="-12.765912" id="svg_200" xlink:href="#DejaVuSans-30"/>
        <use fill="#ffffff" y="-12.765912" id="svg_201" xlink:href="#DejaVuSans-2e" x="59.367743"/>
        <use fill="#ffffff" y="-12.765912" id="svg_202" xlink:href="#DejaVuSans-33" x="91.154852"/>
       </g>
      </g>
     </g>
     <g id="ytick_5">
      <g id="line2d_11">
       <g id="svg_203">
        <use fill="#ffffff" id="svg_204" stroke="#000000" stroke-width="0.8" y="110.28404" xlink:href="#m578df05b11" x="57.17447"/>
       </g>
      </g>
      <g id="text_12">
       <!-- 0.4 -->
       <g id="svg_205" transform="translate(34.696876525878906,112.80667114257812) scale(0.10000000149011612,-0.10000000149011612) ">
        <use fill="#ffffff" x="-4.255304" y="-12.765912" id="svg_206" xlink:href="#DejaVuSans-30"/>
        <use fill="#ffffff" y="-12.765912" id="svg_207" xlink:href="#DejaVuSans-2e" x="59.367743"/>
        <use fill="#ffffff" y="-12.765912" id="svg_208" xlink:href="#DejaVuSans-34" x="91.154852"/>
       </g>
      </g>
     </g>
     <g id="ytick_6">
      <g id="line2d_12">
       <g id="svg_209">
        <use fill="#ffffff" id="svg_210" stroke="#000000" stroke-width="0.8" y="64.358522" xlink:href="#m578df05b11" x="57.17447"/>
       </g>
      </g>
      <g id="text_13">
       <!-- 0.5 -->
       <defs fill="#ffffff" transform="translate(-0.8510609269142151,0.8510609269142151) translate(-1.276591420173645,-0.8510609269142151) translate(1.276591420173645,1.276591420173645) translate(0.42553046345710754,0.42553046345710754) translate(-30.212663650512695,-4.25530481338501) translate(30.212663650512695,3.8297741413116455) ">
        <path fill="#ffffff" id="DejaVuSans-35" d="m10.79688,72.90625l38.71875,0l0,-8.3125l-29.6875,0l0,-17.85937q2.14062,0.73437 4.28125,1.09375q2.15625,0.35937 4.3125,0.35937q12.20312,0 19.32812,-6.6875q7.14063,-6.6875 7.14063,-18.10937q0,-11.76563 -7.32813,-18.29688q-7.32812,-6.51563 -20.65625,-6.51563q-4.59375,0 -9.35937,0.78125q-4.75,0.78126 -9.82813,2.34375l0,9.92188q4.39063,-2.39062 9.07813,-3.5625q4.6875,-1.17187 9.90625,-1.17187q8.45312,0 13.375,4.4375q4.9375,4.4375 4.9375,12.0625q0,7.60937 -4.9375,12.04687q-4.92188,4.45313 -13.375,4.45313q-3.95313,0 -7.89063,-0.875q-3.92187,-0.875 -8.01562,-2.73438l0,36.625z"/>
       </defs>
       <g id="svg_211" transform="translate(34.696876525878906,66.88114929199219) scale(0.10000000149011612,-0.10000000149011612) ">
        <use fill="#ffffff" x="-4.255304" y="-12.765912" id="svg_212" xlink:href="#DejaVuSans-30"/>
        <use fill="#ffffff" y="-12.765912" id="svg_213" xlink:href="#DejaVuSans-2e" x="59.367743"/>
        <use fill="#ffffff" y="-12.765912" id="svg_214" xlink:href="#DejaVuSans-35" x="91.154852"/>
       </g>
      </g>
     </g>
     <g id="text_14">
      <!-- n2n1 -->
      <defs fill="#ffffff" transform="translate(-0.8510609269142151,0.8510609269142151) translate(-1.276591420173645,-0.8510609269142151) translate(1.276591420173645,1.276591420173645) translate(0.42553046345710754,0.42553046345710754) translate(-30.212663650512695,-4.25530481338501) translate(30.212663650512695,3.8297741413116455) ">
       <path fill="#ffffff" id="DejaVuSans-6e" d="m54.89063,33.01563l0,-33.01563l-8.98438,0l0,32.71875q0,7.76563 -3.03125,11.60938q-3.03125,3.85937 -9.07812,3.85937q-7.28125,0 -11.48438,-4.64062q-4.20312,-4.625 -4.20312,-12.64063l0,-30.90625l-9.03125,0l0,54.6875l9.03125,0l0,-8.5q3.23437,4.9375 7.59375,7.375q4.375,2.4375 10.09375,2.4375q9.42187,0 14.25,-5.82812q4.84375,-5.82813 4.84375,-17.15625z"/>
      </defs>
      <g id="svg_215" transform="rotate(-90 24.480722427368196,175.81211853027347) translate(28.6171875,187.22799682617188) scale(0.10000000149011612,-0.10000000149011612) ">
       <use fill="#ffffff" x="-4.255304" y="-12.765912" id="svg_216" xlink:href="#DejaVuSans-6e"/>
       <use fill="#ffffff" y="-12.765912" id="svg_217" xlink:href="#DejaVuSans-32" x="59.123602"/>
       <use fill="#ffffff" y="-12.765912" id="svg_218" xlink:href="#DejaVuSans-6e" x="122.746649"/>
       <use fill="#ffffff" y="-12.765912" id="svg_219" xlink:href="#DejaVuSans-31" x="186.125555"/>
      </g>
     </g>
    </g>
    <g id="patch_3">
     <path id="svg_220" fill="#ffffff" stroke="#000000" stroke-linecap="square" stroke-width="0.8" d="m57.17447,308.860591l0,-266.112"/>
    </g>
    <g id="patch_4">
     <path id="svg_221" fill="#ffffff" stroke="#000000" stroke-linecap="square" stroke-width="0.8" d="m414.29447,308.860591l0,-266.112"/>
    </g>
    <g id="patch_5">
     <path id="svg_222" fill="#ffffff" stroke="#000000" stroke-linecap="square" stroke-width="0.8" d="m57.17447,308.860591l357.12,0"/>
    </g>
    <g id="patch_6">
     <path id="svg_223" fill="#ffffff" stroke="#000000" stroke-linecap="square" stroke-width="0.8" d="m57.17447,42.748591l357.12,0"/>
    </g>
   </g>
  </g>
  <ellipse stroke="#000" transform="rotate(113.39567565917969 330.5472717285157,126.53573608398438) " ry="78.142507" rx="34.205295" id="svg_224" cy="126.535729" cx="330.547282" stroke-width="1.5" fill="none"/>
  <text xml:space="preserve" text-anchor="start" font-family="Helvetica, Arial, sans-serif" font-size="12" id="svg_225" y="185.531289" x="351.488165" fill-opacity="null" stroke-opacity="null" stroke-width="0" stroke="#000" fill="#000000">FS848</text>
  <ellipse stroke="#000" transform="rotate(31.529422760009766 96.02786254882817,74.33758544921875) " ry="34.835296" rx="21.408357" id="svg_226" cy="74.337591" cx="96.027856" stroke-width="1.5" fill="none"/>
  <text xml:space="preserve" text-anchor="start" font-family="Helvetica, Arial, sans-serif" font-size="12" id="svg_228" y="70.212528" x="125.105959" fill-opacity="null" stroke-opacity="null" stroke-width="0" stroke="#000" fill="#000000">FS879</text>
  <path stroke="#000" id="svg_229" d="m321.495065,110.780856c8.300592,-3.958294 -2.902614,-35.411816 3.885089,-36.522718c6.787712,-1.110902 12.522193,16.93025 12.522193,37.222329c0,20.292069 -4.849649,36.728647 -10.836891,36.728647c-5.987232,0 -13.870972,-33.469963 -5.57038,-37.428258z" transform="rotate(73.30260467529297 327.90258789062506,111.20925903320308) " stroke-opacity="null" stroke-linecap="null" stroke-linejoin="null" stroke-width="1.5" fill-opacity="null" fill="none"/>
  <text xml:space="preserve" text-anchor="start" font-family="Helvetica, Arial, sans-serif" font-size="12" id="svg_230" y="95.318827" x="364.254086" fill-opacity="null" stroke-opacity="null" stroke-width="0" stroke="#000" fill="#000000">FS866</text>
  <ellipse stroke="#000" transform="rotate(73.70130157470703 308.73352050781244,179.88047790527347) " ry="12.591066" rx="33.908527" id="svg_237" cy="179.880489" cx="308.73352" stroke-width="1.5" fill="none"/>
  <text xml:space="preserve" text-anchor="start" font-family="Helvetica, Arial, sans-serif" font-size="12" id="svg_238" y="212.33971" x="267.658662" fill-opacity="null" stroke-opacity="null" stroke-width="0" stroke="#000" fill="#000000">FS881</text>
  <ellipse stroke="#000" transform="rotate(88.91800689697266 205.84245300292966,146.61328125) " ry="67.630278" rx="33.57992" id="svg_239" cy="146.613285" cx="205.842432" stroke-width="1.5" fill="none"/>
  <text xml:space="preserve" text-anchor="start" font-family="Helvetica, Arial, sans-serif" font-size="12" id="svg_240" y="172.339844" x="210.21205" fill-opacity="null" stroke-opacity="null" stroke-width="0" stroke="#000" fill="#000000">FS877</text>
  <path id="svg_241" d="m80.3982,216.015686c16.8055,-10.89925 22.89186,-35.87217 34.00567,-49.46111c11.11382,-13.58895 34.00568,22.13453 34.00568,49.46111c0,27.32658 -20.36069,57.20231 -34.00568,49.46111c-13.64499,-7.7412 -50.81118,-38.56187 -34.00567,-49.46111z" transform="rotate(40.45752716064453 112.26331329345709,215.1463165283203) " stroke-opacity="null" stroke-linecap="null" stroke-linejoin="null" stroke-width="1.5" stroke="#000" fill-opacity="null" fill="none"/>
  <text style="cursor: move;" xml:space="preserve" text-anchor="start" font-family="Helvetica, Arial, sans-serif" font-size="12" id="svg_242" y="237.446004" x="148.084598" fill-opacity="null" stroke-opacity="null" stroke-width="0" stroke="#000" fill="#000000">FS842</text>
  <ellipse stroke="#000" transform="rotate(88.91800689697266 108.82742309570312,179.90582275390625) " ry="15.616339" rx="11.034842" id="svg_243" cy="179.905817" cx="108.82743" stroke-width="1.5" fill="none"/>
  <text xml:space="preserve" text-anchor="start" font-family="Helvetica, Arial, sans-serif" font-size="12" id="svg_244" y="165.531356" x="87.65927" fill-opacity="null" stroke-opacity="null" stroke-width="0" stroke="#000" fill="#000000">FS881</text>
  <ellipse stroke="#000" transform="rotate(88.91800689697266 102.07659912109375,277.0018005371094) " ry="24.173647" rx="11.24757" id="svg_245" cy="277.001815" cx="102.076598" stroke-width="1.5" fill="none"/>
  <text xml:space="preserve" text-anchor="start" font-family="Helvetica, Arial, sans-serif" font-size="12" id="svg_246" y="282.126705" x="130.637848" fill-opacity="null" stroke-opacity="null" stroke-width="0" stroke="#000" fill="#000000">FS854</text>
  <ellipse stroke="#000" transform="rotate(87.57675170898438 148.64692687988278,98.8771743774414) " ry="43.305639" rx="18.219733" id="svg_247" cy="98.877182" cx="148.646929" stroke-width="1.5" fill="none"/>
  <text xml:space="preserve" text-anchor="start" font-family="Helvetica, Arial, sans-serif" font-size="12" id="svg_248" y="89.78693" x="193.190833" fill-opacity="null" stroke-opacity="null" stroke-width="0" stroke="#000" fill="#000000">FS866</text>
 </g>
</svg>